# This file uses meters as units for non-parametric coordinates.

mtllib Muralla.mtl
g default
v 260.000000 -0.000001 900.063000
v 300.000000 -0.000001 900.063000
v 260.000000 123.835877 900.063000
v 300.000000 123.835877 900.063000
v 260.000000 123.835877 659.937000
v 300.000000 123.835877 659.937000
v 260.000000 -0.000001 659.937000
v 300.000000 -0.000001 659.937000
v 260.000000 123.835877 876.050394
v 260.000000 -0.000001 876.050394
v 300.000000 -0.000001 876.050394
v 300.000000 123.835877 876.050394
v 260.000000 -0.000001 681.548341
v 260.000000 123.835877 681.548355
v 300.000000 123.835877 681.548355
v 300.000000 -0.000001 681.548341
v 260.000000 123.835877 837.149986
v 260.000000 -0.000001 837.149986
v 300.000000 -0.000001 837.149986
v 300.000000 123.835877 837.149986
v 260.000000 -0.000001 806.029661
v 260.000000 123.835877 806.029661
v 300.000000 123.835877 806.029661
v 300.000000 -0.000001 806.029661
v 260.000000 -0.000001 718.892734
v 260.000000 123.835877 718.892742
v 300.000000 123.835877 718.892742
v 300.000000 -0.000001 718.892734
v 260.000000 123.835877 745.033821
v 260.000000 -0.000001 745.033814
v 300.000000 -0.000001 745.033814
v 300.000000 123.835877 745.033821
v 260.000000 145.132117 900.063000
v 300.000000 145.132117 900.063000
v 300.000000 145.132117 876.050394
v 260.000000 145.132117 876.050394
v 300.000000 145.354306 837.149986
v 260.000000 145.354306 837.149986
v 300.000000 145.354306 806.029661
v 260.000000 145.354306 806.029661
v 300.000000 145.967404 745.033821
v 260.000000 145.967404 745.033821
v 300.000000 145.967404 718.892742
v 260.000000 145.967404 718.892742
v 260.000000 144.952843 681.548355
v 300.000000 144.952843 681.548355
v 300.000000 144.952843 659.937000
v 260.000000 144.952843 659.937000
v 260.000000 12.383594 900.063000
v 260.000000 12.383594 876.050394
v 260.000000 12.383594 837.149986
v 260.000000 12.383594 806.029657
v 260.000000 12.383594 745.033817
v 260.000000 12.383594 718.892734
v 260.000000 12.383594 681.548355
v 260.000000 12.383594 659.937000
v 300.000000 12.383594 659.937000
v 300.000000 12.383594 681.548341
v 300.000000 12.383594 718.892734
v 300.000000 12.383594 745.033817
v 300.000000 12.383594 806.029661
v 300.000000 12.383594 837.149986
v 300.000000 12.383594 876.050387
v 300.000000 12.383594 900.063000
v 260.000000 101.545403 659.937000
v 260.000000 101.545403 681.548355
v 260.000000 101.545403 718.892742
v 260.000000 101.545403 745.033821
v 260.000000 101.545403 806.029661
v 260.000000 101.545403 837.149986
v 260.000000 101.545403 876.050394
v 260.000000 101.545403 900.063000
v 300.000000 101.545403 900.063000
v 300.000000 101.545403 876.050394
v 300.000000 101.545403 837.149982
v 300.000000 101.545403 806.029662
v 300.000000 101.545403 745.033821
v 300.000000 101.545403 718.892742
v 300.000000 101.545403 681.548355
v 300.000000 101.545403 659.937000
v 260.000000 74.796832 900.063000
v 260.000000 74.796832 876.050394
v 260.000000 74.796832 837.149986
v 260.000000 74.796832 806.029661
v 260.000000 74.796832 745.033821
v 260.000000 74.796832 718.892742
v 260.000000 74.796832 681.548355
v 260.000000 74.796832 659.937000
v 300.000000 74.796832 659.937000
v 300.000000 74.796832 681.548355
v 300.000000 74.796832 718.892742
v 300.000000 74.796832 745.033821
v 300.000000 74.796832 806.029662
v 300.000000 74.796832 837.149982
v 300.000000 74.796832 876.050394
v 300.000000 74.796832 900.063000
v 260.000000 43.590219 900.063000
v 260.000000 43.590219 876.050394
v 260.000000 43.590219 837.149986
v 260.000000 43.590219 806.029657
v 260.000000 43.590219 745.033821
v 260.000000 43.590219 718.892734
v 260.000000 43.590219 681.548355
v 260.000000 43.590219 659.937000
v 300.000000 43.590219 659.937000
v 300.000000 43.590219 681.548355
v 300.000000 43.590219 718.892734
v 300.000000 43.590219 745.033821
v 300.000000 43.590219 806.029662
v 300.000000 43.590219 837.149982
v 300.000000 43.590219 876.050394
v 300.000000 43.590219 900.063000
v 260.000000 56.072881 876.050394
v 260.000000 56.072889 900.063000
v 300.000000 56.072889 900.063000
v 300.000000 56.072889 876.050394
v 300.000000 56.072889 837.149982
v 300.000000 56.072881 806.029662
v 300.000000 56.072889 745.033821
v 300.000000 56.072881 718.892734
v 300.000000 56.072881 681.548355
v 300.000000 56.072881 659.937000
v 260.000000 56.072881 659.937000
v 260.000000 56.072889 681.548355
v 260.000000 56.072889 718.892734
v 260.000000 56.072881 745.033821
v 260.000000 56.072889 806.029662
v 260.000000 56.072881 837.149986
v 260.000000 85.496326 659.937000
v 260.000000 85.496326 681.548355
v 260.000000 85.496326 718.892734
v 260.000000 85.496326 745.033821
v 260.000000 85.496326 806.029662
v 260.000000 85.496326 837.149986
v 260.000000 85.496326 876.050394
v 260.000000 85.496326 900.063000
v 300.000000 85.496326 900.063000
v 300.000000 85.496326 876.050394
v 300.000000 85.496326 837.149982
v 300.000000 85.496326 806.029662
v 300.000000 85.496326 745.033821
v 300.000000 85.496326 718.892742
v 300.000000 85.496326 681.548355
v 300.000000 85.496326 659.937000
v 260.000000 110.461591 659.937000
v 260.000000 110.461606 681.548355
v 260.000000 110.461606 718.892734
v 260.000000 110.461591 745.033821
v 260.000000 110.461606 806.029662
v 260.000000 110.461591 837.149986
v 260.000000 110.461591 876.050394
v 260.000000 110.461606 900.063000
v 300.000000 110.461606 900.063000
v 300.000000 110.461606 876.050394
v 300.000000 110.461606 837.149982
v 300.000000 110.461591 806.029662
v 300.000000 110.461606 745.033821
v 300.000000 110.461591 718.892742
v 300.000000 110.461591 681.548355
v 300.000000 110.461591 659.937000
v 260.000000 21.745596 900.063000
v 260.000000 21.745596 876.050394
v 260.000000 21.745596 837.149986
v 260.000000 21.745596 806.029657
v 260.000000 21.745596 745.033817
v 260.000000 21.745596 718.892734
v 260.000000 21.745596 681.548355
v 260.000000 21.745596 659.937000
v 300.000000 21.745596 659.937000
v 300.000000 21.745596 681.548341
v 300.000000 21.745596 718.892734
v 300.000000 21.745596 745.033817
v 300.000000 21.745596 806.029662
v 300.000000 21.745596 837.149982
v 300.000000 21.745596 876.050394
v 300.000000 21.745596 900.063000
v 251.195829 110.461591 837.149986
v 251.195829 110.461591 876.050394
v 251.195829 101.545403 837.149986
v 251.195829 101.545403 876.050394
v 251.448987 101.545403 745.033821
v 251.448987 101.545403 806.029661
v 251.448987 85.496326 745.033821
v 251.448987 85.496326 806.029662
v 254.186139 110.461606 681.548355
v 254.186139 110.461606 718.892734
v 254.186139 101.545403 681.548355
v 254.186139 101.545403 718.892742
v 252.349555 43.590219 837.149986
v 252.349555 43.590219 806.029657
v 252.349555 21.745596 806.029657
v 252.349555 21.745596 837.149986
v 255.025587 74.796832 745.033821
v 255.025587 74.796832 718.892742
v 255.025587 56.072889 718.892734
v 255.025587 56.072881 745.033821
v 254.406080 43.590219 900.063000
v 254.406080 43.590219 876.050394
v 254.406080 21.745596 876.050394
v 254.406080 21.745596 900.063000
v 255.117283 21.745596 718.892734
v 255.117283 21.745596 681.548355
v 255.117283 12.383594 681.548355
v 255.117283 12.383594 718.892734
v 256.277974 56.009785 683.336589
v 256.277974 56.009785 720.680972
v 256.277974 43.527104 683.336589
v 256.277974 43.527104 720.680972
v 255.185800 74.796832 837.149986
v 255.185800 74.796832 806.029661
v 255.185800 56.072889 806.029662
v 255.185800 56.072881 837.149986
v 256.392262 110.005330 719.244217
v 256.392262 123.379615 719.244224
v 256.392262 110.005315 745.385303
v 256.392262 123.379615 745.385303
v 256.125870 74.796832 681.548355
v 256.125870 74.796832 659.937000
v 256.125870 85.496326 681.548355
v 256.125870 85.496326 659.937000
v 255.778625 12.383594 876.050394
v 255.778625 12.383594 837.149986
v 255.778625 -0.000001 837.149986
v 255.778625 -0.000001 876.050394
v 253.223147 56.072881 745.033821
v 253.223147 56.072889 806.029662
v 253.223147 43.590219 745.033821
v 253.223147 43.590219 806.029657
vt 0.156429 0.524489
vt 0.165265 0.524489
vt 0.165265 0.559832
vt 0.156429 0.559832
vt 0.179579 0.559832
vt 0.179579 0.524489
vt 0.165265 0.586552
vt 0.156429 0.586552
vt 0.179579 0.586552
vt 0.191031 0.559832
vt 0.191031 0.524489
vt 0.165265 0.648897
vt 0.156429 0.648897
vt 0.179579 0.648897
vt 0.191031 0.586552
vt 0.213475 0.559832
vt 0.213475 0.524489
vt 0.165265 0.684524
vt 0.156429 0.684524
vt 0.179579 0.684524
vt 0.191031 0.648897
vt 0.213475 0.586552
vt 0.223094 0.559832
vt 0.223094 0.524489
vt 0.165265 0.737963
vt 0.156429 0.737963
vt 0.179579 0.737963
vt 0.191031 0.684524
vt 0.213475 0.648897
vt 0.223094 0.586552
vt 0.236836 0.559832
vt 0.236836 0.524489
vt 0.165265 0.768499
vt 0.156429 0.768499
vt 0.179579 0.768499
vt 0.191031 0.737963
vt 0.213475 0.684524
vt 0.223094 0.648897
vt 0.236836 0.586552
vt 0.244788 0.559832
vt 0.244788 0.524489
vt 0.165265 0.814304
vt 0.156429 0.814304
vt 0.179579 0.814304
vt 0.191031 0.768499
vt 0.213475 0.737963
vt 0.223094 0.684524
vt 0.236836 0.648897
vt 0.244788 0.586552
vt 0.165265 0.839751
vt 0.156429 0.839751
vt 0.179579 0.839751
vt 0.191031 0.814304
vt 0.213475 0.768499
vt 0.223094 0.737963
vt 0.236836 0.684524
vt 0.244788 0.648897
vt 0.165265 0.877922
vt 0.156429 0.877922
vt 0.179579 0.877922
vt 0.191031 0.839751
vt 0.213475 0.814304
vt 0.223094 0.768499
vt 0.236836 0.737963
vt 0.244788 0.684524
vt 0.165265 0.938703
vt 0.156429 0.938703
vt 0.191031 0.877922
vt 0.213475 0.839751
vt 0.223094 0.814304
vt 0.236836 0.768499
vt 0.244788 0.737963
vt 0.213475 0.877922
vt 0.191031 0.939337
vt 0.179579 0.939337
vt 0.223094 0.839751
vt 0.236836 0.814304
vt 0.244788 0.768499
vt 0.223094 0.877922
vt 0.236836 0.839751
vt 0.244788 0.814304
vt 0.236836 0.877922
vt 0.223094 0.941087
vt 0.213475 0.941087
vt 0.244788 0.839751
vt 0.244788 0.877922
vt 0.244788 0.938191
vt 0.236836 0.938191
vt 0.244788 0.560707
vt 0.235952 0.560707
vt 0.235952 0.525364
vt 0.244788 0.525364
vt 0.244788 0.587427
vt 0.235952 0.587427
vt 0.221638 0.587427
vt 0.221638 0.560707
vt 0.235952 0.649772
vt 0.221638 0.649772
vt 0.210187 0.587427
vt 0.210187 0.560707
vt 0.235952 0.685398
vt 0.221638 0.685398
vt 0.187742 0.587427
vt 0.187742 0.560707
vt 0.210187 0.525364
vt 0.221638 0.525364
vt 0.235952 0.738837
vt 0.221638 0.738837
vt 0.210187 0.685399
vt 0.210187 0.649772
vt 0.244788 0.685399
vt 0.244788 0.649772
vt 0.187742 0.649772
vt 0.178123 0.587427
vt 0.178123 0.560707
vt 0.187742 0.525364
vt 0.235952 0.769374
vt 0.221638 0.769374
vt 0.244788 0.738837
vt 0.178123 0.649772
vt 0.178123 0.525364
vt 0.235952 0.815179
vt 0.221638 0.815179
vt 0.210187 0.769374
vt 0.210187 0.738837
vt 0.244788 0.769374
vt 0.187742 0.685398
vt 0.178123 0.685399
vt 0.164382 0.649772
vt 0.164382 0.587427
vt 0.164382 0.560707
vt 0.164382 0.525364
vt 0.210187 0.815179
vt 0.244788 0.815179
vt 0.187742 0.769374
vt 0.187742 0.738837
vt 0.156429 0.587427
vt 0.156429 0.649772
vt 0.156429 0.525364
vt 0.156429 0.560707
vt 0.221638 0.840626
vt 0.210187 0.840626
vt 0.244788 0.840626
vt 0.235952 0.840626
vt 0.178123 0.769374
vt 0.178123 0.738837
vt 0.164382 0.685399
vt 0.156429 0.685398
vt 0.210187 0.878797
vt 0.221638 0.878797
vt 0.187742 0.840626
vt 0.187742 0.815179
vt 0.235952 0.878797
vt 0.244788 0.878797
vt 0.178123 0.815179
vt 0.164382 0.769374
vt 0.164382 0.738837
vt 0.156429 0.738837
vt 0.187742 0.878797
vt 0.221638 0.940212
vt 0.210187 0.940212
vt 0.178123 0.840626
vt 0.244788 0.939578
vt 0.235952 0.939578
vt 0.164382 0.815179
vt 0.156429 0.769374
vt 0.156429 0.815179
vt 0.164382 0.840626
vt 0.156429 0.840626
vt 0.164382 0.878797
vt 0.156429 0.878797
vt 0.178123 0.878797
vt 0.164382 0.939066
vt 0.156429 0.939066
vt 0.629590 0.757756
vt 0.615276 0.757756
vt 0.615276 0.722413
vt 0.629590 0.722413
vt 0.195799 0.701206
vt 0.205418 0.701206
vt 0.205418 0.764370
vt 0.195799 0.764370
vt 0.617624 0.759170
vt 0.617624 0.720999
vt 0.627243 0.720999
vt 0.627243 0.759170
vt 0.629304 0.753444
vt 0.615563 0.753444
vt 0.615563 0.726725
vt 0.629304 0.726725
vt 0.633656 0.762987
vt 0.611211 0.762987
vt 0.611211 0.717182
vt 0.633656 0.717182
vt 0.628159 0.766804
vt 0.616708 0.766804
vt 0.616708 0.713365
vt 0.628159 0.713365
vt 0.627243 0.766804
vt 0.617624 0.766804
vt 0.617624 0.713365
vt 0.627243 0.713365
vt 0.629304 0.757898
vt 0.615563 0.757898
vt 0.615563 0.722272
vt 0.629304 0.722272
vt 0.633656 0.757898
vt 0.611211 0.757898
vt 0.611211 0.722272
vt 0.633656 0.722272
vt 0.618457 0.724816
vt 0.626410 0.724816
vt 0.626410 0.755353
vt 0.618457 0.755353
vt 0.629304 0.752808
vt 0.615563 0.752808
vt 0.615563 0.727361
vt 0.629304 0.727361
vt 0.629590 0.752808
vt 0.615276 0.752808
vt 0.615276 0.727361
vt 0.629590 0.727361
vt 0.626851 0.771258
vt 0.618016 0.771258
vt 0.618016 0.708912
vt 0.626851 0.708912
vt 0.628159 0.771258
vt 0.616708 0.771258
vt 0.616708 0.708912
vt 0.628159 0.708912
vt 0.836511 0.952740
vt 0.836511 0.599306
vt 0.845347 0.599306
vt 0.845347 0.952740
vt 0.422777 0.939362
vt 0.422777 0.585928
vt 0.431613 0.585928
vt 0.431613 0.939362
vt 0.408463 0.939362
vt 0.408463 0.585928
vt 0.397012 0.939362
vt 0.397012 0.585928
vt 0.422777 0.976661
vt 0.408463 0.976661
vt 0.374567 0.939362
vt 0.374567 0.585928
vt 0.364948 0.939362
vt 0.364948 0.585928
vt 0.351207 0.939362
vt 0.351207 0.585928
vt 0.343254 0.939362
vt 0.343254 0.585928
vt 0.836953 0.952740
vt 0.836953 0.599306
vt 0.844905 0.599306
vt 0.844905 0.952740
vt 0.833772 0.952740
vt 0.833772 0.599306
vt 0.848086 0.599306
vt 0.848086 0.952740
vt 0.834058 0.952740
vt 0.834058 0.599306
vt 0.847800 0.599306
vt 0.847800 0.952740
vt 0.835204 0.952740
vt 0.835204 0.599306
vt 0.846655 0.599306
vt 0.846655 0.952740
vt 0.829707 0.952740
vt 0.829707 0.599306
vt 0.852151 0.599306
vt 0.852151 0.952740
vt 0.836120 0.952740
vt 0.836120 0.599306
vt 0.845739 0.599306
vt 0.845739 0.952740
vt 0.615276 0.701189
vt 0.629590 0.701189
vt 0.629590 0.778981
vt 0.615276 0.778981
vt 0.615276 0.701189
vt 0.629590 0.701189
vt 0.629590 0.778981
vt 0.615276 0.778981
vt 0.611211 0.702307
vt 0.633656 0.702307
vt 0.633656 0.777862
vt 0.611211 0.777862
vt 0.611211 0.702307
vt 0.633656 0.702307
vt 0.633656 0.777862
vt 0.611211 0.777862
vt 0.615563 0.714400
vt 0.629304 0.714400
vt 0.629304 0.765770
vt 0.615563 0.765770
vt 0.615563 0.714400
vt 0.629304 0.714400
vt 0.629304 0.765770
vt 0.615563 0.765770
vt 0.616708 0.706286
vt 0.628159 0.706286
vt 0.628159 0.773884
vt 0.616708 0.773884
vt 0.616708 0.706286
vt 0.628159 0.706286
vt 0.628159 0.773884
vt 0.616708 0.773884
vt 0.617624 0.718108
vt 0.627243 0.718108
vt 0.627243 0.762061
vt 0.617624 0.762061
vt 0.617624 0.718108
vt 0.627243 0.718108
vt 0.627243 0.762061
vt 0.617624 0.762061
vt 0.618016 0.715371
vt 0.626851 0.715371
vt 0.626851 0.764798
vt 0.618016 0.764798
vt 0.618016 0.715371
vt 0.626851 0.715371
vt 0.626851 0.764798
vt 0.618016 0.764798
vt 0.615563 0.718513
vt 0.629304 0.718513
vt 0.629304 0.761656
vt 0.615563 0.761656
vt 0.615563 0.718513
vt 0.629304 0.718513
vt 0.629304 0.761656
vt 0.615563 0.761656
vt 0.615892 0.723641
vt 0.629633 0.723641
vt 0.628975 0.756528
vt 0.615234 0.756528
vt 0.615234 0.723641
vt 0.628975 0.723641
vt 0.629633 0.756528
vt 0.615892 0.756528
vt 0.616708 0.718816
vt 0.628159 0.718816
vt 0.628159 0.761353
vt 0.616708 0.761353
vt 0.616708 0.718816
vt 0.628159 0.718816
vt 0.628159 0.761353
vt 0.616708 0.761353
vt 0.617559 0.724146
vt 0.627178 0.724146
vt 0.627308 0.756023
vt 0.617689 0.756023
vt 0.617689 0.724146
vt 0.627308 0.724146
vt 0.627178 0.756023
vt 0.617559 0.756023
vt 0.618457 0.722969
vt 0.626410 0.722969
vt 0.626410 0.757200
vt 0.618457 0.757200
vt 0.618457 0.722969
vt 0.626410 0.722969
vt 0.626410 0.757200
vt 0.618457 0.757200
vt 0.615276 0.721435
vt 0.629591 0.721435
vt 0.629591 0.758734
vt 0.615276 0.758734
vt 0.611211 0.710145
vt 0.633656 0.710145
vt 0.633656 0.770024
vt 0.611211 0.770024
vt 0.611211 0.710145
vt 0.633656 0.710145
vt 0.633656 0.770024
vt 0.611211 0.770024
vt 0.560781 0.001985
vt 0.987181 0.001985
vt 0.987181 0.044625
vt 0.560781 0.044625
vt 0.987181 0.076861
vt 0.560781 0.076861
vt 0.987181 0.152077
vt 0.560781 0.152077
vt 0.987181 0.195059
vt 0.560781 0.195059
vt 0.501150 0.152077
vt 0.501150 0.076861
vt 0.987181 0.259530
vt 0.560781 0.259530
vt 0.987181 0.296371
vt 0.560781 0.296371
vt 0.987181 0.351633
vt 0.560781 0.351633
vt 0.987181 0.382334
vt 0.560781 0.382334
vt 0.987181 0.428385
vt 0.560781 0.428385
vt 0.987181 0.501713
vt 0.560781 0.501713
vt 0.551614 0.458765
vt 0.978015 0.458765
vt 0.978015 0.501405
vt 0.551614 0.501405
vt 0.551614 0.426529
vt 0.978015 0.426529
vt 0.551614 0.351312
vt 0.978015 0.351312
vt 0.551614 0.308331
vt 0.978015 0.308331
vt 0.551614 0.243859
vt 0.978015 0.243859
vt 0.551614 0.207018
vt 0.978015 0.207018
vt 0.551614 0.151757
vt 0.978015 0.151757
vt 0.510316 0.243859
vt 0.510316 0.207018
vt 0.551614 0.121056
vt 0.978015 0.121056
vt 0.551614 0.075005
vt 0.978015 0.075005
vt 0.551614 0.002293
vt 0.978015 0.002293
vt 0.303360 0.044098
vt 0.303360 0.397531
vt 0.242579 0.397531
vt 0.242579 0.044098
vt 0.242262 0.397531
vt 0.242262 0.044098
vt 0.303677 0.044098
vt 0.303677 0.397531
vt 0.303677 0.044098
vt 0.303677 0.397532
vt 0.242262 0.397532
vt 0.242262 0.044098
vt 0.241387 0.397531
vt 0.241387 0.044098
vt 0.304552 0.044098
vt 0.304552 0.397531
vt 0.304552 0.044098
vt 0.304552 0.397532
vt 0.241387 0.397532
vt 0.241387 0.044098
vt 0.242835 0.397531
vt 0.242835 0.044098
vt 0.303104 0.044098
vt 0.303104 0.397531
vt 0.609710 0.701189
vt 0.635157 0.701189
vt 0.635157 0.778981
vt 0.609710 0.778981
vt 0.609710 0.701189
vt 0.635157 0.701189
vt 0.635157 0.778981
vt 0.609710 0.778981
vt 0.599531 0.702307
vt 0.645336 0.702307
vt 0.645336 0.777862
vt 0.599531 0.777862
vt 0.599531 0.702307
vt 0.645336 0.702307
vt 0.645336 0.777862
vt 0.599531 0.777862
vt 0.609710 0.714400
vt 0.635157 0.714400
vt 0.635157 0.765770
vt 0.609710 0.765770
vt 0.609710 0.714400
vt 0.635157 0.714400
vt 0.635157 0.765770
vt 0.609710 0.765770
vt 0.591261 0.706286
vt 0.653606 0.706286
vt 0.653606 0.773884
vt 0.591261 0.773884
vt 0.591261 0.706286
vt 0.653606 0.706286
vt 0.653606 0.773884
vt 0.591261 0.773884
vt 0.644410 0.713365
vt 0.644410 0.766804
vt 0.600457 0.766804
vt 0.600457 0.713365
vt 0.644410 0.713365
vt 0.644410 0.766804
vt 0.600457 0.766804
vt 0.600457 0.713365
vt 0.647147 0.708912
vt 0.647147 0.771258
vt 0.597720 0.771258
vt 0.597720 0.708912
vt 0.609074 0.718513
vt 0.635793 0.718513
vt 0.635793 0.761656
vt 0.609074 0.761656
vt 0.609074 0.718513
vt 0.635793 0.718513
vt 0.635793 0.761656
vt 0.609074 0.761656
vt 0.638877 0.722182
vt 0.638877 0.757808
vt 0.605990 0.757988
vt 0.605990 0.722362
vt 0.638877 0.722362
vt 0.638877 0.757988
vt 0.605990 0.757808
vt 0.605990 0.722182
vt 0.643702 0.713365
vt 0.643702 0.766804
vt 0.601165 0.766804
vt 0.601165 0.713365
vt 0.643702 0.713365
vt 0.643702 0.766804
vt 0.601165 0.766804
vt 0.601165 0.713365
vt 0.638372 0.720348
vt 0.638372 0.758519
vt 0.606495 0.759821
vt 0.606495 0.721650
vt 0.638372 0.721651
vt 0.638372 0.759821
vt 0.606495 0.758519
vt 0.606495 0.720348
vt 0.607165 0.722969
vt 0.637702 0.722969
vt 0.637702 0.757200
vt 0.607165 0.757200
vt 0.604762 0.721435
vt 0.640105 0.721435
vt 0.640105 0.758734
vt 0.604762 0.758734
vt 0.604762 0.721435
vt 0.640105 0.721435
vt 0.640105 0.758734
vt 0.604762 0.758734
vt 0.604620 0.710145
vt 0.640247 0.710145
vt 0.640247 0.770024
vt 0.604620 0.770024
vt 0.604620 0.710145
vt 0.640247 0.710145
vt 0.640247 0.770024
vt 0.604620 0.770024
vn 0.000000 0.000000 1.000000
vn 0.000000 0.000000 1.000000
vn 0.000000 0.000000 1.000000
vn 0.000000 0.000000 1.000000
vn 0.000000 1.000000 0.000000
vn 0.000000 1.000000 0.000000
vn 0.000000 1.000000 0.000000
vn 0.000000 1.000000 0.000000
vn 0.000000 0.000000 -1.000000
vn 0.000000 0.000000 -1.000000
vn 0.000000 0.000000 -1.000000
vn 0.000000 0.000000 -1.000000
vn 0.000000 -1.000000 0.000000
vn 0.000000 -1.000000 0.000000
vn 0.000000 -1.000000 0.000000
vn 0.000000 -1.000000 0.000000
vn 1.000000 0.000000 0.000000
vn 1.000000 0.000000 0.000000
vn 1.000000 0.000000 0.000000
vn 1.000000 0.000000 0.000000
vn -1.000000 0.000000 0.000000
vn -1.000000 0.000000 0.000000
vn -1.000000 0.000000 0.000000
vn -1.000000 0.000000 0.000000
vn -1.000000 0.000000 0.000000
vn -1.000000 0.000000 0.000000
vn -1.000000 0.000000 0.000000
vn -1.000000 0.000000 0.000000
vn 0.000000 -1.000000 0.000000
vn 0.000000 -1.000000 0.000000
vn 0.000000 -1.000000 0.000000
vn 0.000000 -1.000000 0.000000
vn 1.000000 0.000000 0.000000
vn 1.000000 0.000000 0.000000
vn 1.000000 0.000000 0.000000
vn 1.000000 0.000000 0.000000
vn 0.000000 1.000000 0.000000
vn 0.000000 1.000000 0.000000
vn 0.000000 1.000000 0.000000
vn 0.000000 1.000000 0.000000
vn -1.000000 0.000000 0.000000
vn -1.000000 0.000000 0.000000
vn -1.000000 0.000000 0.000000
vn -1.000000 0.000000 0.000000
vn 0.000000 1.000000 0.000000
vn 0.000000 1.000000 0.000000
vn 0.000000 1.000000 0.000000
vn 0.000000 1.000000 0.000000
vn 1.000000 0.000000 0.000000
vn 1.000000 0.000000 0.000000
vn 0.000000 -1.000000 0.000000
vn 0.000000 -1.000000 0.000000
vn -1.000000 0.000000 0.000000
vn -1.000000 0.000000 0.000000
vn 0.000000 -1.000000 0.000000
vn 0.000000 -1.000000 0.000000
vn 1.000000 0.000000 0.000000
vn 1.000000 0.000000 0.000000
vn 0.000000 1.000000 0.000000
vn 0.000000 1.000000 0.000000
vn 0.000000 1.000000 0.000000
vn 0.000000 1.000000 0.000000
vn -1.000000 0.000000 0.000000
vn -1.000000 0.000000 0.000000
vn -1.000000 0.000000 0.000000
vn -1.000000 0.000000 0.000000
vn 0.000000 1.000000 0.000000
vn 0.000000 1.000000 0.000000
vn 0.000000 1.000000 0.000000
vn 0.000000 1.000000 0.000000
vn 1.000000 0.000000 0.000000
vn 1.000000 0.000000 0.000000
vn 0.000000 -1.000000 0.000000
vn 0.000000 -1.000000 0.000000
vn -1.000000 0.000000 0.000000
vn -1.000000 0.000000 0.000000
vn 0.000000 1.000000 0.000000
vn 0.000000 1.000000 0.000000
vn 0.000000 1.000000 0.000000
vn 0.000000 1.000000 0.000000
vn 1.000000 0.000000 0.000000
vn 1.000000 0.000000 0.000000
vn 0.000000 -1.000000 0.000000
vn 0.000000 -1.000000 0.000000
vn 0.000000 1.000000 0.000000
vn 0.000000 1.000000 0.000000
vn 0.000000 1.000000 0.000000
vn 0.000000 1.000000 0.000000
vn 0.000000 0.000000 1.000000
vn 0.000000 0.000000 1.000000
vn 0.000000 0.000000 1.000000
vn 0.000000 0.000000 1.000000
vn 1.000000 0.000000 0.000000
vn 1.000000 0.000000 0.000000
vn 1.000000 0.000000 0.000000
vn 1.000000 0.000000 0.000000
vn 0.000000 0.000000 -1.000000
vn 0.000000 0.000000 -1.000000
vn 0.000000 0.000000 -1.000000
vn 0.000000 0.000000 -1.000000
vn -1.000000 0.000000 0.000000
vn -1.000000 0.000000 0.000000
vn -1.000000 0.000000 0.000000
vn -1.000000 0.000000 0.000000
vn 0.000000 0.000000 1.000000
vn 0.000000 0.000000 1.000000
vn 0.000000 0.000000 1.000000
vn 0.000000 0.000000 1.000000
vn 1.000000 0.000000 0.000000
vn 1.000000 0.000000 0.000000
vn 1.000000 0.000000 0.000000
vn 1.000000 0.000000 0.000000
vn 0.000000 0.000000 -1.000000
vn 0.000000 0.000000 -1.000000
vn 0.000000 0.000000 -1.000000
vn 0.000000 0.000000 -1.000000
vn -1.000000 0.000000 0.000000
vn -1.000000 0.000000 0.000000
vn -1.000000 0.000000 0.000000
vn -1.000000 0.000000 0.000000
vn 0.000000 0.000000 1.000000
vn 0.000000 0.000000 1.000000
vn 0.000000 0.000000 1.000000
vn 0.000000 0.000000 1.000000
vn 1.000000 0.000000 0.000000
vn 1.000000 0.000000 0.000000
vn 1.000000 0.000000 0.000000
vn 1.000000 0.000000 0.000000
vn 0.000000 0.000000 -1.000000
vn 0.000000 0.000000 -1.000000
vn 0.000000 0.000000 -1.000000
vn 0.000000 0.000000 -1.000000
vn -1.000000 0.000000 0.000000
vn -1.000000 0.000000 0.000000
vn -1.000000 0.000000 0.000000
vn -1.000000 0.000000 0.000000
vn 0.000000 0.000000 1.000000
vn 0.000000 0.000000 1.000000
vn 0.000000 0.000000 1.000000
vn 0.000000 0.000000 1.000000
vn 1.000000 0.000000 0.000000
vn 1.000000 0.000000 0.000000
vn 1.000000 0.000000 0.000000
vn 1.000000 0.000000 0.000000
vn 0.000000 0.000000 -1.000000
vn 0.000000 0.000000 -1.000000
vn 0.000000 0.000000 -1.000000
vn 0.000000 0.000000 -1.000000
vn -1.000000 0.000000 0.000000
vn -1.000000 0.000000 0.000000
vn -1.000000 0.000000 0.000000
vn -1.000000 0.000000 0.000000
vn -1.000000 0.000000 0.000000
vn -1.000000 0.000000 0.000000
vn -1.000000 0.000000 0.000000
vn -1.000000 0.000000 0.000000
vn -1.000000 0.000000 0.000000
vn -1.000000 0.000000 0.000000
vn -1.000000 0.000000 0.000000
vn -1.000000 0.000000 0.000000
vn -1.000000 0.000000 0.000000
vn -1.000000 0.000000 0.000000
vn -1.000000 0.000000 0.000000
vn -1.000000 0.000000 0.000000
vn -1.000000 0.000000 0.000000
vn -1.000000 0.000000 0.000000
vn -1.000000 0.000000 0.000000
vn -1.000000 0.000000 0.000000
vn -1.000000 0.000000 0.000000
vn -1.000000 0.000000 0.000000
vn -1.000000 0.000000 0.000000
vn -1.000000 0.000000 0.000000
vn 0.000000 0.000000 -1.000000
vn 0.000000 0.000000 -1.000000
vn 0.000000 0.000000 -1.000000
vn 0.000000 0.000000 -1.000000
vn 1.000000 0.000000 0.000000
vn 1.000000 0.000000 0.000000
vn 1.000000 0.000000 0.000000
vn 1.000000 0.000000 0.000000
vn 1.000000 0.000000 0.000000
vn 1.000000 0.000000 0.000000
vn 1.000000 0.000000 0.000000
vn 1.000000 0.000000 0.000000
vn 1.000000 0.000000 0.000000
vn 1.000000 0.000000 0.000000
vn 1.000000 0.000000 0.000000
vn 1.000000 0.000000 0.000000
vn 1.000000 0.000000 0.000000
vn 1.000000 0.000000 0.000000
vn 1.000000 0.000000 0.000000
vn 1.000000 0.000000 0.000000
vn 0.000000 0.000000 1.000000
vn 0.000000 0.000000 1.000000
vn 0.000000 0.000000 1.000000
vn 0.000000 0.000000 1.000000
vn -1.000000 0.000000 0.000000
vn -1.000000 0.000000 0.000000
vn -1.000000 0.000000 0.000000
vn -1.000000 0.000000 0.000000
vn -1.000000 0.000000 0.000000
vn -1.000000 0.000000 0.000000
vn -1.000000 0.000000 0.000000
vn -1.000000 0.000000 0.000000
vn -1.000000 0.000000 0.000000
vn -1.000000 0.000000 0.000000
vn -1.000000 0.000000 0.000000
vn -1.000000 0.000000 0.000000
vn 0.000000 0.000000 1.000000
vn 0.000000 0.000000 1.000000
vn 1.000000 0.000000 0.000000
vn 1.000000 0.000000 0.000000
vn 1.000000 0.000000 0.000000
vn 1.000000 -0.000000 0.000000
vn 1.000000 -0.000000 0.000000
vn 1.000000 0.000000 0.000000
vn 1.000000 0.000000 0.000000
vn 1.000000 0.000000 0.000000
vn 0.000000 0.000000 -1.000000
vn 0.000000 0.000000 -1.000000
vn -1.000000 0.000000 0.000000
vn -1.000000 0.000000 0.000000
vn -1.000000 0.000000 0.000000
vn -1.000000 0.000000 0.000000
vn -1.000000 -0.000000 0.000000
vn -1.000000 -0.000000 0.000000
vn -1.000000 -0.000000 0.000000
vn -1.000000 -0.000000 0.000000
vn -1.000000 -0.000000 0.000000
vn -1.000000 -0.000000 0.000000
vn -1.000000 -0.000000 0.000000
vn -1.000000 -0.000000 0.000000
vn -1.000000 0.000000 0.000000
vn -1.000000 0.000000 0.000000
vn -1.000000 0.000000 0.000000
vn -1.000000 0.000000 0.000000
vn -1.000000 0.000000 0.000000
vn -1.000000 0.000000 0.000000
vn -1.000000 0.000000 0.000000
vn -1.000000 0.000000 0.000000
vn 0.000000 0.000000 -1.000000
vn 0.000000 0.000000 -1.000000
vn 0.000000 0.000000 -1.000000
vn 0.000000 0.000000 -1.000000
vn 1.000000 0.000000 0.000000
vn 1.000000 0.000000 0.000000
vn 1.000000 0.000000 0.000000
vn 1.000000 0.000000 0.000000
vn 1.000000 0.000000 0.000000
vn 1.000000 0.000000 0.000000
vn 1.000000 0.000000 0.000000
vn 1.000000 0.000000 0.000000
vn 1.000000 0.000000 0.000000
vn 1.000000 0.000000 0.000000
vn 1.000000 0.000000 0.000000
vn 1.000000 0.000000 0.000000
vn 1.000000 0.000000 0.000000
vn 1.000000 0.000000 0.000000
vn 1.000000 0.000000 0.000000
vn 1.000000 0.000000 0.000000
vn 0.000000 0.000000 1.000000
vn 0.000000 0.000000 1.000000
vn 0.000000 0.000000 1.000000
vn 0.000000 0.000000 1.000000
vn -1.000000 0.000000 0.000000
vn -1.000000 0.000000 0.000000
vn -1.000000 0.000000 0.000000
vn -1.000000 0.000000 0.000000
vn -1.000000 0.000000 0.000000
vn -1.000000 0.000000 0.000000
vn -1.000000 0.000000 0.000000
vn -1.000000 0.000000 0.000000
vn -1.000000 0.000000 0.000000
vn -1.000000 0.000000 0.000000
vn -1.000000 -0.000000 0.000000
vn -1.000000 -0.000000 0.000000
vn -1.000000 -0.000000 0.000000
vn -1.000000 -0.000000 0.000000
vn -1.000000 0.000000 0.000000
vn -1.000000 0.000000 0.000000
vn -1.000000 0.000000 0.000000
vn -1.000000 0.000000 0.000000
vn -1.000000 0.000000 0.000000
vn -1.000000 0.000000 0.000000
vn -1.000000 0.000000 0.000000
vn -1.000000 0.000000 0.000000
vn -1.000000 0.000000 0.000000
vn -1.000000 0.000000 0.000000
vn 0.000000 0.000000 -1.000000
vn 0.000000 0.000000 -1.000000
vn 0.000000 0.000000 -1.000000
vn 0.000000 0.000000 -1.000000
vn 1.000000 0.000000 0.000000
vn 1.000000 0.000000 0.000000
vn 1.000000 0.000000 0.000000
vn 1.000000 0.000000 0.000000
vn 1.000000 0.000000 0.000000
vn 1.000000 0.000000 0.000000
vn 1.000000 0.000000 0.000000
vn 1.000000 0.000000 0.000000
vn 1.000000 0.000000 0.000000
vn 1.000000 0.000000 0.000000
vn 1.000000 0.000000 0.000000
vn 1.000000 0.000000 0.000000
vn 1.000000 0.000000 0.000000
vn 1.000000 0.000000 0.000000
vn 1.000000 0.000000 0.000000
vn 1.000000 0.000000 0.000000
vn 0.000000 0.000000 1.000000
vn 0.000000 0.000000 1.000000
vn 0.000000 0.000000 1.000000
vn 0.000000 0.000000 1.000000
vn -1.000000 0.000000 0.000000
vn -1.000000 0.000000 0.000000
vn 0.000000 0.000000 1.000000
vn 0.000000 0.000000 1.000000
vn 1.000000 0.000000 0.000000
vn 1.000000 0.000000 0.000000
vn 1.000000 0.000000 0.000000
vn 1.000000 -0.000000 0.000000
vn 1.000000 -0.000000 0.000000
vn 1.000000 0.000000 0.000000
vn 1.000000 0.000000 0.000000
vn 1.000000 0.000000 0.000000
vn 0.000000 0.000000 -1.000000
vn 0.000000 0.000000 -1.000000
vn -1.000000 0.000000 0.000000
vn -1.000000 0.000000 0.000000
vn -1.000000 0.000000 0.000000
vn -1.000000 0.000000 0.000000
vn -1.000000 0.000000 0.000000
vn -1.000000 0.000000 0.000000
vn -1.000000 0.000000 0.000000
vn -1.000000 0.000000 0.000000
vn -1.000000 0.000000 0.000000
vn -1.000000 0.000000 0.000000
vn -1.000000 0.000000 0.000000
vn -1.000000 0.000000 0.000000
vn -1.000000 0.000000 0.000000
vn -1.000000 0.000000 0.000000
vn -1.000000 0.000000 0.000000
vn -1.000000 0.000000 0.000000
vn -1.000000 0.000000 0.000000
vn -1.000000 0.000000 0.000000
vn -1.000000 0.000000 0.000000
vn -1.000000 0.000000 0.000000
vn -1.000000 0.000000 0.000000
vn -1.000000 0.000000 0.000000
vn -1.000000 0.000000 0.000000
vn -1.000000 0.000000 0.000000
vn -1.000000 0.000000 0.000000
vn -1.000000 0.000000 0.000000
vn -1.000000 0.000000 0.000000
vn -1.000000 0.000000 0.000000
vn -1.000000 0.000000 0.000000
vn -1.000000 0.000000 0.000000
vn -1.000000 0.000000 0.000000
vn -1.000000 0.000000 0.000000
vn -1.000000 0.000000 0.000000
vn -1.000000 0.000000 0.000000
vn -1.000000 0.000000 0.000000
vn -1.000000 0.000000 0.000000
vn -1.000000 0.000000 0.000000
vn -1.000000 0.000000 0.000000
vn -1.000000 0.000000 0.000000
vn 0.000000 1.000000 0.000000
vn 0.000000 1.000000 0.000000
vn 0.000000 1.000000 0.000000
vn 0.000000 1.000000 0.000000
vn 0.000000 0.000000 -1.000000
vn 0.000000 0.000000 -1.000000
vn 0.000000 0.000000 -1.000000
vn 0.000000 0.000000 -1.000000
vn 0.000000 -1.000000 0.000000
vn 0.000000 -1.000000 0.000000
vn 0.000000 -1.000000 0.000000
vn 0.000000 -1.000000 0.000000
vn 0.000000 0.000000 1.000000
vn 0.000000 0.000000 1.000000
vn 0.000000 0.000000 1.000000
vn 0.000000 0.000000 1.000000
vn 0.000000 1.000000 0.000000
vn 0.000000 1.000000 0.000000
vn 0.000000 1.000000 0.000000
vn 0.000000 1.000000 0.000000
vn 0.000000 0.000000 -1.000000
vn 0.000000 0.000000 -1.000000
vn 0.000000 0.000000 -1.000000
vn 0.000000 0.000000 -1.000000
vn 0.000000 -1.000000 0.000000
vn 0.000000 -1.000000 0.000000
vn 0.000000 -1.000000 0.000000
vn 0.000000 -1.000000 0.000000
vn 0.000000 0.000000 1.000000
vn 0.000000 0.000000 1.000000
vn 0.000000 0.000000 1.000000
vn 0.000000 0.000000 1.000000
vn 0.000000 1.000000 0.000000
vn 0.000000 1.000000 0.000000
vn 0.000000 1.000000 0.000000
vn 0.000000 1.000000 0.000000
vn 0.000000 0.000000 -1.000000
vn 0.000000 0.000000 -1.000000
vn 0.000000 0.000000 -1.000000
vn 0.000000 0.000000 -1.000000
vn 0.000000 -1.000000 0.000000
vn 0.000000 -1.000000 0.000000
vn 0.000000 -1.000000 0.000000
vn 0.000000 -1.000000 0.000000
vn 0.000000 0.000001 1.000000
vn 0.000000 0.000001 1.000000
vn 0.000000 0.000001 1.000000
vn 0.000000 0.000001 1.000000
vn 0.000000 1.000000 0.000000
vn 0.000000 1.000000 0.000000
vn 0.000000 1.000000 0.000000
vn 0.000000 1.000000 0.000000
vn 0.000000 0.000000 -1.000000
vn 0.000000 0.000000 -1.000000
vn 0.000000 0.000000 -1.000000
vn 0.000000 0.000000 -1.000000
vn 0.000000 -1.000000 0.000000
vn 0.000000 -1.000000 0.000000
vn 0.000000 -1.000000 0.000000
vn 0.000000 -1.000000 0.000000
vn 0.000000 0.000000 1.000000
vn 0.000000 0.000000 1.000000
vn 0.000000 0.000000 1.000000
vn 0.000000 0.000000 1.000000
vn 0.000000 1.000000 0.000000
vn 0.000000 1.000000 0.000000
vn 0.000000 1.000000 0.000000
vn 0.000000 1.000000 0.000000
vn 0.000000 0.000000 -1.000000
vn 0.000000 0.000000 -1.000000
vn 0.000000 0.000000 -1.000000
vn 0.000000 0.000000 -1.000000
vn 0.000000 -1.000000 -0.000000
vn 0.000000 -1.000000 -0.000000
vn 0.000000 -1.000000 -0.000000
vn 0.000000 -1.000000 -0.000000
vn 0.000000 0.000000 1.000000
vn 0.000000 0.000000 1.000000
vn 0.000000 0.000000 1.000000
vn 0.000000 0.000000 1.000000
vn 0.000000 1.000000 0.000000
vn 0.000000 1.000000 0.000000
vn 0.000000 1.000000 0.000000
vn 0.000000 1.000000 0.000000
vn 0.000000 0.000000 -1.000000
vn 0.000000 0.000000 -1.000000
vn 0.000000 0.000000 -1.000000
vn 0.000000 0.000000 -1.000000
vn 0.000000 -1.000000 0.000000
vn 0.000000 -1.000000 0.000000
vn 0.000000 -1.000000 0.000000
vn 0.000000 -1.000000 0.000000
vn 0.000000 0.000000 1.000000
vn 0.000000 0.000000 1.000000
vn 0.000000 0.000000 1.000000
vn 0.000000 0.000000 1.000000
vn 0.000000 1.000000 0.000000
vn 0.000000 1.000000 0.000000
vn 0.000000 1.000000 0.000000
vn 0.000000 1.000000 0.000000
vn 0.000000 0.000000 -1.000000
vn 0.000000 0.000000 -1.000000
vn 0.000000 0.000000 -1.000000
vn 0.000000 0.000000 -1.000000
vn 0.000000 -1.000000 0.000000
vn 0.000000 -1.000000 0.000000
vn 0.000000 -1.000000 0.000000
vn 0.000000 -1.000000 0.000000
vn 0.000000 0.000000 1.000000
vn 0.000000 0.000000 1.000000
vn 0.000000 0.000000 1.000000
vn 0.000000 0.000000 1.000000
vn -0.016952 0.999856 0.000000
vn -0.016952 0.999856 0.000000
vn -0.016952 0.999856 0.000000
vn -0.016952 0.999856 0.000000
vn -0.433059 0.000000 -0.901366
vn -0.433059 0.000000 -0.901366
vn -0.433059 0.000000 -0.901366
vn -0.433059 0.000000 -0.901366
vn 0.016955 -0.999856 0.000000
vn 0.016955 -0.999856 0.000000
vn 0.016955 -0.999856 0.000000
vn 0.016955 -0.999856 0.000000
vn 0.433059 0.000000 0.901366
vn 0.433059 0.000000 0.901366
vn 0.433059 0.000000 0.901366
vn 0.433059 0.000000 0.901366
vn 0.000000 1.000000 0.000000
vn 0.000000 1.000000 0.000000
vn 0.000000 1.000000 0.000000
vn 0.000000 1.000000 0.000000
vn 0.000000 -0.000000 -1.000000
vn 0.000000 -0.000000 -1.000000
vn 0.000000 -0.000000 -1.000000
vn 0.000000 -0.000000 -1.000000
vn 0.000000 -1.000000 -0.000000
vn 0.000000 -1.000000 -0.000000
vn 0.000000 -1.000000 -0.000000
vn 0.000000 -1.000000 -0.000000
vn 0.000000 0.000000 1.000000
vn 0.000000 0.000000 1.000000
vn 0.000000 0.000000 1.000000
vn 0.000000 0.000000 1.000000
vn -0.096968 0.000001 -0.995287
vn -0.096968 0.000001 -0.995287
vn -0.096968 0.000001 -0.995287
vn -0.096968 0.000001 -0.995287
vn 0.125472 -0.992097 -0.000001
vn 0.125472 -0.992097 -0.000001
vn 0.125472 -0.992097 -0.000001
vn 0.125472 -0.992097 -0.000001
vn 0.096966 0.000000 0.995288
vn 0.096966 0.000000 0.995288
vn 0.096966 0.000000 0.995288
vn 0.096966 0.000000 0.995288
vn -0.125468 0.992098 0.000000
vn -0.125468 0.992098 0.000000
vn -0.125468 0.992098 0.000000
vn -0.125468 0.992098 0.000000
vn 0.000000 -1.000000 0.000000
vn 0.000000 -1.000000 0.000000
vn 0.000000 -1.000000 0.000000
vn 0.000000 -1.000000 0.000000
vn 0.000000 0.000000 1.000000
vn 0.000000 0.000000 1.000000
vn 0.000000 0.000000 1.000000
vn 0.000000 0.000000 1.000000
vn 0.000000 1.000000 0.000000
vn 0.000000 1.000000 0.000000
vn 0.000000 1.000000 0.000000
vn 0.000000 1.000000 0.000000
vn 0.000000 0.000000 -1.000000
vn 0.000000 0.000000 -1.000000
vn 0.000000 0.000000 -1.000000
vn 0.000000 0.000000 -1.000000
vn 0.000000 1.000000 0.000000
vn 0.000000 1.000000 0.000000
vn 0.000000 1.000000 0.000000
vn 0.000000 1.000000 0.000000
vn 0.000000 0.000000 -1.000000
vn 0.000000 0.000000 -1.000000
vn 0.000000 0.000000 -1.000000
vn 0.000000 0.000000 -1.000000
vn 0.000000 -1.000000 0.000000
vn 0.000000 -1.000000 0.000000
vn 0.000000 -1.000000 0.000000
vn 0.000000 -1.000000 0.000000
vn 0.000000 0.000000 1.000000
vn 0.000000 0.000000 1.000000
vn 0.000000 0.000000 1.000000
vn 0.000000 0.000000 1.000000
vn 0.000000 1.000000 -0.000000
vn 0.000000 1.000000 -0.000000
vn 0.000000 1.000000 -0.000000
vn 0.000000 1.000000 -0.000000
vn 0.000000 0.000000 -1.000000
vn 0.000000 0.000000 -1.000000
vn 0.000000 0.000000 -1.000000
vn 0.000000 0.000000 -1.000000
vn 0.000000 -1.000000 0.000000
vn 0.000000 -1.000000 0.000000
vn 0.000000 -1.000000 0.000000
vn 0.000000 -1.000000 0.000000
vn 0.000000 -0.000000 1.000000
vn 0.000000 -0.000000 1.000000
vn 0.000000 -0.000000 1.000000
vn 0.000000 -0.000000 1.000000
s 1
g Muralla
usemtl initialShadingGroup
f 1/377/1 2/378/2 64/379/3 49/380/4
s off
f 33/231/5 34/232/6 35/233/7 36/234/8
s 2
f 56/401/9 57/402/10 8/403/11 7/404/12
s 3
f 10/235/13 11/236/14 2/237/15 1/238/16
s 4
f 2/1/17 11/2/18 63/3/19 64/4/20
s 5
f 49/89/21 50/90/22 10/91/23 1/92/24
f 7/139/25 13/132/26 55/131/27 56/140/28
s 3
f 7/251/29 8/252/30 16/250/31 13/249/32
s 4
f 57/40/33 58/31/34 16/32/35 8/41/36
s off
f 45/253/37 46/254/38 47/255/39 48/256/40
f 221/175/41 222/176/42 223/177/43 224/178/44
f 9/257/45 12/258/46 20/259/47 17/260/48
s 4
f 62/5/49 63/3/19 11/2/18 19/6/50
s 3
f 18/239/51 19/240/52 11/236/14 10/235/13
s 5
f 54/115/53 55/131/27 13/132/26 25/121/54
s 3
f 13/249/32 16/250/31 28/248/55 25/247/56
s 4
f 58/31/34 59/23/57 28/24/58 16/32/35
s off
f 26/261/59 27/262/60 15/263/61 14/264/62
s 5
f 51/96/63 52/100/64 21/105/65 18/106/66
s off
f 38/265/67 37/266/68 39/267/69 40/268/70
s 4
f 61/10/71 62/5/49 19/6/50 24/11/72
s 3
f 21/241/73 24/242/74 19/240/52 18/239/51
s 5
f 52/100/64 53/104/75 30/116/76 21/105/65
s off
f 22/269/77 23/270/78 32/271/79 29/272/80
s 4
f 60/16/81 61/10/71 24/11/72 31/17/82
s 3
f 30/245/83 31/246/84 24/242/74 21/241/73
s 5
f 53/104/75 54/115/53 25/121/54 30/116/76
s 3
f 25/247/56 28/248/55 31/246/84 30/245/83
s 4
f 59/23/57 60/16/81 31/17/82 28/24/58
s off
f 42/273/85 41/274/86 43/275/87 44/276/88
f 3/398/89 4/397/90 34/399/91 33/400/92
f 4/59/93 12/58/94 35/66/95 34/67/96
f 12/425/97 9/426/98 36/427/99 35/428/100
f 9/153/101 3/154/102 33/163/103 36/164/104
f 17/429/105 20/430/106 37/431/107 38/432/108
f 20/60/109 23/68/110 39/74/111 37/75/112
f 23/433/113 22/434/114 40/435/115 39/436/116
f 22/149/117 17/150/118 38/160/119 40/161/120
f 29/437/121 32/438/122 41/439/123 42/440/124
f 32/73/125 27/79/126 43/83/127 41/84/128
f 27/441/129 26/442/130 44/443/131 43/444/132
f 26/179/133 29/180/134 42/181/135 44/182/136
f 14/445/137 15/446/138 46/447/139 45/448/140
f 15/82/141 6/86/142 47/87/143 46/88/144
f 6/422/145 5/421/146 48/423/147 47/424/148
f 5/171/149 14/170/150 45/173/151 48/174/152
s 5
f 9/153/153 151/144/154 152/143/155 3/154/156
f 17/150/157 150/141/158 151/144/154 9/153/153
f 22/149/159 149/142/160 150/141/158 17/150/157
f 29/159/161 148/151/162 149/142/160 22/149/159
s off
f 214/183/163 213/184/164 215/185/165 216/186/166
s 5
f 14/170/167 146/168/168 147/162/169 26/172/170
f 145/169/171 146/168/168 14/170/167 5/171/172
s 2
f 5/421/173 6/422/174 160/420/175 145/419/176
s 4
f 15/82/177 159/80/178 160/85/179 6/86/180
f 27/79/181 158/76/182 159/80/178 15/82/177
f 32/73/183 157/69/184 158/76/182 27/79/181
f 23/68/185 156/61/186 157/69/184 32/73/183
f 20/60/187 155/52/188 156/61/186 23/68/185
f 12/58/189 154/50/190 155/52/188 20/60/187
f 153/51/191 154/50/190 12/58/189 4/59/192
s 1
f 152/396/193 153/395/194 4/397/195 3/398/196
s 5
f 56/140/28 55/131/27 167/130/197 168/137/198
s off
f 201/187/199 202/188/200 203/189/201 204/190/202
s 5
f 165/103/203 166/114/204 54/115/53 53/104/75
f 164/99/205 165/103/203 53/104/75 52/100/64
f 163/95/206 164/99/205 52/100/64 51/96/63
f 162/94/207 163/95/206 51/96/63 50/90/22
f 161/93/208 162/94/207 50/90/22 49/89/21
s 1
f 49/380/4 64/379/3 176/381/209 161/382/210
s 4
f 64/4/20 63/3/19 175/7/211 176/8/212
f 174/9/213 175/7/211 63/3/19 62/5/49
f 173/15/214 174/9/213 62/5/49 61/10/71
f 172/22/215 173/15/214 61/10/71 60/16/81
f 171/30/216 172/22/215 60/16/81 59/23/57
f 170/39/217 171/30/216 59/23/57 58/31/34
f 169/49/218 170/39/217 58/31/34 57/40/33
s 2
f 168/405/219 169/406/220 57/402/10 56/401/9
s 5
f 72/134/221 71/122/222 135/117/223 136/126/224
f 71/122/222 70/123/225 134/118/226 135/117/223
f 70/123/225 69/133/227 133/124/228 134/118/226
s off
f 182/191/229 181/192/230 183/193/231 184/194/232
s 5
f 68/152/233 67/155/234 131/145/235 132/135/236
f 67/155/234 66/165/237 130/156/238 131/145/235
f 129/166/239 130/156/238 66/165/237 65/167/240
s 2
f 65/415/241 80/416/242 144/414/243 129/413/244
s 4
f 80/81/245 79/77/246 143/71/247 144/78/248
f 79/77/246 78/70/249 142/63/250 143/71/247
f 78/70/249 77/62/251 141/54/252 142/63/250
f 77/62/251 76/53/253 140/45/254 141/54/252
f 76/53/253 75/44/255 139/35/256 140/45/254
f 75/44/255 74/42/257 138/33/258 139/35/256
f 137/34/259 138/33/258 74/42/257 73/43/260
s 1
f 136/392/261 137/391/262 73/393/263 72/394/264
s 5
f 81/119/265 82/107/266 113/101/267 114/111/268
f 82/107/266 83/108/269 128/102/270 113/101/267
s off
f 209/195/271 210/196/272 211/197/273 212/198/274
s 5
f 84/125/275 85/136/276 126/127/277 127/109/278
s off
f 193/199/279 194/200/280 195/201/281 196/202/282
s 5
f 86/146/283 87/157/284 124/147/285 125/128/286
f 123/148/287 124/147/285 87/157/284 88/158/288
s 2
f 88/411/289 89/412/290 122/410/291 123/409/292
s 4
f 89/72/293 90/64/294 121/56/295 122/65/296
f 90/64/294 91/55/297 120/47/298 121/56/295
f 91/55/297 92/46/299 119/37/300 120/47/298
f 92/46/299 93/36/301 118/28/302 119/37/300
f 93/36/301 94/27/303 117/20/304 118/28/302
f 94/27/303 95/25/305 116/18/306 117/20/304
f 115/19/307 116/18/306 95/25/305 96/26/308
s 1
f 114/386/309 115/385/310 96/389/311 81/390/312
s 5
f 114/111/268 113/101/267 98/97/313 97/112/314
s 1
f 97/384/315 112/383/316 115/385/310 114/386/309
s 4
f 112/13/317 111/12/318 116/18/306 115/19/307
f 117/20/304 116/18/306 111/12/318 110/14/319
f 118/28/302 117/20/304 110/14/319 109/21/320
f 119/37/300 118/28/302 109/21/320 108/29/321
f 120/47/298 119/37/300 108/29/321 107/38/322
f 121/56/295 120/47/298 107/38/322 106/48/323
f 122/65/296 121/56/295 106/48/323 105/57/324
s 2
f 123/409/292 122/410/291 105/408/325 104/407/326
s 5
f 104/138/327 103/129/328 124/147/285 123/148/287
s off
f 206/203/329 205/204/330 207/205/331 208/206/332
s 5
f 126/127/333 125/128/334 102/120/335 101/113/336
s off
f 226/207/337 225/208/338 227/209/339 228/210/340
s 5
f 128/102/270 127/109/341 100/110/342 99/98/343
f 113/101/267 128/102/270 99/98/343 98/97/313
s off
f 218/211/344 217/212/345 219/213/346 220/214/347
s 5
f 131/145/235 130/156/238 87/157/284 86/146/283
f 132/135/236 131/145/235 86/146/283 85/136/276
f 133/124/228 132/135/236 85/136/276 84/125/275
f 134/118/226 133/124/228 84/125/275 83/108/269
f 135/117/223 134/118/226 83/108/269 82/107/266
f 136/126/224 135/117/223 82/107/266 81/119/265
s 1
f 81/390/312 96/389/311 137/391/262 136/392/261
s 4
f 96/26/308 95/25/305 138/33/258 137/34/259
f 139/35/256 138/33/258 95/25/305 94/27/303
f 140/45/254 139/35/256 94/27/303 93/36/301
f 141/54/252 140/45/254 93/36/301 92/46/299
f 142/63/250 141/54/252 92/46/299 91/55/297
f 143/71/247 142/63/250 91/55/297 90/64/294
f 144/78/248 143/71/247 90/64/294 89/72/293
s 2
f 129/413/244 144/414/243 89/412/290 88/411/289
s 5
f 65/167/240 66/165/237 146/168/168 145/169/171
s off
f 186/215/348 185/216/349 187/217/350 188/218/351
s 5
f 148/151/162 147/162/352 67/155/234 68/152/233
f 149/142/160 148/151/162 68/152/233 69/133/227
f 150/141/158 149/142/160 69/133/227 70/123/225
s off
f 178/219/353 177/220/354 179/221/355 180/222/356
s 5
f 152/143/155 151/144/154 71/122/222 72/134/221
s 1
f 72/394/264 73/393/263 153/395/194 152/396/193
s 4
f 73/43/260 74/42/257 154/50/190 153/51/191
f 155/52/188 154/50/190 74/42/257 75/44/255
f 156/61/186 155/52/188 75/44/255 76/53/253
f 157/69/184 156/61/186 76/53/253 77/62/251
f 158/76/182 157/69/184 77/62/251 78/70/249
f 159/80/178 158/76/182 78/70/249 79/77/246
f 160/85/179 159/80/178 79/77/246 80/81/245
s 2
f 145/419/176 160/420/175 80/416/242 65/415/241
s off
f 197/223/357 198/224/358 199/225/359 200/226/360
s 5
f 98/97/313 99/98/343 163/95/206 162/94/207
s off
f 189/227/361 190/228/362 191/229/363 192/230/364
s 5
f 100/110/365 101/113/336 165/103/203 164/99/205
f 101/113/336 102/120/335 166/114/204 165/103/203
f 102/120/335 103/129/328 167/130/197 166/114/204
f 168/137/198 167/130/197 103/129/328 104/138/327
s 2
f 104/407/326 105/408/325 169/406/220 168/405/219
s 4
f 105/57/324 106/48/323 170/39/217 169/49/218
f 106/48/323 107/38/322 171/30/216 170/39/217
f 107/38/322 108/29/321 172/22/215 171/30/216
f 108/29/321 109/21/320 173/15/214 172/22/215
f 109/21/320 110/14/319 174/9/213 173/15/214
f 110/14/319 111/12/318 175/7/211 174/9/213
f 176/8/212 175/7/211 111/12/318 112/13/317
s 1
f 161/382/210 176/381/209 112/383/316 97/384/315
s off
f 151/277/366 150/278/367 177/279/368 178/280/369
f 150/449/370 70/450/371 179/451/372 177/452/373
f 70/281/374 71/282/375 180/283/376 179/284/377
f 71/453/378 151/454/379 178/455/380 180/456/381
f 69/285/382 68/286/383 181/287/384 182/288/385
f 68/457/386 132/458/387 183/459/388 181/460/389
f 132/289/390 133/290/391 184/291/392 183/292/393
f 133/461/394 69/462/395 182/463/396 184/464/397
f 147/293/398 146/294/399 185/295/400 186/296/401
f 146/465/402 66/466/403 187/467/404 185/468/405
f 66/297/406 67/298/407 188/299/408 187/300/409
f 67/469/410 147/470/411 186/471/412 188/472/413
f 99/301/414 100/302/415 190/303/416 189/304/417
f 100/473/418 164/474/419 191/475/420 190/476/421
f 164/305/422 163/306/423 192/307/424 191/308/425
f 163/477/426 99/478/427 189/479/428 192/480/429
f 85/309/430 86/310/431 194/311/432 193/312/433
f 86/481/434 125/482/435 195/483/436 194/484/437
f 125/313/438 126/314/439 196/315/440 195/316/441
f 126/485/442 85/486/443 193/487/444 196/488/445
f 97/317/446 98/318/447 198/319/448 197/320/449
f 98/489/450 162/490/451 199/491/452 198/492/453
f 162/321/454 161/322/455 200/323/456 199/324/457
f 161/382/458 97/384/459 197/387/460 200/388/461
f 166/325/462 167/326/463 202/327/464 201/328/465
f 167/493/466 55/494/467 203/495/468 202/496/469
f 55/329/470 54/330/471 204/331/472 203/332/473
f 54/497/474 166/498/475 201/499/476 204/500/477
f 125/333/478 124/334/479 205/335/480 206/336/481
f 124/501/482 103/502/483 207/503/484 205/504/485
f 103/337/486 102/338/487 208/339/488 207/340/489
f 102/505/490 125/506/491 206/507/492 208/508/493
f 83/341/494 84/342/495 210/343/496 209/344/497
f 84/509/498 127/510/499 211/511/500 210/512/501
f 127/345/502 128/346/503 212/347/504 211/348/505
f 128/513/506 83/514/507 209/515/508 212/516/509
f 26/517/510 147/518/511 213/519/512 214/520/513
f 147/349/514 148/350/515 215/351/516 213/352/517
f 148/521/518 29/522/519 216/523/520 215/524/521
f 29/353/522 26/354/523 214/355/524 216/356/525
f 88/357/526 87/358/527 217/359/528 218/360/529
f 87/525/530 130/526/531 219/527/532 217/528/533
f 130/361/534 129/362/535 220/363/536 219/364/537
f 129/413/538 88/411/539 218/417/540 220/418/541
f 50/365/542 51/366/543 222/367/544 221/368/545
f 51/529/546 18/530/547 223/531/548 222/532/549
f 18/239/550 10/235/551 224/243/552 223/244/553
f 10/533/554 50/534/555 221/535/556 224/536/557
f 127/369/558 126/370/559 225/371/560 226/372/561
f 126/537/562 101/538/563 227/539/564 225/540/565
f 101/373/566 100/374/567 228/375/568 227/376/569
f 100/541/570 127/542/571 226/543/572 228/544/573
