# This file uses meters as units for non-parametric coordinates.

mtllib Terreno.mtl
g default
v -300.000000 0.000000 500.000000
v -100.000000 0.000000 500.000000
v -300.000000 8.160000 500.000000
v -100.000000 8.160000 500.000000
v -300.000000 8.160000 300.000000
v -100.000000 8.160000 300.000000
v -300.000000 0.000000 300.000000
v -100.000000 0.000000 300.000000
vt 0.504700 -0.000003
vt 0.505300 0.999997
vt 0.495300 1.000003
vt 0.494700 0.000003
vt 0.000000 0.545000
vt 1.000000 0.545000
vt 1.000000 0.555000
vt 0.000000 0.555000
vt 1.000033 0.999967
vt 0.000033 1.000033
vt 0.495056 1.000000
vt 0.494944 0.000001
vt 0.504944 -0.000000
vt 0.505056 0.999999
vt 0.000000 0.000000
vt 1.000000 0.000000
vt 1.000000 1.000000
vt 0.000000 1.000000
vt -0.000033 0.000033
vt 0.999967 -0.000033
vt 1.000000 0.445035
vt 0.000000 0.444965
vt -0.000000 0.454965
vt 1.000000 0.455035
vn 0.000000 0.000000 1.000000
vn 0.000000 0.000000 1.000000
vn 0.000000 0.000000 1.000000
vn 0.000000 0.000000 1.000000
vn 0.000000 1.000000 0.000000
vn 0.000000 1.000000 0.000000
vn 0.000000 1.000000 0.000000
vn 0.000000 1.000000 0.000000
vn 0.000000 0.000000 -1.000000
vn 0.000000 0.000000 -1.000000
vn 0.000000 0.000000 -1.000000
vn 0.000000 0.000000 -1.000000
vn 0.000000 -1.000000 0.000000
vn 0.000000 -1.000000 0.000000
vn 0.000000 -1.000000 0.000000
vn 0.000000 -1.000000 0.000000
vn 1.000000 0.000000 0.000000
vn 1.000000 0.000000 0.000000
vn 1.000000 0.000000 0.000000
vn 1.000000 0.000000 0.000000
vn -1.000000 0.000000 0.000000
vn -1.000000 0.000000 0.000000
vn -1.000000 0.000000 0.000000
vn -1.000000 0.000000 0.000000
s off
g Terreno
usemtl standardSurface15SG
f 1/5/1 2/6/2 4/7/3 3/8/4
f 3/15/5 4/16/6 6/17/7 5/18/8
f 5/21/9 6/22/10 8/23/11 7/24/12
f 7/9/13 8/10/14 2/19/15 1/20/16
f 2/1/17 8/2/18 6/3/19 4/4/20
f 7/11/21 1/12/22 3/13/23 5/14/24
