# This file uses meters as units for non-parametric coordinates.

mtllib Bandera 3.mtl
g default
v 107.481270 -1.820198 1048.435059
v 106.761971 -1.820198 1047.023438
v 105.641640 -1.820198 1045.903076
v 104.229942 -1.820198 1045.183838
v 102.665062 -1.820198 1044.935913
v 101.100182 -1.820198 1045.183838
v 99.688484 -1.820198 1045.903076
v 98.568153 -1.820198 1047.023438
v 97.848854 -1.820198 1048.435181
v 97.601006 -1.820198 1050.000000
v 97.848854 -1.820198 1051.564819
v 98.568153 -1.820198 1052.976562
v 99.688484 -1.820198 1054.096924
v 101.100182 -1.820198 1054.816162
v 102.665062 -1.820198 1055.064087
v 104.229942 -1.820198 1054.816162
v 105.641640 -1.820198 1054.096924
v 106.761971 -1.820198 1052.976562
v 107.481270 -1.820198 1051.564819
v 107.729118 -1.820198 1050.000000
v 107.481270 201.820190 1048.435059
v 106.761971 201.820190 1047.023438
v 105.641640 201.820190 1045.903076
v 104.229942 201.820190 1045.183838
v 102.665062 201.820190 1044.935913
v 101.100182 201.820190 1045.183838
v 99.688484 201.820190 1045.903076
v 98.568153 201.820190 1047.023438
v 97.848854 201.820190 1048.435181
v 97.601006 201.820190 1050.000000
v 97.848854 201.820190 1051.564819
v 98.568153 201.820190 1052.976562
v 99.688484 201.820190 1054.096924
v 101.100182 201.820190 1054.816162
v 102.665062 201.820190 1055.064087
v 104.229942 201.820190 1054.816162
v 105.641640 201.820190 1054.096924
v 106.761971 201.820190 1052.976562
v 107.481270 201.820190 1051.564819
v 107.729118 201.820190 1050.000000
v 102.665062 -1.820198 1050.000000
v 102.665062 201.820190 1050.000000
v 107.237976 193.053101 1103.194824
v 106.556908 191.716568 1103.176270
v 105.496132 190.655899 1103.161499
v 104.159470 189.974899 1103.151978
v 102.677773 189.740234 1103.148682
v 101.196075 189.974899 1103.151978
v 99.859413 190.655899 1103.161499
v 98.798637 191.716568 1103.176270
v 98.117577 193.053101 1103.194824
v 97.882896 194.534653 1103.215454
v 98.117577 196.016205 1103.236084
v 98.798637 197.352737 1103.254761
v 99.859413 198.413422 1103.269531
v 101.196075 199.094406 1103.278931
v 102.677773 199.329071 1103.282227
v 104.159470 199.094406 1103.278931
v 105.496132 198.413422 1103.269531
v 106.556908 197.352737 1103.254761
v 107.237968 196.016205 1103.236084
v 107.472649 194.534653 1103.215454
v 107.237976 193.864838 1044.894043
v 106.556908 192.528305 1044.875366
v 105.496132 191.467621 1044.860596
v 104.159470 190.786636 1044.851196
v 102.677773 190.551971 1044.847900
v 101.196075 190.786636 1044.851196
v 99.859413 191.467621 1044.860596
v 98.798637 192.528305 1044.875366
v 98.117577 193.864838 1044.894043
v 97.882896 195.346390 1044.914673
v 98.117577 196.827942 1044.935303
v 98.798637 198.164474 1044.953857
v 99.859413 199.225143 1044.968628
v 101.196075 199.906143 1044.978149
v 102.677773 200.140793 1044.981445
v 104.159470 199.906143 1044.978149
v 105.496132 199.225143 1044.968628
v 106.556908 198.164474 1044.953857
v 107.237968 196.827942 1044.935303
v 107.472649 195.346390 1044.914673
v 102.677773 194.534653 1103.215454
v 102.677773 195.346390 1044.914673
v 97.240723 136.128983 1102.116943
v 97.637665 142.399399 1102.109375
v 98.034607 148.669800 1102.101807
v 98.431549 154.940216 1102.094238
v 98.828491 161.210617 1102.086670
v 99.225433 167.481033 1102.079102
v 99.622375 173.751434 1102.071411
v 100.019318 180.021851 1102.063843
v 100.416260 186.292252 1102.056274
v 100.813202 192.562668 1102.048706
v 96.843468 129.853729 1098.103027
v 97.240417 136.124146 1098.095459
v 97.637360 142.394562 1098.087891
v 98.034302 148.664963 1098.080322
v 98.431244 154.935379 1098.072754
v 98.828186 161.205780 1098.065186
v 99.225128 167.476196 1098.057617
v 99.622070 173.746597 1098.050049
v 100.019012 180.016998 1098.042480
v 100.415955 186.287415 1098.034912
v 100.812897 192.557831 1098.027344
v 96.843102 132.962769 1094.004761
v 97.240105 136.119308 1094.074097
v 97.637047 142.389709 1094.066406
v 98.033989 148.660126 1094.058838
v 98.430931 154.930527 1094.051270
v 98.827873 161.200943 1094.043701
v 99.224823 167.471344 1094.036133
v 99.621765 173.741760 1094.028564
v 100.018707 180.012161 1094.020996
v 100.415649 186.282578 1094.013428
v 100.812592 192.552979 1094.005859
v 96.842857 129.844055 1090.060181
v 97.239799 136.114471 1090.052612
v 97.636742 142.384872 1090.045044
v 98.033684 148.655289 1090.037476
v 98.430626 154.925690 1090.029907
v 98.827568 161.196091 1090.022217
v 99.224510 167.466507 1090.014648
v 99.621452 173.736908 1090.007080
v 100.018394 180.007324 1089.999512
v 100.415344 186.277740 1089.991943
v 100.812286 192.548141 1089.984375
v 96.842484 133.412643 1085.950562
v 97.239494 136.109619 1086.031128
v 97.636436 142.380035 1086.023560
v 98.033379 148.650436 1086.015991
v 98.430321 154.920853 1086.008423
v 98.827263 161.191254 1086.000854
v 99.224205 167.461670 1085.993286
v 99.621147 173.732071 1085.985718
v 100.018089 180.002487 1085.978027
v 100.415031 186.272888 1085.970459
v 100.811974 192.543304 1085.962891
v 96.842247 129.834381 1082.017212
v 97.239189 136.104782 1082.009644
v 97.636131 142.375183 1082.002075
v 98.033073 148.645599 1081.994507
v 98.430016 154.916016 1081.986938
v 98.826958 161.186417 1081.979370
v 99.223900 167.456833 1081.971802
v 99.620842 173.727234 1081.964233
v 100.017784 179.997650 1081.956665
v 100.414726 186.268051 1081.949097
v 100.811668 192.538452 1081.941528
v 96.841866 133.473068 1077.906006
v 97.238884 136.099945 1077.988281
v 97.635826 142.370346 1077.980713
v 98.032768 148.640762 1077.973022
v 98.429710 154.911163 1077.965454
v 98.826653 161.181580 1077.957886
v 99.223595 167.451981 1077.950317
v 99.620537 173.722397 1077.942749
v 100.017479 179.992798 1077.935181
v 100.414421 186.263214 1077.927612
v 100.811363 192.533615 1077.920044
v 96.841629 129.824692 1073.974365
v 97.238571 136.095093 1073.966797
v 97.635521 142.365509 1073.959229
v 98.032463 148.635925 1073.951660
v 98.429405 154.906326 1073.944092
v 98.826347 161.176743 1073.936523
v 99.223289 167.447144 1073.928833
v 99.620232 173.717545 1073.921265
v 100.017174 179.987961 1073.913696
v 100.414116 186.258377 1073.906128
v 100.811058 192.528778 1073.898560
v 96.841255 133.532059 1069.861328
v 97.238266 136.090256 1069.945312
v 97.635208 142.360672 1069.937744
v 98.032150 148.631073 1069.930176
v 98.429092 154.901489 1069.922607
v 98.826042 161.171890 1069.915039
v 99.222984 167.442307 1069.907471
v 99.619926 173.712708 1069.899902
v 100.016869 179.983124 1069.892334
v 100.413811 186.253525 1069.884644
v 100.810753 192.523941 1069.877075
v 96.841019 129.815002 1065.931396
v 97.237961 136.085419 1065.923828
v 97.634903 142.355835 1065.916260
v 98.031845 148.626236 1065.908691
v 98.428787 154.896652 1065.901123
v 98.825729 161.167053 1065.893555
v 99.222672 167.437469 1065.885986
v 99.619614 173.707870 1065.878418
v 100.016556 179.978271 1065.870850
v 100.413506 186.248688 1065.863281
v 100.810448 192.519104 1065.855713
v 97.029396 136.228973 1061.870605
v 97.634598 142.350983 1061.894897
v 98.031540 148.621399 1061.887329
v 98.428482 154.891800 1061.879639
v 98.825424 161.162216 1061.872070
v 99.222366 167.432617 1061.864502
v 99.619308 173.703033 1061.856934
v 100.016251 179.973434 1061.849365
v 100.413193 186.243851 1061.841797
v 100.810135 192.514252 1061.834229
vt 0.443526 0.001992
vt 0.450430 0.001992
vt 0.450430 0.998008
vt 0.443526 0.998008
vt 0.455910 0.001992
vt 0.455910 0.998008
vt 0.435872 0.001992
vt 0.435872 0.998008
vt 0.428218 0.001992
vt 0.428218 0.998008
vt 0.421314 0.001992
vt 0.421314 0.998008
vt 0.415834 0.001992
vt 0.415834 0.998008
vt 0.467247 0.001992
vt 0.474151 0.001992
vt 0.474151 0.998008
vt 0.467247 0.998008
vt 0.481805 0.001992
vt 0.481805 0.998008
vt 0.461767 0.001992
vt 0.461767 0.998008
vt 0.489459 0.001992
vt 0.489459 0.998008
vt 0.496364 0.001992
vt 0.496364 0.998008
vt 0.501843 0.001992
vt 0.501843 0.998008
vt 0.568134 0.689603
vt 0.552525 0.689386
vt 0.562005 0.008494
vt 0.577614 0.008713
vt 0.540139 0.689214
vt 0.549617 0.008322
vt 0.585437 0.689844
vt 0.594917 0.008954
vt 0.602740 0.690085
vt 0.612220 0.009195
vt 0.618349 0.690302
vt 0.627829 0.009411
vt 0.630737 0.690475
vt 0.640217 0.009584
vt 0.766687 0.014391
vt 0.782296 0.014175
vt 0.791776 0.695065
vt 0.776167 0.695284
vt 0.799599 0.013934
vt 0.809079 0.694824
vt 0.754301 0.014564
vt 0.763779 0.695455
vt 0.816902 0.013693
vt 0.826382 0.694583
vt 0.832511 0.013475
vt 0.841991 0.694367
vt 0.844899 0.013302
vt 0.854379 0.694194
vt 0.334264 0.262697
vt 0.370645 0.319571
vt 0.334197 0.319528
vt 0.370576 0.376402
vt 0.334128 0.376358
vt 0.297750 0.319484
vt 0.297121 0.290875
vt 0.370507 0.433233
vt 0.334059 0.433189
vt 0.297680 0.376314
vt 0.261301 0.319440
vt 0.261370 0.262609
vt 0.370439 0.490064
vt 0.333991 0.490020
vt 0.297611 0.433145
vt 0.261233 0.376271
vt 0.224853 0.319396
vt 0.224123 0.294952
vt 0.370370 0.546894
vt 0.333922 0.546851
vt 0.297543 0.489976
vt 0.261165 0.433101
vt 0.224784 0.376227
vt 0.188405 0.319352
vt 0.188474 0.262521
vt 0.370301 0.603725
vt 0.333853 0.603682
vt 0.297474 0.546807
vt 0.261096 0.489932
vt 0.224717 0.433057
vt 0.188336 0.376183
vt 0.151958 0.319308
vt 0.151212 0.295500
vt 0.370231 0.660556
vt 0.333785 0.660512
vt 0.297405 0.603637
vt 0.261026 0.546763
vt 0.224648 0.489888
vt 0.188269 0.433014
vt 0.151889 0.376139
vt 0.115510 0.319264
vt 0.115579 0.262433
vt 0.370163 0.717387
vt 0.333716 0.717343
vt 0.297337 0.660468
vt 0.260957 0.603594
vt 0.224579 0.546719
vt 0.188200 0.489844
vt 0.151820 0.432970
vt 0.115441 0.376095
vt 0.079062 0.319220
vt 0.078301 0.296034
vt 0.370095 0.774218
vt 0.333647 0.774174
vt 0.297268 0.717299
vt 0.260889 0.660424
vt 0.224510 0.603550
vt 0.188131 0.546675
vt 0.151752 0.489800
vt 0.115373 0.432926
vt 0.078993 0.376051
vt 0.042614 0.319176
vt 0.042683 0.262346
vt 0.370026 0.831049
vt 0.333580 0.831005
vt 0.297199 0.774130
vt 0.260820 0.717255
vt 0.224442 0.660381
vt 0.188062 0.603506
vt 0.151683 0.546631
vt 0.115304 0.489757
vt 0.078925 0.432882
vt 0.042545 0.376007
vt 0.005879 0.320478
vt 0.297132 0.830961
vt 0.260751 0.774086
vt 0.224372 0.717212
vt 0.187994 0.660337
vt 0.151615 0.603462
vt 0.115236 0.546587
vt 0.078856 0.489713
vt 0.042477 0.432838
vt 0.006099 0.375963
vt 0.260682 0.830917
vt 0.224303 0.774042
vt 0.187925 0.717168
vt 0.151546 0.660293
vt 0.115167 0.603418
vt 0.078787 0.546544
vt 0.042408 0.489669
vt 0.006030 0.432794
vt 0.224234 0.830873
vt 0.187856 0.773998
vt 0.151477 0.717124
vt 0.115098 0.660249
vt 0.078720 0.603374
vt 0.042339 0.546500
vt 0.005960 0.489625
vt 0.187788 0.830829
vt 0.151408 0.773955
vt 0.115029 0.717080
vt 0.078651 0.660205
vt 0.042272 0.603330
vt 0.005891 0.546456
vt 0.151340 0.830785
vt 0.114960 0.773911
vt 0.078582 0.717036
vt 0.042203 0.660161
vt 0.005823 0.603287
vt 0.114892 0.830741
vt 0.078512 0.773867
vt 0.042134 0.716992
vt 0.005755 0.660118
vt 0.078444 0.830698
vt 0.042066 0.773823
vt 0.005686 0.716948
vt 0.041997 0.830654
vt 0.005618 0.773779
vt 0.005549 0.830610
vt 0.875530 0.714260
vt 0.896263 0.703696
vt 0.919250 0.774436
vt 0.919250 0.700053
vt 0.859074 0.730715
vt 0.942234 0.703696
vt 0.848509 0.751450
vt 0.962970 0.714260
vt 0.844869 0.774436
vt 0.979426 0.730715
vt 0.848509 0.797421
vt 0.989990 0.751450
vt 0.859074 0.818156
vt 0.993631 0.774436
vt 0.875530 0.834610
vt 0.989990 0.797421
vt 0.896265 0.845177
vt 0.979426 0.818156
vt 0.919250 0.848817
vt 0.962970 0.834610
vt 0.942234 0.845177
vt 0.679749 0.705533
vt 0.700791 0.716255
vt 0.656420 0.777326
vt 0.717492 0.732956
vt 0.656420 0.701838
vt 0.728214 0.754000
vt 0.633094 0.705533
vt 0.731909 0.777326
vt 0.612050 0.716255
vt 0.728214 0.800653
vt 0.595349 0.732956
vt 0.717492 0.821697
vt 0.584627 0.754000
vt 0.700791 0.838398
vt 0.580932 0.777326
vt 0.679747 0.849120
vt 0.584627 0.800653
vt 0.656420 0.852814
vt 0.595349 0.821697
vt 0.633094 0.849120
vt 0.612050 0.838398
vt 0.746419 0.694899
vt 0.730808 0.694788
vt 0.730808 0.013898
vt 0.746419 0.014008
vt 0.713503 0.694750
vt 0.713503 0.013858
vt 0.696199 0.694788
vt 0.696199 0.013898
vt 0.680588 0.694899
vt 0.680588 0.014008
vt 0.867248 0.014007
vt 0.882859 0.013897
vt 0.882859 0.694788
vt 0.867248 0.694899
vt 0.900163 0.013859
vt 0.900163 0.694749
vt 0.917468 0.013897
vt 0.917468 0.694788
vt 0.933079 0.014007
vt 0.933079 0.694899
vt 0.408943 0.998008
vt 0.402038 0.998008
vt 0.402038 0.001992
vt 0.408943 0.001992
vt 0.394384 0.998008
vt 0.394384 0.001992
vt 0.386730 0.998008
vt 0.386730 0.001992
vt 0.379825 0.998008
vt 0.379825 0.001992
vt 0.467247 0.001992
vt 0.474151 0.001992
vt 0.474151 0.998008
vt 0.467247 0.998008
vt 0.481805 0.001992
vt 0.481805 0.998008
vt 0.489459 0.001992
vt 0.489459 0.998008
vt 0.496364 0.001992
vt 0.496364 0.998008
vt 0.546047 0.867780
vt 0.565688 0.857772
vt 0.587459 0.924784
vt 0.587459 0.854323
vt 0.530460 0.883368
vt 0.609231 0.857772
vt 0.520453 0.903011
vt 0.628871 0.867780
vt 0.517004 0.924784
vt 0.644458 0.883368
vt 0.520453 0.946558
vt 0.654465 0.903011
vt 0.530460 0.966200
vt 0.657914 0.924784
vt 0.546047 0.981789
vt 0.654465 0.946558
vt 0.565688 0.991797
vt 0.644458 0.966200
vt 0.587459 0.995246
vt 0.628871 0.981789
vt 0.609231 0.991797
vt 0.835162 0.814977
vt 0.860637 0.827959
vt 0.806923 0.901897
vt 0.880854 0.848177
vt 0.806923 0.810504
vt 0.893834 0.873655
vt 0.778684 0.814978
vt 0.898307 0.901897
vt 0.753210 0.827959
vt 0.893834 0.930138
vt 0.732993 0.848177
vt 0.880854 0.955615
vt 0.720013 0.873655
vt 0.860637 0.975834
vt 0.715540 0.901897
vt 0.835162 0.988815
vt 0.720013 0.930138
vt 0.806923 0.993289
vt 0.732993 0.955615
vt 0.778684 0.988815
vt 0.753210 0.975834
vn 0.951057 0.000000 -0.309015
vn 0.809017 0.000000 -0.587785
vn 0.809017 0.000000 -0.587785
vn 0.951057 0.000000 -0.309015
vn 0.587772 0.000000 -0.809027
vn 0.587772 0.000000 -0.809027
vn 0.309021 0.000000 -0.951055
vn 0.309021 0.000000 -0.951055
vn 0.000000 0.000000 -1.000000
vn 0.000000 0.000000 -1.000000
vn -0.309021 0.000000 -0.951055
vn -0.309021 0.000000 -0.951055
vn -0.587772 0.000000 -0.809027
vn -0.587772 0.000000 -0.809027
vn -0.809026 0.000000 -0.587773
vn -0.809026 0.000000 -0.587773
vn -0.951057 0.000000 -0.309015
vn -0.951057 0.000000 -0.309015
vn -1.000000 0.000000 0.000000
vn -1.000000 0.000000 0.000000
vn -0.951055 0.000000 0.309022
vn -0.951055 0.000000 0.309022
vn -0.809026 0.000000 0.587773
vn -0.809026 0.000000 0.587773
vn -0.587788 0.000000 0.809015
vn -0.587788 0.000000 0.809015
vn -0.309021 0.000000 0.951055
vn -0.309021 0.000000 0.951055
vn 0.000000 0.000000 1.000000
vn 0.000000 0.000000 1.000000
vn 0.309021 0.000000 0.951055
vn 0.309021 0.000000 0.951055
vn 0.587788 0.000000 0.809015
vn 0.587788 0.000000 0.809015
vn 0.809026 0.000000 0.587773
vn 0.809026 0.000000 0.587773
vn 0.951055 0.000000 0.309022
vn 0.951055 0.000000 0.309022
vn 1.000000 0.000000 0.000000
vn 1.000000 0.000000 0.000000
vn 0.000000 -1.000000 0.000000
vn 0.000000 -1.000000 0.000000
vn 0.000000 -1.000000 0.000000
vn 0.000000 -1.000000 0.000000
vn 0.000000 -1.000000 0.000000
vn 0.000000 -1.000000 0.000000
vn 0.000000 -1.000000 0.000000
vn 0.000000 -1.000000 0.000000
vn 0.000000 -1.000000 0.000000
vn 0.000000 -1.000000 0.000000
vn 0.000000 -1.000000 0.000000
vn 0.000000 -1.000000 0.000000
vn 0.000000 -1.000000 0.000000
vn 0.000000 -1.000000 0.000000
vn 0.000000 -1.000000 0.000000
vn 0.000000 -1.000000 0.000000
vn 0.000000 -1.000000 0.000000
vn 0.000000 -1.000000 0.000000
vn 0.000000 -1.000000 0.000000
vn 0.000000 -1.000000 0.000000
vn 0.000000 -1.000000 0.000000
vn 0.000000 1.000000 0.000000
vn 0.000000 1.000000 0.000000
vn 0.000000 1.000000 0.000000
vn 0.000000 1.000000 0.000000
vn 0.000000 1.000000 0.000000
vn 0.000000 1.000000 0.000000
vn 0.000000 1.000000 -0.000004
vn 0.000000 1.000000 -0.000004
vn 0.000000 1.000000 0.000000
vn 0.000000 1.000000 0.000000
vn 0.000000 1.000000 0.000000
vn 0.000000 1.000000 0.000000
vn 0.000000 1.000000 0.000000
vn 0.000000 1.000000 0.000000
vn 0.000000 1.000000 0.000000
vn 0.000000 1.000000 0.000000
vn 0.000000 1.000000 0.000004
vn 0.000000 1.000000 0.000004
vn 0.000000 1.000000 0.000000
vn 0.000000 1.000000 0.000000
vn 0.000000 1.000000 0.000000
vn 0.951055 -0.308990 -0.004302
vn 0.809017 -0.587729 -0.008183
vn 0.809016 -0.587729 -0.008183
vn 0.951055 -0.308991 -0.004302
vn 0.587787 -0.808937 -0.011263
vn 0.587788 -0.808937 -0.011263
vn 0.309020 -0.950963 -0.013241
vn 0.309019 -0.950964 -0.013241
vn 0.000000 -0.999903 -0.013922
vn 0.000000 -0.999903 -0.013922
vn -0.309021 -0.950963 -0.013241
vn -0.309020 -0.950963 -0.013241
vn -0.587787 -0.808938 -0.011263
vn -0.587788 -0.808937 -0.011263
vn -0.809018 -0.587727 -0.008183
vn -0.809017 -0.587728 -0.008183
vn -0.951056 -0.308988 -0.004302
vn -0.951056 -0.308988 -0.004302
vn -1.000000 0.000000 0.000000
vn -1.000000 -0.000000 -0.000000
vn -0.951056 0.308989 0.004302
vn -0.951056 0.308988 0.004302
vn -0.809017 0.587728 0.008183
vn -0.809018 0.587727 0.008183
vn -0.587788 0.808937 0.011263
vn -0.587787 0.808938 0.011263
vn -0.309019 0.950964 0.013240
vn -0.309019 0.950964 0.013240
vn -0.000000 0.999903 0.013922
vn -0.000000 0.999903 0.013922
vn 0.309017 0.950964 0.013240
vn 0.309017 0.950964 0.013240
vn 0.587788 0.808937 0.011263
vn 0.587787 0.808937 0.011263
vn 0.809017 0.587728 0.008183
vn 0.809018 0.587727 0.008183
vn 0.951055 0.308991 0.004302
vn 0.951055 0.308990 0.004302
vn 1.000000 0.000003 0.000000
vn 1.000000 0.000003 0.000000
vn 0.000034 -0.013901 0.999903
vn -0.000034 -0.013905 0.999903
vn -0.000002 -0.013923 0.999903
vn -0.000000 -0.013922 0.999903
vn -0.000000 -0.013927 0.999903
vn 0.000000 -0.013926 0.999903
vn -0.000000 -0.013927 0.999903
vn 0.000034 -0.013922 0.999903
vn -0.000017 -0.013901 0.999903
vn 0.000017 -0.013905 0.999903
vn 0.000000 -0.013923 0.999903
vn 0.000000 -0.013944 0.999903
vn 0.000000 -0.013950 0.999903
vn 0.000000 -0.013918 0.999903
vn 0.000069 -0.013914 0.999903
vn 0.000000 -0.013926 0.999903
vn -0.000069 -0.013914 0.999903
vn -0.000034 -0.013918 0.999903
vn -0.000034 -0.013949 0.999903
vn 0.000000 -0.013944 0.999903
vn 0.000000 -0.013923 0.999903
vn 0.000000 0.013944 -0.999903
vn -0.000034 0.013949 -0.999903
vn -0.000005 0.013923 -0.999903
vn -0.000034 0.013918 -0.999903
vn 0.000000 0.013914 -0.999903
vn 0.000000 0.013926 -0.999903
vn 0.000000 0.013914 -0.999903
vn 0.000034 0.013918 -0.999903
vn 0.000034 0.013949 -0.999903
vn 0.000000 0.013945 -0.999903
vn 0.000000 0.013923 -0.999903
vn -0.000017 0.013905 -0.999903
vn -0.000017 0.013901 -0.999903
vn -0.000034 0.013922 -0.999903
vn -0.000034 0.013927 -0.999903
vn 0.000000 0.013926 -0.999903
vn 0.000000 0.013927 -0.999903
vn 0.000000 0.013922 -0.999903
vn 0.000000 0.013901 -0.999903
vn 0.000000 0.013905 -0.999903
vn 0.000000 0.013923 -0.999903
vn -0.996709 0.077778 0.022831
vn -0.998002 0.063178 -0.000000
vn -0.997659 0.067976 0.007496
vn -0.998002 0.063177 -0.000000
vn -0.998002 0.063178 0.000001
vn -0.998002 0.063178 -0.000000
vn -0.998002 0.063177 0.000001
vn -0.998002 0.063178 -0.000000
vn -0.998002 0.063178 0.000001
vn -0.998002 0.063178 -0.000000
vn -0.998002 0.063178 0.000000
vn -0.998002 0.063178 -0.000001
vn -0.998002 0.063178 -0.000000
vn -0.998002 0.063178 -0.000000
vn -0.998002 0.063178 -0.000000
vn -0.998002 0.063178 -0.000000
vn -0.998002 0.063178 -0.000000
vn -0.998002 0.063178 -0.000000
vn -0.998002 0.063178 -0.000000
vn -0.998002 0.063178 -0.000000
vn -0.998002 0.063178 -0.000000
vn -0.997398 0.072092 0.000194
vn -0.996472 0.083928 -0.000486
vn -0.998002 0.063178 0.000001
vn -0.998002 0.063177 0.000001
vn -0.998002 0.063177 0.000001
vn -0.998002 0.063178 0.000001
vn -0.998002 0.063178 0.000001
vn -0.998002 0.063178 0.000001
vn -0.998002 0.063178 0.000000
vn -0.998002 0.063178 -0.000000
vn -0.998002 0.063178 -0.000000
vn -0.997343 0.072847 0.001028
vn -0.996300 0.085937 0.001447
vn -0.998002 0.063177 -0.000000
vn -0.998002 0.063177 -0.000000
vn -0.998002 0.063177 -0.000000
vn -0.998002 0.063178 -0.000000
vn -0.998002 0.063179 0.000000
vn -0.998002 0.063178 0.000001
vn -0.998002 0.063178 0.000001
vn -0.998002 0.063178 0.000001
vn -0.998002 0.063177 0.000000
vn -0.997286 0.073623 0.000307
vn -0.996103 0.088199 -0.000727
vn -0.998002 0.063177 -0.000000
vn -0.998002 0.063178 -0.000000
vn -0.998002 0.063177 -0.000000
vn -0.998002 0.063177 -0.000000
vn -0.998002 0.063178 -0.000000
vn -0.998002 0.063178 -0.000000
vn -0.998002 0.063177 -0.000000
vn -0.998002 0.063178 0.000000
vn -0.998002 0.063178 0.000001
vn -0.997277 0.073744 0.000148
vn -0.996073 0.088535 0.000620
vn -0.998002 0.063178 -0.000000
vn -0.998002 0.063177 -0.000000
vn -0.998002 0.063177 -0.000000
vn -0.998002 0.063177 -0.000000
vn -0.998002 0.063177 -0.000000
vn -0.998002 0.063177 -0.000000
vn -0.998002 0.063177 -0.000000
vn -0.998002 0.063177 -0.000000
vn -0.998002 0.063178 -0.000000
vn -0.997268 0.073864 0.000330
vn -0.996041 0.088889 -0.000771
vn -0.998002 0.063178 -0.000000
vn -0.998002 0.063178 -0.000000
vn -0.998002 0.063178 -0.000000
vn -0.998002 0.063177 -0.000000
vn -0.998002 0.063177 -0.000000
vn -0.998002 0.063177 -0.000000
vn -0.998002 0.063178 -0.000000
vn -0.998002 0.063178 -0.000000
vn -0.998002 0.063177 -0.000000
vn -0.997260 0.073981 0.000145
vn -0.996012 0.089220 0.000644
vn -0.998002 0.063178 0.000001
vn -0.998002 0.063178 0.000001
vn -0.998002 0.063178 0.000000
vn -0.998002 0.063178 -0.000000
vn -0.998002 0.063178 -0.000000
vn -0.998002 0.063178 -0.000000
vn -0.998002 0.063177 -0.000000
vn -0.998002 0.063177 -0.000000
vn -0.998002 0.063177 -0.000000
vn -0.997251 0.074098 0.000353
vn -0.995980 0.089574 -0.000819
vn -0.998002 0.063177 0.000000
vn -0.998002 0.063178 0.000001
vn -0.998002 0.063177 0.000001
vn -0.998002 0.063178 0.000001
vn -0.998002 0.063178 0.000001
vn -0.998002 0.063178 0.000001
vn -0.998002 0.063178 0.000000
vn -0.998002 0.063178 -0.000000
vn -0.998002 0.063177 -0.000000
vn -0.997202 0.074345 0.007796
vn -0.996661 0.081021 -0.010102
vn -0.997696 0.067504 0.006758
vn -0.998002 0.063178 -0.000000
vn -0.998002 0.063178 -0.000000
vn -0.998002 0.063178 0.000000
vn -0.998002 0.063178 0.000001
vn -0.998002 0.063178 0.000001
vn -0.998002 0.063179 0.000001
vn -0.998002 0.063178 0.000001
vn -0.998002 0.063177 0.000001
vn -0.996515 0.076435 0.033393
vn -0.997323 0.071855 0.013560
vn -0.998002 0.063178 -0.000000
vn -0.998002 0.063179 -0.000000
vn -0.998002 0.063178 -0.000001
vn -0.998002 0.063177 -0.000000
vn -0.998002 0.063178 -0.000000
vn -0.998002 0.063178 -0.000000
vn -0.998002 0.063177 0.000001
vn -0.998002 0.063176 0.000002
s 1
g Palo_colgaduras_5
usemtl initialShadingGroup
f 1/1/1 2/2/2 22/3/3 21/4/4
f 2/2/2 3/5/5 23/6/6 22/3/3
f 3/238/5 4/239/7 24/240/8 23/241/6
f 4/239/7 5/242/9 25/243/10 24/240/8
f 5/242/9 6/244/11 26/245/12 25/243/10
f 6/244/11 7/246/13 27/247/14 26/245/12
f 7/21/13 8/15/15 28/18/16 27/22/14
f 8/15/15 9/16/17 29/17/18 28/18/16
f 9/16/17 10/19/19 30/20/20 29/17/18
f 10/19/19 11/23/21 31/24/22 30/20/20
f 11/23/21 12/25/23 32/26/24 31/24/22
f 12/25/23 13/27/25 33/28/26 32/26/24
f 13/248/25 14/249/27 34/250/28 33/251/26
f 14/249/27 15/252/29 35/253/30 34/250/28
f 15/252/29 16/254/31 36/255/32 35/253/30
f 16/254/31 17/256/33 37/257/34 36/255/32
f 17/13/33 18/11/35 38/12/36 37/14/34
f 18/11/35 19/9/37 39/10/38 38/12/36
f 19/9/37 20/7/39 40/8/40 39/10/38
f 20/7/39 1/1/1 21/4/4 40/8/40
s 2
f 2/176/41 1/177/42 41/178/43
f 3/180/44 2/176/41 41/178/43
f 4/182/45 3/180/44 41/178/43
f 5/184/46 4/182/45 41/178/43
f 6/186/47 5/184/46 41/178/43
f 7/188/48 6/186/47 41/178/43
f 8/190/49 7/188/48 41/178/43
f 9/192/50 8/190/49 41/178/43
f 10/194/51 9/192/50 41/178/43
f 11/196/52 10/194/51 41/178/43
f 12/195/53 11/196/52 41/178/43
f 13/193/54 12/195/53 41/178/43
f 14/191/55 13/193/54 41/178/43
f 15/189/56 14/191/55 41/178/43
f 16/187/57 15/189/56 41/178/43
f 17/185/58 16/187/57 41/178/43
f 18/183/59 17/185/58 41/178/43
f 19/181/60 18/183/59 41/178/43
f 20/179/61 19/181/60 41/178/43
f 1/177/42 20/179/61 41/178/43
s 3
f 21/197/62 22/198/63 42/199/64
f 22/198/63 23/200/65 42/199/64
f 23/200/65 24/202/66 42/199/64
f 24/202/66 25/204/67 42/199/64
f 25/204/67 26/206/68 42/199/64
f 26/206/68 27/208/69 42/199/64
f 27/208/69 28/210/70 42/199/64
f 28/210/70 29/212/71 42/199/64
f 29/212/71 30/214/72 42/199/64
f 30/214/72 31/216/73 42/199/64
f 31/216/73 32/217/74 42/199/64
f 32/217/74 33/215/75 42/199/64
f 33/215/75 34/213/76 42/199/64
f 34/213/76 35/211/77 42/199/64
f 35/211/77 36/209/78 42/199/64
f 36/209/78 37/207/79 42/199/64
f 37/207/79 38/205/80 42/199/64
f 38/205/80 39/203/81 42/199/64
f 39/203/81 40/201/82 42/199/64
f 40/201/82 21/197/62 42/199/64
s 4
f 43/29/83 44/30/84 64/31/85 63/32/86
f 44/30/84 45/33/87 65/34/88 64/31/85
f 45/218/87 46/219/89 66/220/90 65/221/88
f 46/219/89 47/222/91 67/223/92 66/220/90
f 47/222/91 48/224/93 68/225/94 67/223/92
f 48/224/93 49/226/95 69/227/96 68/225/94
f 49/49/95 50/43/97 70/46/98 69/50/96
f 50/43/97 51/44/99 71/45/100 70/46/98
f 51/44/99 52/47/101 72/48/102 71/45/100
f 52/47/101 53/51/103 73/52/104 72/48/102
f 53/51/103 54/53/105 74/54/106 73/52/104
f 54/53/105 55/55/107 75/56/108 74/54/106
f 55/228/107 56/229/109 76/230/110 75/231/108
f 56/229/109 57/232/111 77/233/112 76/230/110
f 57/232/111 58/234/113 78/235/114 77/233/112
f 58/234/113 59/236/115 79/237/116 78/235/114
f 59/41/115 60/39/117 80/40/118 79/42/116
f 60/39/117 61/37/119 81/38/120 80/40/118
f 61/37/119 62/35/121 82/36/122 81/38/120
f 62/35/121 43/29/83 63/32/86 82/36/122
s 5
f 44/258/123 43/259/124 83/260/125
f 45/262/126 44/258/123 83/260/125
f 46/264/127 45/262/126 83/260/125
f 47/266/128 46/264/127 83/260/125
f 48/268/129 47/266/128 83/260/125
f 49/270/130 48/268/129 83/260/125
f 50/272/131 49/270/130 83/260/125
f 51/274/132 50/272/131 83/260/125
f 52/276/133 51/274/132 83/260/125
f 53/278/134 52/276/133 83/260/125
f 54/277/135 53/278/134 83/260/125
f 55/275/136 54/277/135 83/260/125
f 56/273/137 55/275/136 83/260/125
f 57/271/138 56/273/137 83/260/125
f 58/269/139 57/271/138 83/260/125
f 59/267/140 58/269/139 83/260/125
f 60/265/141 59/267/140 83/260/125
f 61/263/142 60/265/141 83/260/125
f 62/261/143 61/263/142 83/260/125
f 43/259/124 62/261/143 83/260/125
s 6
f 63/279/144 64/280/145 84/281/146
f 64/280/145 65/282/147 84/281/146
f 65/282/147 66/284/148 84/281/146
f 66/284/148 67/286/149 84/281/146
f 67/286/149 68/288/150 84/281/146
f 68/288/150 69/290/151 84/281/146
f 69/290/151 70/292/152 84/281/146
f 70/292/152 71/294/153 84/281/146
f 71/294/153 72/296/154 84/281/146
f 72/296/154 73/298/155 84/281/146
f 73/298/155 74/299/156 84/281/146
f 74/299/156 75/297/157 84/281/146
f 75/297/157 76/295/158 84/281/146
f 76/295/158 77/293/159 84/281/146
f 77/293/159 78/291/160 84/281/146
f 78/291/160 79/289/161 84/281/146
f 79/289/161 80/287/162 84/281/146
f 80/287/162 81/285/163 84/281/146
f 81/285/163 82/283/164 84/281/146
f 82/283/164 63/279/144 84/281/146
s 7
f 95/57/165 85/58/166 96/59/167
f 85/58/166 86/60/168 97/61/169 96/59/167
f 86/60/168 87/64/170 98/65/171 97/61/169
f 87/64/170 88/69/172 99/70/173 98/65/171
f 88/69/172 89/75/174 100/76/175 99/70/173
f 89/75/174 90/82/176 101/83/177 100/76/175
f 90/82/176 91/90/178 102/91/179 101/83/177
f 91/90/178 92/99/180 103/100/181 102/91/179
f 92/99/180 93/109/182 104/110/183 103/100/181
f 93/109/182 94/120/184 105/121/185 104/110/183
f 95/57/165 96/59/167 107/62/186 106/63/187
f 96/59/167 97/61/169 108/66/188 107/62/186
f 97/61/169 98/65/171 109/71/189 108/66/188
f 98/65/171 99/70/173 110/77/190 109/71/189
f 99/70/173 100/76/175 111/84/191 110/77/190
f 100/76/175 101/83/177 112/92/192 111/84/191
f 101/83/177 102/91/179 113/101/193 112/92/192
f 102/91/179 103/100/181 114/111/194 113/101/193
f 103/100/181 104/110/183 115/122/195 114/111/194
f 104/110/183 105/121/185 116/131/196 115/122/195
f 106/63/187 107/62/186 118/67/197 117/68/198
f 107/62/186 108/66/188 119/72/199 118/67/197
f 108/66/188 109/71/189 120/78/200 119/72/199
f 109/71/189 110/77/190 121/85/201 120/78/200
f 110/77/190 111/84/191 122/93/202 121/85/201
f 111/84/191 112/92/192 123/102/203 122/93/202
f 112/92/192 113/101/193 124/112/204 123/102/203
f 113/101/193 114/111/194 125/123/205 124/112/204
f 114/111/194 115/122/195 126/132/206 125/123/205
f 115/122/195 116/131/196 127/140/207 126/132/206
f 117/68/198 118/67/197 129/73/208 128/74/209
f 118/67/197 119/72/199 130/79/210 129/73/208
f 119/72/199 120/78/200 131/86/211 130/79/210
f 120/78/200 121/85/201 132/94/212 131/86/211
f 121/85/201 122/93/202 133/103/213 132/94/212
f 122/93/202 123/102/203 134/113/214 133/103/213
f 123/102/203 124/112/204 135/124/215 134/113/214
f 124/112/204 125/123/205 136/133/216 135/124/215
f 125/123/205 126/132/206 137/141/217 136/133/216
f 126/132/206 127/140/207 138/148/218 137/141/217
f 128/74/209 129/73/208 140/80/219 139/81/220
f 129/73/208 130/79/210 141/87/221 140/80/219
f 130/79/210 131/86/211 142/95/222 141/87/221
f 131/86/211 132/94/212 143/104/223 142/95/222
f 132/94/212 133/103/213 144/114/224 143/104/223
f 133/103/213 134/113/214 145/125/225 144/114/224
f 134/113/214 135/124/215 146/134/226 145/125/225
f 135/124/215 136/133/216 147/142/227 146/134/226
f 136/133/216 137/141/217 148/149/228 147/142/227
f 137/141/217 138/148/218 149/155/229 148/149/228
f 139/81/220 140/80/219 151/88/230 150/89/231
f 140/80/219 141/87/221 152/96/232 151/88/230
f 141/87/221 142/95/222 153/105/233 152/96/232
f 142/95/222 143/104/223 154/115/234 153/105/233
f 143/104/223 144/114/224 155/126/235 154/115/234
f 144/114/224 145/125/225 156/135/236 155/126/235
f 145/125/225 146/134/226 157/143/237 156/135/236
f 146/134/226 147/142/227 158/150/238 157/143/237
f 147/142/227 148/149/228 159/156/239 158/150/238
f 148/149/228 149/155/229 160/161/240 159/156/239
f 150/89/231 151/88/230 162/97/241 161/98/242
f 151/88/230 152/96/232 163/106/243 162/97/241
f 152/96/232 153/105/233 164/116/244 163/106/243
f 153/105/233 154/115/234 165/127/245 164/116/244
f 154/115/234 155/126/235 166/136/246 165/127/245
f 155/126/235 156/135/236 167/144/247 166/136/246
f 156/135/236 157/143/237 168/151/248 167/144/247
f 157/143/237 158/150/238 169/157/249 168/151/248
f 158/150/238 159/156/239 170/162/250 169/157/249
f 159/156/239 160/161/240 171/166/251 170/162/250
f 161/98/242 162/97/241 173/107/252 172/108/253
f 162/97/241 163/106/243 174/117/254 173/107/252
f 163/106/243 164/116/244 175/128/255 174/117/254
f 164/116/244 165/127/245 176/137/256 175/128/255
f 165/127/245 166/136/246 177/145/257 176/137/256
f 166/136/246 167/144/247 178/152/258 177/145/257
f 167/144/247 168/151/248 179/158/259 178/152/258
f 168/151/248 169/157/249 180/163/260 179/158/259
f 169/157/249 170/162/250 181/167/261 180/163/260
f 170/162/250 171/166/251 182/170/262 181/167/261
f 172/108/253 173/107/252 184/118/263 183/119/264
f 173/107/252 174/117/254 185/129/265 184/118/263
f 174/117/254 175/128/255 186/138/266 185/129/265
f 175/128/255 176/137/256 187/146/267 186/138/266
f 176/137/256 177/145/257 188/153/268 187/146/267
f 177/145/257 178/152/258 189/159/269 188/153/268
f 178/152/258 179/158/259 190/164/270 189/159/269
f 179/158/259 180/163/260 191/168/271 190/164/270
f 180/163/260 181/167/261 192/171/272 191/168/271
f 181/167/261 182/170/262 193/173/273 192/171/272
f 183/119/264 184/118/263 194/130/274
f 184/118/263 185/129/265 195/139/275 194/130/274
f 185/129/265 186/138/266 196/147/276 195/139/275
f 186/138/266 187/146/267 197/154/277 196/147/276
f 187/146/267 188/153/268 198/160/278 197/154/277
f 188/153/268 189/159/269 199/165/279 198/160/278
f 189/159/269 190/164/270 200/169/280 199/165/279
f 190/164/270 191/168/271 201/172/281 200/169/280
f 191/168/271 192/171/272 202/174/282 201/172/281
f 192/171/272 193/173/273 203/175/283 202/174/282
