# This file uses meters as units for non-parametric coordinates.

mtllib Bandera 2.mtl
g default
v 90.463036 130.140137 975.459106
v 90.975723 138.238953 975.449280
v 91.488411 146.337784 975.439514
v 92.001099 154.436600 975.429749
v 92.513786 162.535431 975.419922
v 93.026482 170.634247 975.410156
v 93.539169 178.733078 975.400391
v 94.051857 186.831909 975.390564
v 94.564545 194.930725 975.380798
v 95.077232 203.029541 975.370972
v 89.949951 122.035049 970.274780
v 90.462639 130.133881 970.265015
v 90.975327 138.232697 970.255249
v 91.488014 146.331528 970.245422
v 92.000702 154.430359 970.235657
v 92.513397 162.529175 970.225830
v 93.026085 170.628006 970.216064
v 93.538773 178.726822 970.206299
v 94.051460 186.825653 970.196472
v 94.564148 194.924469 970.186707
v 95.076836 203.023300 970.176941
v 89.949478 126.050659 964.981506
v 90.462242 130.127625 965.070923
v 90.974930 138.226440 965.061157
v 91.487617 146.325272 965.051331
v 92.000313 154.424103 965.041565
v 92.513000 162.522919 965.031799
v 93.025688 170.621750 965.021973
v 93.538376 178.720566 965.012207
v 94.051064 186.819397 965.002441
v 94.563751 194.918228 964.992615
v 95.076439 203.017044 964.982849
v 89.949158 122.022552 959.886658
v 90.461845 130.121368 959.876831
v 90.974533 138.220200 959.867065
v 91.487228 146.319031 959.857239
v 91.999916 154.417847 959.847473
v 92.512604 162.516678 959.837708
v 93.025291 170.615494 959.827881
v 93.537979 178.714325 959.818115
v 94.050667 186.813141 959.808350
v 94.563354 194.911972 959.798523
v 95.076042 203.010788 959.788757
v 89.948677 126.631714 954.578735
v 90.461449 130.115112 954.682739
v 90.974144 138.213943 954.672974
v 91.486832 146.312775 954.663208
v 91.999519 154.411591 954.653381
v 92.512207 162.510422 954.643616
v 93.024895 170.609238 954.633789
v 93.537582 178.708069 954.624023
v 94.050270 186.806885 954.614258
v 94.562958 194.905716 954.604431
v 95.075645 203.004547 954.594666
v 89.948364 122.010040 949.498474
v 90.461060 130.108871 949.488647
v 90.973747 138.207687 949.478882
v 91.486435 146.306519 949.469116
v 91.999123 154.405334 949.459290
v 92.511810 162.504166 949.449524
v 93.024498 170.602997 949.439758
v 93.537186 178.701813 949.429932
v 94.049873 186.800644 949.420166
v 94.562561 194.899475 949.410400
v 95.075256 202.998291 949.400574
v 89.947884 126.709763 944.188293
v 90.460663 130.102615 944.294617
v 90.973351 138.201447 944.284790
v 91.486038 146.300262 944.275024
v 91.998726 154.399094 944.265198
v 92.511414 162.497910 944.255432
v 93.024101 170.596741 944.245667
v 93.536789 178.695557 944.235840
v 94.049477 186.794388 944.226074
v 94.562172 194.893219 944.216309
v 95.074860 202.992035 944.206482
v 89.947578 121.997543 939.110291
v 90.460266 130.096359 939.100525
v 90.972954 138.195190 939.090698
v 91.485641 146.294006 939.080933
v 91.998329 154.392838 939.071167
v 92.511017 162.491653 939.061340
v 93.023705 170.590485 939.051575
v 93.536392 178.689301 939.041809
v 94.049088 186.788132 939.031982
v 94.561775 194.886963 939.022217
v 95.074463 202.985779 939.012390
v 89.947090 126.785942 933.797974
v 90.459869 130.090118 933.906433
v 90.972557 138.188934 933.896606
v 91.485245 146.287766 933.886841
v 91.997932 154.386581 933.877075
v 92.510620 162.485413 933.867249
v 93.023315 170.584229 933.857483
v 93.536003 178.683060 933.847717
v 94.048691 186.781891 933.837891
v 94.561378 194.880707 933.828125
v 95.074066 202.979523 933.818359
v 89.946785 121.985031 928.722107
v 90.459473 130.083862 928.712341
v 90.972160 138.182678 928.702576
v 91.484848 146.281509 928.692749
v 91.997536 154.380341 928.682983
v 92.510223 162.479156 928.673218
v 93.022919 170.577988 928.663391
v 93.535606 178.676804 928.653625
v 94.048294 186.775635 928.643799
v 94.560982 194.874451 928.634033
v 95.073669 202.973282 928.624268
v 90.190086 130.269257 923.477234
v 90.971764 138.176422 923.508484
v 91.484451 146.275253 923.498657
v 91.997139 154.374084 923.488892
v 92.509834 162.472900 923.479126
v 93.022522 170.571732 923.469299
v 93.535210 178.670547 923.459534
v 94.047897 186.769379 923.449768
v 94.560585 194.868210 923.439941
v 95.073273 202.967026 923.430176
v 104.816208 2.373398 948.435120
v 104.096909 2.373398 947.023438
v 102.976578 2.373398 945.903076
v 101.564880 2.373398 945.183777
v 100.000000 2.373398 944.935913
v 98.435120 2.373398 945.183777
v 97.023422 2.373398 945.903076
v 95.903091 2.373398 947.023438
v 95.183792 2.373398 948.435120
v 94.935944 2.373398 950.000000
v 95.183792 2.373398 951.564880
v 95.903091 2.373398 952.976562
v 97.023422 2.373398 954.096924
v 98.435120 2.373398 954.816223
v 100.000000 2.373398 955.064087
v 101.564880 2.373398 954.816223
v 102.976578 2.373398 954.096924
v 104.096909 2.373398 952.976562
v 104.816208 2.373398 951.564880
v 105.064056 2.373398 950.000000
v 104.816208 206.013794 948.435120
v 104.096909 206.013794 947.023438
v 102.976578 206.013794 945.903076
v 101.564880 206.013794 945.183777
v 100.000000 206.013794 944.935913
v 98.435120 206.013794 945.183777
v 97.023422 206.013794 945.903076
v 95.903091 206.013794 947.023438
v 95.183792 206.013794 948.435120
v 94.935944 206.013794 950.000000
v 95.183792 206.013794 951.564880
v 95.903091 206.013794 952.976562
v 97.023422 206.013794 954.096924
v 98.435120 206.013794 954.816223
v 100.000000 206.013794 955.064087
v 101.564880 206.013794 954.816223
v 102.976578 206.013794 954.096924
v 104.096909 206.013794 952.976562
v 104.816208 206.013794 951.564880
v 105.064056 206.013794 950.000000
v 100.000000 2.373398 950.000000
v 100.000000 206.013794 950.000000
v 104.572914 197.246689 978.455322
v 103.891846 195.910156 978.436768
v 102.831070 194.849487 978.421997
v 101.494408 194.168488 978.412476
v 100.012711 193.933823 978.409241
v 98.531013 194.168488 978.412476
v 97.194351 194.849487 978.421997
v 96.133575 195.910156 978.436768
v 95.452515 197.246689 978.455322
v 95.217834 198.728241 978.475952
v 95.452515 200.209793 978.496582
v 96.133575 201.546326 978.515198
v 97.194351 202.607010 978.529968
v 98.531013 203.287994 978.539490
v 100.012711 203.522659 978.542725
v 101.494408 203.287994 978.539490
v 102.831070 202.607010 978.529968
v 103.891846 201.546326 978.515198
v 104.572906 200.209793 978.496582
v 104.807587 198.728241 978.475952
v 104.572914 198.058426 920.154541
v 103.891846 196.721893 920.135925
v 102.831070 195.661209 920.121155
v 101.494408 194.980225 920.111633
v 100.012711 194.745560 920.108398
v 98.531013 194.980225 920.111633
v 97.194351 195.661209 920.121155
v 96.133575 196.721893 920.135925
v 95.452515 198.058426 920.154541
v 95.217834 199.539978 920.175171
v 95.452515 201.021530 920.195801
v 96.133575 202.358063 920.214355
v 97.194351 203.418732 920.229126
v 98.531013 204.099731 920.238647
v 100.012711 204.334381 920.241882
v 101.494408 204.099731 920.238647
v 102.831070 203.418732 920.229126
v 103.891846 202.358063 920.214355
v 104.572906 201.021530 920.195801
v 104.807587 199.539978 920.175171
v 100.012711 198.728241 978.475952
v 100.012711 199.539978 920.175171
vt 0.894696 0.037776
vt 0.953207 0.129252
vt 0.894585 0.129181
vt 0.953097 0.220657
vt 0.894475 0.220586
vt 0.835964 0.129110
vt 0.834955 0.083097
vt 0.952986 0.312062
vt 0.894364 0.311992
vt 0.835854 0.220516
vt 0.777342 0.129040
vt 0.777453 0.037635
vt 0.952876 0.403467
vt 0.894254 0.403397
vt 0.835742 0.311921
vt 0.777232 0.220445
vt 0.718720 0.128969
vt 0.717547 0.089655
vt 0.952766 0.494873
vt 0.894144 0.494802
vt 0.835632 0.403326
vt 0.777121 0.311851
vt 0.718610 0.220374
vt 0.660099 0.128899
vt 0.660210 0.037493
vt 0.952655 0.586278
vt 0.894033 0.586207
vt 0.835522 0.494731
vt 0.777011 0.403256
vt 0.718500 0.311780
vt 0.659988 0.220304
vt 0.601478 0.128828
vt 0.600277 0.090536
vt 0.952545 0.677683
vt 0.893923 0.677612
vt 0.835412 0.586137
vt 0.776900 0.494661
vt 0.718389 0.403185
vt 0.659878 0.311709
vt 0.601367 0.220234
vt 0.542856 0.128758
vt 0.542966 0.037352
vt 0.952434 0.769088
vt 0.893812 0.769018
vt 0.835301 0.677542
vt 0.776790 0.586066
vt 0.718279 0.494590
vt 0.659767 0.403114
vt 0.601257 0.311639
vt 0.542745 0.220163
vt 0.484234 0.128687
vt 0.483010 0.091395
vt 0.952324 0.860494
vt 0.893701 0.860423
vt 0.835191 0.768947
vt 0.776679 0.677471
vt 0.718168 0.585995
vt 0.659657 0.494520
vt 0.601145 0.403044
vt 0.542635 0.311568
vt 0.484123 0.220092
vt 0.425613 0.128616
vt 0.425723 0.037211
vt 0.952213 0.951899
vt 0.893591 0.951828
vt 0.835080 0.860353
vt 0.776569 0.768876
vt 0.718058 0.677401
vt 0.659547 0.585925
vt 0.601035 0.494449
vt 0.542525 0.402973
vt 0.484013 0.311498
vt 0.425502 0.220022
vt 0.366528 0.130709
vt 0.834970 0.951758
vt 0.776458 0.860282
vt 0.717947 0.768806
vt 0.659436 0.677330
vt 0.600925 0.585854
vt 0.542414 0.494379
vt 0.483903 0.402903
vt 0.425392 0.311427
vt 0.366880 0.219951
vt 0.776348 0.951687
vt 0.717836 0.860211
vt 0.659326 0.768736
vt 0.600814 0.677260
vt 0.542304 0.585784
vt 0.483792 0.494308
vt 0.425281 0.402832
vt 0.366770 0.311356
vt 0.717726 0.951617
vt 0.659216 0.860141
vt 0.600704 0.768665
vt 0.542193 0.677189
vt 0.483682 0.585713
vt 0.425171 0.494237
vt 0.366660 0.402762
vt 0.659104 0.951546
vt 0.600594 0.860070
vt 0.542082 0.768594
vt 0.483572 0.677118
vt 0.425060 0.585643
vt 0.366549 0.494167
vt 0.600483 0.951475
vt 0.541972 0.860000
vt 0.483461 0.768524
vt 0.424950 0.677048
vt 0.366438 0.585572
vt 0.541861 0.951405
vt 0.483350 0.859929
vt 0.424839 0.768453
vt 0.366328 0.676977
vt 0.483240 0.951334
vt 0.424729 0.859858
vt 0.366218 0.768383
vt 0.424619 0.951264
vt 0.366107 0.859788
vt 0.365997 0.951193
vt 0.197069 0.001992
vt 0.203973 0.001992
vt 0.203973 0.998008
vt 0.197069 0.998008
vt 0.209453 0.001992
vt 0.209453 0.998008
vt 0.189415 0.001992
vt 0.189415 0.998008
vt 0.181761 0.001992
vt 0.181761 0.998008
vt 0.174856 0.001992
vt 0.174856 0.998008
vt 0.169376 0.001992
vt 0.169376 0.998008
vt 0.174856 0.001992
vt 0.181761 0.001992
vt 0.181761 0.998008
vt 0.174856 0.998008
vt 0.189415 0.001992
vt 0.189415 0.998008
vt 0.169376 0.001992
vt 0.169376 0.998008
vt 0.197068 0.001992
vt 0.197068 0.998008
vt 0.203973 0.001992
vt 0.203973 0.998008
vt 0.209453 0.001992
vt 0.209453 0.998008
vt 0.234883 0.990918
vt 0.228346 0.990827
vt 0.232316 0.705675
vt 0.238853 0.705766
vt 0.223158 0.990755
vt 0.227128 0.705602
vt 0.242129 0.991019
vt 0.246100 0.705866
vt 0.249376 0.991119
vt 0.253346 0.705967
vt 0.255913 0.991211
vt 0.259883 0.706058
vt 0.261101 0.991283
vt 0.265071 0.706130
vt 0.228346 0.706058
vt 0.234883 0.705967
vt 0.238853 0.991120
vt 0.232316 0.991211
vt 0.242129 0.705866
vt 0.246099 0.991019
vt 0.223158 0.706131
vt 0.227128 0.991283
vt 0.249376 0.705766
vt 0.253346 0.990918
vt 0.255912 0.705675
vt 0.259883 0.990827
vt 0.261100 0.705602
vt 0.265070 0.990755
vt 0.274267 0.601849
vt 0.277785 0.608754
vt 0.254229 0.616408
vt 0.278997 0.616408
vt 0.268787 0.596369
vt 0.277785 0.624061
vt 0.261882 0.592851
vt 0.274267 0.630966
vt 0.254229 0.591639
vt 0.268787 0.636446
vt 0.246575 0.592851
vt 0.261882 0.639964
vt 0.239670 0.596369
vt 0.254229 0.641176
vt 0.234190 0.601849
vt 0.246575 0.639964
vt 0.230672 0.608754
vt 0.239670 0.636446
vt 0.229460 0.616408
vt 0.234190 0.630966
vt 0.230672 0.624061
vt 0.277785 0.624062
vt 0.274267 0.630966
vt 0.254229 0.616408
vt 0.268787 0.636446
vt 0.278997 0.616408
vt 0.261882 0.639964
vt 0.277785 0.608754
vt 0.254229 0.641176
vt 0.274267 0.601849
vt 0.246575 0.639964
vt 0.268787 0.596369
vt 0.239670 0.636446
vt 0.261882 0.592851
vt 0.234190 0.630966
vt 0.254229 0.591639
vt 0.230672 0.624062
vt 0.246575 0.592851
vt 0.229460 0.616408
vt 0.239670 0.596369
vt 0.230672 0.608754
vt 0.234190 0.601849
vt 0.257899 0.991050
vt 0.251361 0.991004
vt 0.251361 0.705851
vt 0.257899 0.705898
vt 0.244114 0.990988
vt 0.244114 0.705835
vt 0.236867 0.991004
vt 0.236867 0.705851
vt 0.230330 0.991050
vt 0.230330 0.705898
vt 0.230330 0.705897
vt 0.236867 0.705851
vt 0.236867 0.991003
vt 0.230330 0.991050
vt 0.244114 0.705835
vt 0.244114 0.990988
vt 0.251361 0.705851
vt 0.251361 0.991003
vt 0.257899 0.705897
vt 0.257899 0.991050
vt 0.203973 0.998008
vt 0.197068 0.998008
vt 0.197068 0.001992
vt 0.203973 0.001992
vt 0.189415 0.998008
vt 0.189415 0.001992
vt 0.181761 0.998008
vt 0.181761 0.001992
vt 0.174856 0.998008
vt 0.174856 0.001992
vt 0.174856 0.001992
vt 0.181761 0.001992
vt 0.181761 0.998008
vt 0.174856 0.998008
vt 0.189415 0.001992
vt 0.189415 0.998008
vt 0.197068 0.001992
vt 0.197068 0.998008
vt 0.203973 0.001992
vt 0.203973 0.998008
vt 0.240445 0.597434
vt 0.246982 0.594103
vt 0.254229 0.616408
vt 0.254229 0.592955
vt 0.235257 0.602623
vt 0.261475 0.594103
vt 0.231927 0.609160
vt 0.268012 0.597434
vt 0.230779 0.616408
vt 0.273200 0.602623
vt 0.231927 0.623654
vt 0.276531 0.609160
vt 0.235257 0.630192
vt 0.277678 0.616408
vt 0.240445 0.635381
vt 0.276531 0.623654
vt 0.246982 0.638712
vt 0.273200 0.630192
vt 0.254229 0.639859
vt 0.268012 0.635381
vt 0.261475 0.638712
vt 0.261475 0.594103
vt 0.268012 0.597434
vt 0.254228 0.616408
vt 0.273200 0.602623
vt 0.254228 0.592955
vt 0.276531 0.609160
vt 0.246982 0.594103
vt 0.277678 0.616408
vt 0.240445 0.597434
vt 0.276531 0.623654
vt 0.235257 0.602623
vt 0.273200 0.630192
vt 0.231927 0.609160
vt 0.268012 0.635381
vt 0.230779 0.616408
vt 0.261475 0.638712
vt 0.231927 0.623654
vt 0.254228 0.639859
vt 0.235257 0.630192
vt 0.246982 0.638712
vt 0.240445 0.635381
vn -0.996709 0.077776 0.022830
vn -0.998002 0.063177 0.000000
vn -0.997659 0.067975 0.007495
vn -0.998002 0.063178 0.000000
vn -0.998002 0.063178 0.000000
vn -0.998002 0.063178 0.000000
vn -0.998002 0.063177 -0.000000
vn -0.998002 0.063178 -0.000000
vn -0.998002 0.063178 -0.000000
vn -0.998002 0.063178 -0.000001
vn -0.998002 0.063178 -0.000000
vn -0.998002 0.063178 -0.000000
vn -0.998002 0.063177 0.000000
vn -0.998002 0.063178 0.000000
vn -0.998002 0.063178 0.000000
vn -0.998002 0.063178 0.000000
vn -0.998002 0.063178 0.000000
vn -0.998002 0.063178 0.000000
vn -0.998002 0.063178 0.000000
vn -0.998002 0.063177 0.000000
vn -0.998002 0.063177 0.000000
vn -0.997398 0.072091 0.000193
vn -0.996472 0.083926 -0.000486
vn -0.998002 0.063178 0.000000
vn -0.998002 0.063178 -0.000000
vn -0.998002 0.063178 -0.000000
vn -0.998002 0.063178 -0.000000
vn -0.998002 0.063177 0.000000
vn -0.998002 0.063177 0.000000
vn -0.998002 0.063177 0.000000
vn -0.998002 0.063178 0.000000
vn -0.998002 0.063178 0.000000
vn -0.997343 0.072847 0.001029
vn -0.996300 0.085935 0.001447
vn -0.998002 0.063178 -0.000000
vn -0.998002 0.063178 -0.000000
vn -0.998002 0.063178 0.000000
vn -0.998002 0.063178 0.000000
vn -0.998002 0.063178 0.000000
vn -0.998002 0.063177 0.000000
vn -0.998002 0.063177 0.000000
vn -0.998002 0.063178 0.000000
vn -0.998002 0.063178 0.000000
vn -0.997286 0.073623 0.000307
vn -0.996103 0.088198 -0.000727
vn -0.998002 0.063177 -0.000000
vn -0.998002 0.063177 -0.000000
vn -0.998002 0.063178 0.000000
vn -0.998002 0.063178 0.000000
vn -0.998002 0.063178 0.000000
vn -0.998002 0.063178 0.000000
vn -0.998002 0.063178 0.000000
vn -0.998002 0.063178 0.000000
vn -0.998002 0.063178 -0.000000
vn -0.997277 0.073744 0.000148
vn -0.996073 0.088534 0.000620
vn -0.998002 0.063177 0.000000
vn -0.998002 0.063177 0.000000
vn -0.998002 0.063177 0.000000
vn -0.998002 0.063177 0.000000
vn -0.998002 0.063177 0.000000
vn -0.998002 0.063177 0.000000
vn -0.998002 0.063177 0.000000
vn -0.998002 0.063178 -0.000000
vn -0.998002 0.063178 -0.000001
vn -0.997268 0.073863 0.000330
vn -0.996041 0.088890 -0.000772
vn -0.998002 0.063177 0.000000
vn -0.998002 0.063178 0.000000
vn -0.998002 0.063178 0.000000
vn -0.998002 0.063178 0.000000
vn -0.998002 0.063177 0.000000
vn -0.998002 0.063178 -0.000000
vn -0.998002 0.063177 -0.000000
vn -0.998002 0.063178 -0.000000
vn -0.998002 0.063178 -0.000000
vn -0.997260 0.073981 0.000145
vn -0.996012 0.089221 0.000645
vn -0.998002 0.063177 0.000000
vn -0.998002 0.063178 0.000000
vn -0.998002 0.063178 0.000000
vn -0.998002 0.063178 0.000000
vn -0.998002 0.063178 -0.000000
vn -0.998002 0.063178 -0.000001
vn -0.998002 0.063178 -0.000000
vn -0.998002 0.063177 -0.000000
vn -0.998002 0.063177 0.000000
vn -0.997251 0.074099 0.000353
vn -0.995980 0.089576 -0.000819
vn -0.998002 0.063177 0.000000
vn -0.998002 0.063177 0.000000
vn -0.998002 0.063177 0.000000
vn -0.998002 0.063178 0.000000
vn -0.998002 0.063178 -0.000000
vn -0.998002 0.063177 -0.000000
vn -0.998002 0.063178 0.000000
vn -0.998002 0.063177 0.000000
vn -0.998002 0.063177 0.000000
vn -0.997202 0.074346 0.007796
vn -0.996661 0.081023 -0.010103
vn -0.997696 0.067504 0.006758
vn -0.998002 0.063177 0.000000
vn -0.998002 0.063177 0.000000
vn -0.998002 0.063178 -0.000000
vn -0.998002 0.063178 -0.000000
vn -0.998002 0.063177 0.000000
vn -0.998002 0.063178 0.000000
vn -0.998002 0.063178 0.000000
vn -0.998002 0.063178 0.000000
vn -0.996515 0.076435 0.033393
vn -0.997323 0.071854 0.013560
vn -0.998002 0.063178 0.000000
vn -0.998002 0.063177 -0.000000
vn -0.998002 0.063178 -0.000001
vn -0.998002 0.063178 -0.000000
vn -0.998002 0.063178 0.000000
vn -0.998002 0.063178 0.000000
vn -0.998002 0.063178 0.000000
vn -0.998002 0.063179 0.000000
vn 0.951055 0.000000 -0.309022
vn 0.809017 0.000000 -0.587785
vn 0.809017 0.000000 -0.587785
vn 0.951055 0.000000 -0.309022
vn 0.587804 0.000000 -0.809003
vn 0.587804 0.000000 -0.809003
vn 0.309021 0.000000 -0.951055
vn 0.309021 0.000000 -0.951055
vn 0.000000 0.000000 -1.000000
vn 0.000000 0.000000 -1.000000
vn -0.309021 0.000000 -0.951055
vn -0.309021 0.000000 -0.951055
vn -0.587804 0.000000 -0.809003
vn -0.587804 0.000000 -0.809003
vn -0.809017 0.000000 -0.587785
vn -0.809017 0.000000 -0.587785
vn -0.951055 0.000000 -0.309022
vn -0.951055 0.000000 -0.309022
vn -1.000000 0.000000 0.000000
vn -1.000000 0.000000 0.000000
vn -0.951057 0.000000 0.309015
vn -0.951057 0.000000 0.309015
vn -0.809017 0.000000 0.587785
vn -0.809017 0.000000 0.587785
vn -0.587788 0.000000 0.809015
vn -0.587788 0.000000 0.809015
vn -0.309021 0.000000 0.951055
vn -0.309021 0.000000 0.951055
vn 0.000000 0.000000 1.000000
vn 0.000000 0.000000 1.000000
vn 0.309021 0.000000 0.951055
vn 0.309021 0.000000 0.951055
vn 0.587788 0.000000 0.809015
vn 0.587788 0.000000 0.809015
vn 0.809017 0.000000 0.587785
vn 0.809017 0.000000 0.587785
vn 0.951057 0.000000 0.309015
vn 0.951057 0.000000 0.309015
vn 1.000000 0.000000 0.000000
vn 1.000000 0.000000 0.000000
vn 0.000000 -1.000000 -0.000000
vn 0.000000 -1.000000 -0.000000
vn 0.000000 -1.000000 0.000000
vn 0.000000 -1.000000 -0.000000
vn 0.000000 -1.000000 0.000000
vn 0.000000 -1.000000 0.000000
vn 0.000000 -1.000000 0.000000
vn 0.000000 -1.000000 0.000000
vn 0.000000 -1.000000 0.000000
vn 0.000000 -1.000000 -0.000000
vn 0.000000 -1.000000 0.000000
vn 0.000000 -1.000000 0.000000
vn 0.000000 -1.000000 0.000000
vn 0.000000 -1.000000 0.000000
vn 0.000000 -1.000000 -0.000000
vn 0.000000 -1.000000 0.000000
vn 0.000000 -1.000000 -0.000000
vn 0.000000 -1.000000 -0.000000
vn 0.000000 -1.000000 0.000000
vn 0.000000 -1.000000 0.000000
vn 0.000000 -1.000000 0.000000
vn 0.000000 1.000000 -0.000008
vn 0.000000 1.000000 -0.000008
vn 0.000000 1.000000 0.000000
vn 0.000000 1.000000 0.000000
vn 0.000000 1.000000 0.000000
vn 0.000000 1.000000 0.000000
vn 0.000000 1.000000 0.000000
vn 0.000000 1.000000 0.000000
vn 0.000000 1.000000 0.000000
vn 0.000000 1.000000 -0.000008
vn 0.000000 1.000000 -0.000008
vn 0.000000 1.000000 0.000008
vn 0.000000 1.000000 0.000008
vn 0.000000 1.000000 0.000000
vn 0.000000 1.000000 0.000000
vn 0.000000 1.000000 0.000000
vn 0.000000 1.000000 0.000000
vn 0.000000 1.000000 0.000000
vn 0.000000 1.000000 0.000000
vn 0.000000 1.000000 0.000008
vn 0.000000 1.000000 0.000008
vn 0.951055 -0.308991 -0.004302
vn 0.809016 -0.587729 -0.008183
vn 0.809017 -0.587728 -0.008183
vn 0.951056 -0.308989 -0.004302
vn 0.587786 -0.808938 -0.011263
vn 0.587784 -0.808940 -0.011263
vn 0.309018 -0.950964 -0.013240
vn 0.309018 -0.950964 -0.013240
vn 0.000000 -0.999903 -0.013922
vn 0.000000 -0.999903 -0.013922
vn -0.309019 -0.950964 -0.013240
vn -0.309018 -0.950964 -0.013240
vn -0.587786 -0.808938 -0.011263
vn -0.587784 -0.808939 -0.011263
vn -0.809016 -0.587729 -0.008183
vn -0.809017 -0.587728 -0.008183
vn -0.951056 -0.308990 -0.004302
vn -0.951056 -0.308989 -0.004302
vn -1.000000 0.000000 0.000000
vn -1.000000 -0.000000 -0.000000
vn -0.951056 0.308989 0.004302
vn -0.951056 0.308990 0.004302
vn -0.809017 0.587728 0.008183
vn -0.809016 0.587729 0.008183
vn -0.587784 0.808940 0.011263
vn -0.587786 0.808938 0.011263
vn -0.309016 0.950965 0.013240
vn -0.309017 0.950964 0.013240
vn -0.000000 0.999903 0.013922
vn -0.000000 0.999903 0.013922
vn 0.309016 0.950965 0.013240
vn 0.309016 0.950965 0.013240
vn 0.587785 0.808939 0.011263
vn 0.587787 0.808938 0.011263
vn 0.809018 0.587726 0.008183
vn 0.809018 0.587728 0.008183
vn 0.951056 0.308989 0.004302
vn 0.951055 0.308991 0.004302
vn 1.000000 0.000003 0.000000
vn 1.000000 0.000003 0.000000
vn 0.000000 -0.013901 0.999903
vn 0.000000 -0.013905 0.999903
vn -0.000000 -0.013921 0.999903
vn 0.000000 -0.013922 0.999903
vn 0.000069 -0.013921 0.999903
vn 0.000000 -0.013913 0.999903
vn -0.000069 -0.013921 0.999903
vn -0.000034 -0.013922 0.999903
vn -0.000034 -0.013902 0.999903
vn 0.000000 -0.013905 0.999903
vn 0.000000 -0.013923 0.999903
vn 0.000000 -0.013925 0.999903
vn 0.000000 -0.013925 0.999903
vn 0.000000 -0.013932 0.999903
vn 0.000000 -0.013933 0.999903
vn 0.000000 -0.013926 0.999903
vn 0.000034 -0.013933 0.999903
vn 0.000034 -0.013932 0.999903
vn 0.000000 -0.013925 0.999903
vn 0.000000 -0.013925 0.999903
vn 0.000000 -0.013923 0.999903
vn 0.000017 0.013925 -0.999903
vn -0.000017 0.013925 -0.999903
vn -0.000005 0.013921 -0.999903
vn -0.000000 0.013932 -0.999903
vn 0.000034 0.013933 -0.999903
vn 0.000000 0.013926 -0.999903
vn -0.000069 0.013933 -0.999903
vn -0.000034 0.013932 -0.999903
vn 0.000034 0.013925 -0.999903
vn 0.000000 0.013925 -0.999903
vn 0.000000 0.013923 -0.999903
vn 0.000000 0.013905 -0.999903
vn 0.000034 0.013901 -0.999903
vn 0.000000 0.013922 -0.999903
vn -0.000034 0.013921 -0.999903
vn 0.000000 0.013913 -0.999903
vn 0.000000 0.013921 -0.999903
vn -0.000034 0.013922 -0.999903
vn -0.000034 0.013901 -0.999903
vn 0.000000 0.013905 -0.999903
vn 0.000000 0.013923 -0.999903
s 1
g Tela_5
usemtl initialShadingGroup
f 11/1/1 1/2/2 12/3/3
f 1/2/2 2/4/4 13/5/5 12/3/3
f 2/4/4 3/8/6 14/9/7 13/5/5
f 3/8/6 4/13/8 15/14/9 14/9/7
f 4/13/8 5/19/10 16/20/11 15/14/9
f 5/19/10 6/26/12 17/27/13 16/20/11
f 6/26/12 7/34/14 18/35/15 17/27/13
f 7/34/14 8/43/16 19/44/17 18/35/15
f 8/43/16 9/53/18 20/54/19 19/44/17
f 9/53/18 10/64/20 21/65/21 20/54/19
f 11/1/1 12/3/3 23/6/22 22/7/23
f 12/3/3 13/5/5 24/10/24 23/6/22
f 13/5/5 14/9/7 25/15/25 24/10/24
f 14/9/7 15/14/9 26/21/26 25/15/25
f 15/14/9 16/20/11 27/28/27 26/21/26
f 16/20/11 17/27/13 28/36/28 27/28/27
f 17/27/13 18/35/15 29/45/29 28/36/28
f 18/35/15 19/44/17 30/55/30 29/45/29
f 19/44/17 20/54/19 31/66/31 30/55/30
f 20/54/19 21/65/21 32/75/32 31/66/31
f 22/7/23 23/6/22 34/11/33 33/12/34
f 23/6/22 24/10/24 35/16/35 34/11/33
f 24/10/24 25/15/25 36/22/36 35/16/35
f 25/15/25 26/21/26 37/29/37 36/22/36
f 26/21/26 27/28/27 38/37/38 37/29/37
f 27/28/27 28/36/28 39/46/39 38/37/38
f 28/36/28 29/45/29 40/56/40 39/46/39
f 29/45/29 30/55/30 41/67/41 40/56/40
f 30/55/30 31/66/31 42/76/42 41/67/41
f 31/66/31 32/75/32 43/84/43 42/76/42
f 33/12/34 34/11/33 45/17/44 44/18/45
f 34/11/33 35/16/35 46/23/46 45/17/44
f 35/16/35 36/22/36 47/30/47 46/23/46
f 36/22/36 37/29/37 48/38/48 47/30/47
f 37/29/37 38/37/38 49/47/49 48/38/48
f 38/37/38 39/46/39 50/57/50 49/47/49
f 39/46/39 40/56/40 51/68/51 50/57/50
f 40/56/40 41/67/41 52/77/52 51/68/51
f 41/67/41 42/76/42 53/85/53 52/77/52
f 42/76/42 43/84/43 54/92/54 53/85/53
f 44/18/45 45/17/44 56/24/55 55/25/56
f 45/17/44 46/23/46 57/31/57 56/24/55
f 46/23/46 47/30/47 58/39/58 57/31/57
f 47/30/47 48/38/48 59/48/59 58/39/58
f 48/38/48 49/47/49 60/58/60 59/48/59
f 49/47/49 50/57/50 61/69/61 60/58/60
f 50/57/50 51/68/51 62/78/62 61/69/61
f 51/68/51 52/77/52 63/86/63 62/78/62
f 52/77/52 53/85/53 64/93/64 63/86/63
f 53/85/53 54/92/54 65/99/65 64/93/64
f 55/25/56 56/24/55 67/32/66 66/33/67
f 56/24/55 57/31/57 68/40/68 67/32/66
f 57/31/57 58/39/58 69/49/69 68/40/68
f 58/39/58 59/48/59 70/59/70 69/49/69
f 59/48/59 60/58/60 71/70/71 70/59/70
f 60/58/60 61/69/61 72/79/72 71/70/71
f 61/69/61 62/78/62 73/87/73 72/79/72
f 62/78/62 63/86/63 74/94/74 73/87/73
f 63/86/63 64/93/64 75/100/75 74/94/74
f 64/93/64 65/99/65 76/105/76 75/100/75
f 66/33/67 67/32/66 78/41/77 77/42/78
f 67/32/66 68/40/68 79/50/79 78/41/77
f 68/40/68 69/49/69 80/60/80 79/50/79
f 69/49/69 70/59/70 81/71/81 80/60/80
f 70/59/70 71/70/71 82/80/82 81/71/81
f 71/70/71 72/79/72 83/88/83 82/80/82
f 72/79/72 73/87/73 84/95/84 83/88/83
f 73/87/73 74/94/74 85/101/85 84/95/84
f 74/94/74 75/100/75 86/106/86 85/101/85
f 75/100/75 76/105/76 87/110/87 86/106/86
f 77/42/78 78/41/77 89/51/88 88/52/89
f 78/41/77 79/50/79 90/61/90 89/51/88
f 79/50/79 80/60/80 91/72/91 90/61/90
f 80/60/80 81/71/81 92/81/92 91/72/91
f 81/71/81 82/80/82 93/89/93 92/81/92
f 82/80/82 83/88/83 94/96/94 93/89/93
f 83/88/83 84/95/84 95/102/95 94/96/94
f 84/95/84 85/101/85 96/107/96 95/102/95
f 85/101/85 86/106/86 97/111/97 96/107/96
f 86/106/86 87/110/87 98/114/98 97/111/97
f 88/52/89 89/51/88 100/62/99 99/63/100
f 89/51/88 90/61/90 101/73/101 100/62/99
f 90/61/90 91/72/91 102/82/102 101/73/101
f 91/72/91 92/81/92 103/90/103 102/82/102
f 92/81/92 93/89/93 104/97/104 103/90/103
f 93/89/93 94/96/94 105/103/105 104/97/104
f 94/96/94 95/102/95 106/108/106 105/103/105
f 95/102/95 96/107/96 107/112/107 106/108/106
f 96/107/96 97/111/97 108/115/108 107/112/107
f 97/111/97 98/114/98 109/117/109 108/115/108
f 99/63/100 100/62/99 110/74/110
f 100/62/99 101/73/101 111/83/111 110/74/110
f 101/73/101 102/82/102 112/91/112 111/83/111
f 102/82/102 103/90/103 113/98/113 112/91/112
f 103/90/103 104/97/104 114/104/114 113/98/113
f 104/97/104 105/103/105 115/109/115 114/104/114
f 105/103/105 106/108/106 116/113/116 115/109/115
f 106/108/106 107/112/107 117/116/117 116/113/116
f 107/112/107 108/115/108 118/118/118 117/116/117
f 108/115/108 109/117/109 119/119/119 118/118/118
s 2
f 120/120/120 121/121/121 141/122/122 140/123/123
f 121/121/121 122/124/124 142/125/125 141/122/122
f 122/238/124 123/239/126 143/240/127 142/241/125
f 123/239/126 124/242/128 144/243/129 143/240/127
f 124/242/128 125/244/130 145/245/131 144/243/129
f 125/244/130 126/246/132 146/247/133 145/245/131
f 126/140/132 127/134/134 147/137/135 146/141/133
f 127/134/134 128/135/136 148/136/137 147/137/135
f 128/135/136 129/138/138 149/139/139 148/136/137
f 129/138/138 130/142/140 150/143/141 149/139/139
f 130/142/140 131/144/142 151/145/143 150/143/141
f 131/144/142 132/146/144 152/147/145 151/145/143
f 132/248/144 133/249/146 153/250/147 152/251/145
f 133/249/146 134/252/148 154/253/149 153/250/147
f 134/252/148 135/254/150 155/255/151 154/253/149
f 135/254/150 136/256/152 156/257/153 155/255/151
f 136/132/152 137/130/154 157/131/155 156/133/153
f 137/130/154 138/128/156 158/129/157 157/131/155
f 138/128/156 139/126/158 159/127/159 158/129/157
f 139/126/158 120/120/120 140/123/123 159/127/159
s 3
f 121/176/160 120/177/161 160/178/162
f 122/180/163 121/176/160 160/178/162
f 123/182/164 122/180/163 160/178/162
f 124/184/165 123/182/164 160/178/162
f 125/186/166 124/184/165 160/178/162
f 126/188/167 125/186/166 160/178/162
f 127/190/168 126/188/167 160/178/162
f 128/192/169 127/190/168 160/178/162
f 129/194/170 128/192/169 160/178/162
f 130/196/171 129/194/170 160/178/162
f 131/195/172 130/196/171 160/178/162
f 132/193/173 131/195/172 160/178/162
f 133/191/174 132/193/173 160/178/162
f 134/189/175 133/191/174 160/178/162
f 135/187/176 134/189/175 160/178/162
f 136/185/177 135/187/176 160/178/162
f 137/183/178 136/185/177 160/178/162
f 138/181/179 137/183/178 160/178/162
f 139/179/180 138/181/179 160/178/162
f 120/177/161 139/179/180 160/178/162
s 4
f 140/197/181 141/198/182 161/199/183
f 141/198/182 142/200/184 161/199/183
f 142/200/184 143/202/185 161/199/183
f 143/202/185 144/204/186 161/199/183
f 144/204/186 145/206/187 161/199/183
f 145/206/187 146/208/188 161/199/183
f 146/208/188 147/210/189 161/199/183
f 147/210/189 148/212/190 161/199/183
f 148/212/190 149/214/191 161/199/183
f 149/214/191 150/216/192 161/199/183
f 150/216/192 151/217/193 161/199/183
f 151/217/193 152/215/194 161/199/183
f 152/215/194 153/213/195 161/199/183
f 153/213/195 154/211/196 161/199/183
f 154/211/196 155/209/197 161/199/183
f 155/209/197 156/207/198 161/199/183
f 156/207/198 157/205/199 161/199/183
f 157/205/199 158/203/200 161/199/183
f 158/203/200 159/201/201 161/199/183
f 159/201/201 140/197/181 161/199/183
s 5
f 162/148/202 163/149/203 183/150/204 182/151/205
f 163/149/203 164/152/206 184/153/207 183/150/204
f 164/218/206 165/219/208 185/220/209 184/221/207
f 165/219/208 166/222/210 186/223/211 185/220/209
f 166/222/210 167/224/212 187/225/213 186/223/211
f 167/224/212 168/226/214 188/227/215 187/225/213
f 168/168/214 169/162/216 189/165/217 188/169/215
f 169/162/216 170/163/218 190/164/219 189/165/217
f 170/163/218 171/166/220 191/167/221 190/164/219
f 171/166/220 172/170/222 192/171/223 191/167/221
f 172/170/222 173/172/224 193/173/225 192/171/223
f 173/172/224 174/174/226 194/175/227 193/173/225
f 174/228/226 175/229/228 195/230/229 194/231/227
f 175/229/228 176/232/230 196/233/231 195/230/229
f 176/232/230 177/234/232 197/235/233 196/233/231
f 177/234/232 178/236/234 198/237/235 197/235/233
f 178/160/234 179/158/236 199/159/237 198/161/235
f 179/158/236 180/156/238 200/157/239 199/159/237
f 180/156/238 181/154/240 201/155/241 200/157/239
f 181/154/240 162/148/202 182/151/205 201/155/241
s 6
f 163/258/242 162/259/243 202/260/244
f 164/262/245 163/258/242 202/260/244
f 165/264/246 164/262/245 202/260/244
f 166/266/247 165/264/246 202/260/244
f 167/268/248 166/266/247 202/260/244
f 168/270/249 167/268/248 202/260/244
f 169/272/250 168/270/249 202/260/244
f 170/274/251 169/272/250 202/260/244
f 171/276/252 170/274/251 202/260/244
f 172/278/253 171/276/252 202/260/244
f 173/277/254 172/278/253 202/260/244
f 174/275/255 173/277/254 202/260/244
f 175/273/256 174/275/255 202/260/244
f 176/271/257 175/273/256 202/260/244
f 177/269/258 176/271/257 202/260/244
f 178/267/259 177/269/258 202/260/244
f 179/265/260 178/267/259 202/260/244
f 180/263/261 179/265/260 202/260/244
f 181/261/262 180/263/261 202/260/244
f 162/259/243 181/261/262 202/260/244
s 7
f 182/279/263 183/280/264 203/281/265
f 183/280/264 184/282/266 203/281/265
f 184/282/266 185/284/267 203/281/265
f 185/284/267 186/286/268 203/281/265
f 186/286/268 187/288/269 203/281/265
f 187/288/269 188/290/270 203/281/265
f 188/290/270 189/292/271 203/281/265
f 189/292/271 190/294/272 203/281/265
f 190/294/272 191/296/273 203/281/265
f 191/296/273 192/298/274 203/281/265
f 192/298/274 193/299/275 203/281/265
f 193/299/275 194/297/276 203/281/265
f 194/297/276 195/295/277 203/281/265
f 195/295/277 196/293/278 203/281/265
f 196/293/278 197/291/279 203/281/265
f 197/291/279 198/289/280 203/281/265
f 198/289/280 199/287/281 203/281/265
f 199/287/281 200/285/282 203/281/265
f 200/285/282 201/283/283 203/281/265
f 201/283/283 182/279/263 203/281/265
