# This file uses centimeters as units for non-parametric coordinates.

mtllib Texturizar2.mtl
g default
v -213.600082 121.688545 851.688477
v -213.087433 129.786743 851.790161
v -212.574783 137.884933 851.891785
v -212.062142 145.983124 851.993469
v -211.549492 154.081329 852.095093
v -211.036842 162.179520 852.196716
v -210.524193 170.277710 852.298401
v -210.011543 178.375916 852.400024
v -209.498894 186.474106 852.501648
v -208.986244 194.572296 852.603333
v -208.473595 202.670502 852.704956
v -213.595970 121.753479 846.494812
v -213.083328 129.851669 846.596497
v -212.570679 137.949860 846.698120
v -212.058029 146.048065 846.799744
v -211.545380 154.146255 846.901428
v -211.032730 162.244446 847.003052
v -210.520081 170.342651 847.104675
v -210.007431 178.440842 847.206360
v -209.494782 186.539032 847.307983
v -208.982132 194.637238 847.409607
v -208.469483 202.735428 847.511292
v -213.591881 125.841240 841.257080
v -213.079216 129.916595 841.402771
v -212.566567 138.014786 841.504456
v -212.053917 146.112991 841.606079
v -211.541267 154.211182 841.707703
v -211.028618 162.309372 841.809387
v -210.515968 170.407578 841.911011
v -210.003319 178.505768 842.012695
v -209.490677 186.603958 842.114319
v -208.978027 194.702164 842.215942
v -208.465378 202.800354 842.317627
v -213.587753 121.883331 836.107483
v -213.075104 129.981522 836.209106
v -212.562454 138.079727 836.310730
v -212.049805 146.177917 836.412415
v -211.537155 154.276108 836.514038
v -211.024506 162.374313 836.615662
v -210.511864 170.472504 836.717346
v -209.999214 178.570694 836.818970
v -209.486565 186.668900 836.920654
v -208.973915 194.767090 837.022278
v -208.461266 202.865280 837.123901
v -213.583664 126.564812 830.863220
v -213.070992 130.046448 831.015442
v -212.558342 138.144653 831.117065
v -212.045700 146.242844 831.218750
v -211.533051 154.341049 831.320374
v -211.020401 162.439240 831.421997
v -210.507752 170.537430 831.523682
v -209.995102 178.635620 831.625305
v -209.482452 186.733826 831.726929
v -208.969803 194.832016 831.828613
v -208.457153 202.930206 831.930237
v -213.579537 122.013191 825.720093
v -213.066887 130.111389 825.821777
v -212.554237 138.209579 825.923401
v -212.041588 146.307770 826.025024
v -211.528938 154.405975 826.126709
v -211.016289 162.504166 826.228333
v -210.503639 170.602356 826.329956
v -209.990990 178.700562 826.431641
v -209.478340 186.798752 826.533264
v -208.965691 194.896942 826.634888
v -208.453041 202.995148 826.736572
v -213.575440 126.785248 820.474854
v -213.062775 130.176315 820.628052
v -212.550125 138.274506 820.729736
v -212.037476 146.372711 820.831360
v -211.524826 154.470901 820.932983
v -211.012177 162.569092 821.034668
v -210.499527 170.667297 821.136292
v -209.986878 178.765488 821.237915
v -209.474236 186.863678 821.339600
v -208.961586 194.961884 821.441223
v -208.448937 203.060074 821.542908
v -213.571312 122.143051 815.332764
v -213.058663 130.241241 815.434387
v -212.546013 138.339432 815.536011
v -212.033363 146.437637 815.637695
v -211.520714 154.535828 815.739319
v -211.008072 162.634018 815.841003
v -210.495422 170.732224 815.942627
v -209.982773 178.830414 816.044250
v -209.470123 186.928604 816.145935
v -208.957474 195.026810 816.247559
v -208.444824 203.125000 816.349182
v -213.567223 127.003807 810.086548
v -213.054550 130.306168 810.240723
v -212.541901 138.404373 810.342346
v -212.029259 146.502563 810.443970
v -211.516609 154.600754 810.545654
v -211.003960 162.698959 810.647278
v -210.491310 170.797150 810.748962
v -209.978661 178.895340 810.850586
v -209.466011 186.993546 810.952209
v -208.953362 195.091736 811.053894
v -208.440712 203.189926 811.155518
v -213.563095 122.272903 804.945374
v -213.050446 130.371094 805.046997
v -212.537796 138.469299 805.148682
v -212.025147 146.567490 805.250305
v -211.512497 154.665695 805.351990
v -210.999848 162.763885 805.453613
v -210.487198 170.862076 805.555237
v -209.974548 178.960266 805.656921
v -209.461899 187.058472 805.758545
v -208.949249 195.156662 805.860168
v -208.436607 203.254852 805.961853
v -213.315285 130.628235 799.814697
v -212.533684 138.534225 799.955017
v -212.021034 146.632416 800.056641
v -211.508385 154.730621 800.158264
v -210.995735 162.828812 800.259949
v -210.483086 170.927002 800.361572
v -209.970436 179.025208 800.463196
v -209.457794 187.123398 800.564880
v -208.945145 195.221588 800.666504
v -208.432495 203.319794 800.768188
v -213.096542 128.569458 899.512512
v -212.583939 136.666962 899.660034
v -212.071335 144.764450 899.807617
v -211.558731 152.861938 899.955200
v -211.046127 160.959427 900.102722
v -210.533516 169.056931 900.250305
v -210.020912 177.154419 900.397888
v -209.508309 185.251907 900.545410
v -208.995705 193.349396 900.692993
v -208.483101 201.446884 900.840515
v -213.603180 120.566238 894.171692
v -213.090576 128.663727 894.319275
v -212.577973 136.761215 894.466858
v -212.065369 144.858704 894.614380
v -211.552757 152.956207 894.761963
v -211.040154 161.053696 894.909485
v -210.527550 169.151184 895.057068
v -210.014946 177.248672 895.204651
v -209.502342 185.346161 895.352173
v -208.989739 193.443665 895.499756
v -208.477135 201.541138 895.647339
v -213.597237 125.248627 889.036682
v -213.084610 128.757980 889.126038
v -212.571999 136.855469 889.273621
v -212.059395 144.952972 889.421143
v -211.546791 153.050461 889.568726
v -211.034187 161.147949 889.716309
v -210.521584 169.245438 889.863831
v -210.008980 177.342926 890.011414
v -209.496376 185.440430 890.158936
v -208.983772 193.537918 890.306519
v -208.471169 201.635406 890.454102
v -213.591240 120.754753 883.785278
v -213.078636 128.852234 883.932800
v -212.566033 136.949738 884.080383
v -212.053429 145.047226 884.227905
v -211.540825 153.144714 884.375488
v -211.028221 161.242203 884.523071
v -210.515617 169.339706 884.670593
v -210.003014 177.437195 884.818176
v -209.490410 185.534683 884.965759
v -208.977806 193.632172 885.113281
v -208.465202 201.729660 885.260864
v -213.585297 125.415169 878.649963
v -213.072670 128.946503 878.739563
v -212.560066 137.043991 878.887146
v -212.047463 145.141479 879.034729
v -211.534859 153.238983 879.182251
v -211.022255 161.336472 879.329834
v -210.509651 169.433960 879.477356
v -209.997048 177.531448 879.624939
v -209.484444 185.628937 879.772522
v -208.971840 193.726440 879.920044
v -208.459236 201.823914 880.067627
v -213.579308 120.943268 873.398804
v -213.066704 129.040756 873.546326
v -212.554100 137.138245 873.693909
v -212.041496 145.235748 873.841492
v -211.528915 153.333237 873.989014
v -211.016312 161.430725 874.136597
v -210.503685 169.528214 874.284180
v -209.991081 177.625702 874.431702
v -209.478478 185.723206 874.579285
v -208.965874 193.820694 874.726868
v -208.453270 201.918182 874.874390
v -213.573364 125.609695 868.263550
v -213.060738 129.135010 868.353149
v -212.548134 137.232513 868.500671
v -212.035530 145.330002 868.648254
v -211.522949 153.427490 868.795776
v -211.010346 161.524979 868.943359
v -210.497719 169.622482 869.090942
v -209.985115 177.719971 869.238464
v -209.472511 185.817459 869.386047
v -208.959908 193.914948 869.533630
v -208.447304 202.012436 869.681152
v -213.567375 121.131790 863.012329
v -213.054772 129.229279 863.159912
v -212.542168 137.326767 863.307434
v -212.029564 145.424255 863.455017
v -211.516960 153.521759 863.602600
v -211.004356 161.619247 863.750122
v -210.491753 169.716736 863.897705
v -209.979149 177.814224 864.045288
v -209.466545 185.911713 864.192810
v -208.953941 194.009216 864.340393
v -208.441338 202.106689 864.487915
v -213.561432 125.585907 857.874390
v -213.048805 129.323532 857.966675
v -212.536202 137.421021 858.114258
v -212.023598 145.518524 858.261780
v -211.510994 153.616013 858.409363
v -210.998390 161.713501 858.556885
v -210.485787 169.810989 858.704468
v -209.973183 177.908478 858.852051
v -209.460579 186.005981 858.999573
v -208.947968 194.103470 859.147156
v -208.435364 202.200958 859.294739
v -213.555306 121.370537 852.452637
v -213.042839 129.417786 852.773438
v -212.530235 137.515289 852.921021
v -212.017632 145.612778 853.068542
v -211.505028 153.710266 853.216125
v -210.992424 161.807755 853.363708
v -210.479820 169.905258 853.511230
v -209.967209 178.002747 853.658813
v -209.454605 186.100235 853.806335
v -208.942001 194.197723 853.953918
v -208.429398 202.295212 854.101501
v -213.549477 121.414566 847.432678
v -213.036873 129.512054 847.580200
v -212.524269 137.609543 847.727783
v -212.011665 145.707031 847.875305
v -211.499062 153.804535 848.022888
v -210.986450 161.902023 848.170471
v -210.473847 169.999512 848.317993
v -209.961243 178.097000 848.465576
v -209.448639 186.194489 848.613159
v -208.936035 194.291992 848.760681
v -208.423431 202.389465 848.908264
v -206.200081 2.373398 848.435120
v -206.919380 2.373398 847.023438
v -208.039711 2.373398 845.903076
v -209.451408 2.373398 845.183777
v -211.016289 2.373398 844.935913
v -212.581169 2.373398 845.183777
v -213.992867 2.373398 845.903076
v -215.113197 2.373398 847.023438
v -215.832497 2.373398 848.435120
v -216.080345 2.373398 850.000000
v -215.832497 2.373398 851.564880
v -215.113197 2.373398 852.976562
v -213.992867 2.373398 854.096924
v -212.581169 2.373398 854.816223
v -211.016289 2.373398 855.064087
v -209.451408 2.373398 854.816223
v -208.039711 2.373398 854.096924
v -206.919380 2.373398 852.976562
v -206.200081 2.373398 851.564880
v -205.952232 2.373398 850.000000
v -206.200081 206.013794 848.435120
v -206.919380 206.013794 847.023438
v -208.039711 206.013794 845.903076
v -209.451408 206.013794 845.183777
v -211.016289 206.013794 844.935913
v -212.581169 206.013794 845.183777
v -213.992867 206.013794 845.903076
v -215.113197 206.013794 847.023438
v -215.832497 206.013794 848.435120
v -216.080345 206.013794 850.000000
v -215.832497 206.013794 851.564880
v -215.113197 206.013794 852.976562
v -213.992867 206.013794 854.096924
v -212.581169 206.013794 854.816223
v -211.016289 206.013794 855.064087
v -209.451408 206.013794 854.816223
v -208.039711 206.013794 854.096924
v -206.919380 206.013794 852.976562
v -206.200081 206.013794 851.564880
v -205.952232 206.013794 850.000000
v -211.016289 2.373398 850.000000
v -211.016289 206.013794 850.000000
v -206.443375 196.934952 903.045227
v -207.124443 195.598419 903.026611
v -208.185219 194.537735 903.011841
v -209.521881 193.856750 903.002380
v -211.003578 193.622086 902.999084
v -212.485275 193.856750 903.002380
v -213.821938 194.537735 903.011841
v -214.882713 195.598419 903.026611
v -215.563774 196.934952 903.045227
v -215.798454 198.416504 903.065857
v -215.563774 199.898056 903.086487
v -214.882713 201.234589 903.105103
v -213.821938 202.295258 903.119873
v -212.485275 202.976257 903.129333
v -211.003578 203.210907 903.132629
v -209.521881 202.976257 903.129333
v -208.185219 202.295258 903.119873
v -207.124443 201.234589 903.105103
v -206.443382 199.898056 903.086487
v -206.208702 198.416504 903.065857
v -206.443375 198.370163 799.964050
v -207.124443 197.033630 799.945435
v -208.185219 195.972961 799.930664
v -209.521881 195.291962 799.921204
v -211.003578 195.057312 799.917908
v -212.485275 195.291962 799.921204
v -213.821938 195.972961 799.930664
v -214.882713 197.033630 799.945435
v -215.563774 198.370163 799.964050
v -215.798454 199.851715 799.984680
v -215.563774 201.333267 800.005310
v -214.882713 202.669800 800.023926
v -213.821938 203.730484 800.038696
v -212.485275 204.411469 800.048157
v -211.003578 204.646133 800.051453
v -209.521881 204.411469 800.048157
v -208.185219 203.730484 800.038696
v -207.124443 202.669800 800.023926
v -206.443382 201.333267 800.005310
v -206.208702 199.851715 799.984680
v -211.003578 198.416504 903.065857
v -211.003578 199.851715 799.984680
vt 0.896275 0.016189
vt 0.896266 0.110321
vt 0.835897 0.110311
vt 0.835905 0.016180
vt 0.896256 0.204452
vt 0.835886 0.204443
vt 0.775526 0.110302
vt 0.774432 0.062917
vt 0.896247 0.298583
vt 0.835876 0.298574
vt 0.775516 0.204433
vt 0.715156 0.110293
vt 0.715166 0.016161
vt 0.896236 0.392715
vt 0.835867 0.392706
vt 0.775506 0.298565
vt 0.715146 0.204424
vt 0.654786 0.110283
vt 0.653529 0.069798
vt 0.896226 0.486846
vt 0.835857 0.486837
vt 0.775497 0.392696
vt 0.715136 0.298555
vt 0.654776 0.204415
vt 0.594416 0.110274
vt 0.594426 0.016143
vt 0.896217 0.580977
vt 0.835847 0.580968
vt 0.775487 0.486827
vt 0.715127 0.392687
vt 0.654767 0.298546
vt 0.594407 0.204405
vt 0.534046 0.110265
vt 0.532764 0.070832
vt 0.896207 0.675109
vt 0.835837 0.675099
vt 0.775477 0.580959
vt 0.715117 0.486818
vt 0.654757 0.392677
vt 0.594396 0.298537
vt 0.534037 0.204396
vt 0.473676 0.110256
vt 0.473686 0.016124
vt 0.896197 0.769240
vt 0.835827 0.769231
vt 0.775467 0.675090
vt 0.715107 0.580949
vt 0.654747 0.486809
vt 0.594387 0.392668
vt 0.534027 0.298528
vt 0.473666 0.204387
vt 0.413307 0.110246
vt 0.412000 0.071844
vt 0.896187 0.863371
vt 0.835817 0.863362
vt 0.775457 0.769221
vt 0.715097 0.675081
vt 0.654737 0.580940
vt 0.594377 0.486799
vt 0.534016 0.392659
vt 0.473657 0.298518
vt 0.413296 0.204378
vt 0.352936 0.110237
vt 0.352946 0.016106
vt 0.896178 0.957503
vt 0.835808 0.957493
vt 0.775448 0.863353
vt 0.715088 0.769212
vt 0.654728 0.675071
vt 0.594367 0.580931
vt 0.534007 0.486790
vt 0.473646 0.392649
vt 0.413286 0.298509
vt 0.352926 0.204368
vt 0.292089 0.112456
vt 0.775438 0.957484
vt 0.715078 0.863343
vt 0.654717 0.769203
vt 0.594358 0.675062
vt 0.533997 0.580922
vt 0.473638 0.486781
vt 0.413277 0.392640
vt 0.352917 0.298500
vt 0.292557 0.204359
vt 0.715067 0.957475
vt 0.654708 0.863334
vt 0.594347 0.769193
vt 0.533987 0.675053
vt 0.473627 0.580912
vt 0.413267 0.486772
vt 0.352907 0.392631
vt 0.292547 0.298490
vt 0.654698 0.957465
vt 0.594337 0.863325
vt 0.533978 0.769184
vt 0.473617 0.675044
vt 0.413258 0.580903
vt 0.352897 0.486762
vt 0.292537 0.392622
vt 0.594328 0.957456
vt 0.533967 0.863316
vt 0.473607 0.769175
vt 0.413247 0.675034
vt 0.352887 0.580894
vt 0.292527 0.486753
vt 0.533958 0.957447
vt 0.473598 0.863306
vt 0.413237 0.769166
vt 0.352877 0.675025
vt 0.292517 0.580884
vt 0.473588 0.957437
vt 0.413228 0.863297
vt 0.352868 0.769156
vt 0.292508 0.675015
vt 0.413218 0.957428
vt 0.352858 0.863287
vt 0.292498 0.769147
vt 0.352848 0.957419
vt 0.292488 0.863278
vt 0.292478 0.957410
vt 0.836161 0.015642
vt 0.896550 0.109765
vt 0.836180 0.109773
vt 0.896568 0.203897
vt 0.836199 0.203904
vt 0.775810 0.109780
vt 0.775506 0.068980
vt 0.896587 0.298028
vt 0.836217 0.298036
vt 0.775828 0.203912
vt 0.715440 0.109788
vt 0.715421 0.015657
vt 0.896605 0.392160
vt 0.836235 0.392167
vt 0.775847 0.298043
vt 0.715458 0.203919
vt 0.655070 0.109795
vt 0.654769 0.068739
vt 0.896623 0.486291
vt 0.836253 0.486298
vt 0.775866 0.392174
vt 0.715477 0.298051
vt 0.655088 0.203927
vt 0.594699 0.109803
vt 0.594682 0.015672
vt 0.896642 0.580422
vt 0.836272 0.580430
vt 0.775884 0.486306
vt 0.715496 0.392182
vt 0.655107 0.298058
vt 0.594718 0.203934
vt 0.534330 0.109810
vt 0.534028 0.068824
vt 0.896661 0.674554
vt 0.836291 0.674561
vt 0.775902 0.580437
vt 0.715514 0.486313
vt 0.655126 0.392190
vt 0.594737 0.298066
vt 0.534348 0.203942
vt 0.473960 0.109818
vt 0.473942 0.015687
vt 0.896679 0.768685
vt 0.836309 0.768692
vt 0.775921 0.674568
vt 0.715532 0.580445
vt 0.655144 0.486321
vt 0.594755 0.392197
vt 0.534367 0.298073
vt 0.473978 0.203949
vt 0.413590 0.109825
vt 0.413300 0.066371
vt 0.896698 0.862816
vt 0.836328 0.862824
vt 0.775939 0.768700
vt 0.715551 0.674576
vt 0.655162 0.580452
vt 0.594774 0.486328
vt 0.534386 0.392205
vt 0.473997 0.298081
vt 0.413609 0.203957
vt 0.353220 0.109833
vt 0.351178 0.016249
vt 0.896716 0.956947
vt 0.836347 0.956955
vt 0.775958 0.862831
vt 0.715570 0.768707
vt 0.655181 0.674583
vt 0.594793 0.580460
vt 0.534404 0.486336
vt 0.474016 0.392212
vt 0.413627 0.298088
vt 0.353239 0.203964
vt 0.292851 0.109840
vt 0.292832 0.015709
vt 0.775976 0.956962
vt 0.715588 0.862839
vt 0.655200 0.768715
vt 0.594811 0.674591
vt 0.534423 0.580467
vt 0.474034 0.486344
vt 0.413646 0.392219
vt 0.353257 0.298096
vt 0.292869 0.203972
vt 0.715607 0.956970
vt 0.655218 0.862846
vt 0.594830 0.768722
vt 0.534441 0.674599
vt 0.474053 0.580475
vt 0.413664 0.486351
vt 0.353276 0.392227
vt 0.292887 0.298103
vt 0.655237 0.956977
vt 0.594849 0.862854
vt 0.534460 0.768730
vt 0.474072 0.674606
vt 0.413683 0.580482
vt 0.353295 0.486358
vt 0.292906 0.392235
vt 0.594866 0.956985
vt 0.534479 0.862861
vt 0.474090 0.768737
vt 0.413701 0.674613
vt 0.353313 0.580490
vt 0.292925 0.486366
vt 0.534496 0.956992
vt 0.474109 0.862869
vt 0.413720 0.768745
vt 0.353331 0.674621
vt 0.292942 0.580497
vt 0.474126 0.957000
vt 0.413739 0.862876
vt 0.353350 0.768752
vt 0.292961 0.674628
vt 0.413757 0.957007
vt 0.353368 0.862883
vt 0.292980 0.768759
vt 0.353387 0.957015
vt 0.292998 0.862891
vt 0.293017 0.957022
vt 0.088065 0.001992
vt 0.094970 0.001992
vt 0.094970 0.998008
vt 0.088065 0.998008
vt 0.100450 0.001992
vt 0.100450 0.998008
vt 0.080411 0.001992
vt 0.080411 0.998008
vt 0.072758 0.001992
vt 0.072758 0.998008
vt 0.065853 0.001992
vt 0.065853 0.998008
vt 0.060373 0.001992
vt 0.060373 0.998008
vt 0.065853 0.001992
vt 0.072757 0.001992
vt 0.072757 0.998008
vt 0.065853 0.998008
vt 0.080411 0.001992
vt 0.080411 0.998008
vt 0.060373 0.001992
vt 0.060373 0.998008
vt 0.088065 0.001992
vt 0.088065 0.998008
vt 0.094970 0.001992
vt 0.094970 0.998008
vt 0.100450 0.001992
vt 0.100450 0.998008
vt 0.169557 0.515533
vt 0.163020 0.515442
vt 0.170040 0.011266
vt 0.176577 0.011357
vt 0.157832 0.515370
vt 0.164852 0.011194
vt 0.176803 0.515634
vt 0.183823 0.011458
vt 0.184050 0.515735
vt 0.191070 0.011559
vt 0.190587 0.515826
vt 0.197606 0.011650
vt 0.195775 0.515898
vt 0.202794 0.011723
vt 0.163020 0.011651
vt 0.169557 0.011560
vt 0.176577 0.515735
vt 0.170040 0.515826
vt 0.176803 0.011459
vt 0.183823 0.515634
vt 0.157832 0.011723
vt 0.164852 0.515898
vt 0.184050 0.011358
vt 0.191070 0.515533
vt 0.190587 0.011267
vt 0.197606 0.515442
vt 0.195775 0.011194
vt 0.202794 0.515370
vt 0.179861 0.588373
vt 0.183380 0.595277
vt 0.159823 0.602931
vt 0.184592 0.602931
vt 0.174382 0.582893
vt 0.183380 0.610585
vt 0.167477 0.579375
vt 0.179861 0.617490
vt 0.159823 0.578163
vt 0.174382 0.622970
vt 0.152169 0.579375
vt 0.167477 0.626488
vt 0.145265 0.582893
vt 0.159823 0.627700
vt 0.139785 0.588373
vt 0.152169 0.626488
vt 0.136267 0.595277
vt 0.145265 0.622970
vt 0.135055 0.602931
vt 0.139785 0.617490
vt 0.136267 0.610585
vt 0.183380 0.610585
vt 0.179862 0.617490
vt 0.159823 0.602931
vt 0.174382 0.622970
vt 0.184592 0.602931
vt 0.167477 0.626488
vt 0.183380 0.595278
vt 0.159823 0.627700
vt 0.179862 0.588373
vt 0.152169 0.626488
vt 0.174382 0.582893
vt 0.145265 0.622970
vt 0.167477 0.579375
vt 0.139785 0.617490
vt 0.159823 0.578163
vt 0.136267 0.610585
vt 0.152169 0.579375
vt 0.135055 0.602931
vt 0.145265 0.582893
vt 0.136267 0.595278
vt 0.139785 0.588373
vt 0.194098 0.515665
vt 0.187560 0.515619
vt 0.187560 0.011443
vt 0.194098 0.011490
vt 0.180313 0.515603
vt 0.180313 0.011427
vt 0.173066 0.515619
vt 0.173066 0.011443
vt 0.166529 0.515665
vt 0.166529 0.011490
vt 0.166529 0.011490
vt 0.173066 0.011443
vt 0.173066 0.515619
vt 0.166529 0.515665
vt 0.180313 0.011427
vt 0.180313 0.515603
vt 0.187560 0.011443
vt 0.187560 0.515619
vt 0.194098 0.011490
vt 0.194098 0.515665
vt 0.094970 0.998008
vt 0.088065 0.998008
vt 0.088065 0.001992
vt 0.094970 0.001992
vt 0.080411 0.998008
vt 0.080411 0.001992
vt 0.072757 0.998008
vt 0.072757 0.001992
vt 0.065853 0.998008
vt 0.065853 0.001992
vt 0.065853 0.001992
vt 0.072757 0.001992
vt 0.072757 0.998008
vt 0.065853 0.998008
vt 0.080411 0.001992
vt 0.080411 0.998008
vt 0.088065 0.001992
vt 0.088065 0.998008
vt 0.094970 0.001992
vt 0.094970 0.998008
vt 0.146040 0.583958
vt 0.152577 0.580627
vt 0.159823 0.602931
vt 0.159823 0.579479
vt 0.140852 0.589147
vt 0.167070 0.580627
vt 0.137521 0.595684
vt 0.173607 0.583958
vt 0.136374 0.602931
vt 0.178795 0.589147
vt 0.137521 0.610178
vt 0.182125 0.595684
vt 0.140852 0.616716
vt 0.183273 0.602931
vt 0.146040 0.621904
vt 0.182125 0.610178
vt 0.152577 0.625235
vt 0.178795 0.616716
vt 0.159823 0.626383
vt 0.173607 0.621904
vt 0.167070 0.625235
vt 0.167070 0.580627
vt 0.173607 0.583958
vt 0.159823 0.602931
vt 0.178795 0.589147
vt 0.159823 0.579479
vt 0.182125 0.595684
vt 0.152577 0.580627
vt 0.183273 0.602931
vt 0.146040 0.583958
vt 0.182125 0.610178
vt 0.140852 0.589147
vt 0.178795 0.616716
vt 0.137521 0.595684
vt 0.173607 0.621904
vt 0.136374 0.602931
vt 0.167070 0.625235
vt 0.137521 0.610178
vt 0.159823 0.626383
vt 0.140852 0.616716
vt 0.152577 0.625235
vt 0.146040 0.621904
vn -0.998002 0.063178 0.000000
vn -0.998002 0.063177 0.000000
vn -0.997715 0.067248 0.006556
vn -0.997540 0.069388 0.010003
vn -0.998002 0.063177 0.000001
vn -0.998002 0.063178 0.000000
vn -0.998002 0.063177 0.000000
vn -0.998002 0.063178 -0.000000
vn -0.998002 0.063178 -0.000000
vn -0.998002 0.063177 -0.000000
vn -0.998002 0.063178 -0.000000
vn -0.998002 0.063178 -0.000000
vn -0.998002 0.063178 -0.000000
vn -0.998002 0.063177 -0.000000
vn -0.998002 0.063178 -0.000000
vn -0.998002 0.063177 -0.000000
vn -0.998002 0.063178 -0.000000
vn -0.998002 0.063178 0.000000
vn -0.998002 0.063177 -0.000000
vn -0.998002 0.063178 0.000000
vn -0.998002 0.063177 -0.000000
vn -0.998002 0.063178 0.000000
vn -0.997398 0.072088 0.000316
vn -0.996472 0.083931 -0.000201
vn -0.998002 0.063178 -0.000000
vn -0.998002 0.063178 -0.000000
vn -0.998002 0.063178 -0.000000
vn -0.998002 0.063177 -0.000000
vn -0.998002 0.063177 0.000000
vn -0.998002 0.063177 0.000000
vn -0.998002 0.063177 0.000000
vn -0.998002 0.063178 0.000000
vn -0.998002 0.063178 0.000000
vn -0.997344 0.072833 0.001162
vn -0.996301 0.085915 0.001760
vn -0.998002 0.063178 -0.000000
vn -0.998002 0.063178 0.000000
vn -0.998002 0.063178 0.000000
vn -0.998002 0.063177 0.000000
vn -0.998002 0.063177 0.000000
vn -0.998002 0.063178 0.000000
vn -0.998002 0.063177 -0.000000
vn -0.998002 0.063177 -0.000000
vn -0.998002 0.063178 -0.000000
vn -0.997286 0.073618 0.000452
vn -0.996102 0.088206 -0.000382
vn -0.998002 0.063178 0.000000
vn -0.998002 0.063178 0.000000
vn -0.998002 0.063178 0.000000
vn -0.998002 0.063178 0.000000
vn -0.998002 0.063178 -0.000000
vn -0.998002 0.063178 -0.000000
vn -0.998002 0.063178 -0.000000
vn -0.998002 0.063178 -0.000000
vn -0.998002 0.063178 -0.000000
vn -0.997277 0.073741 0.000293
vn -0.996074 0.088523 0.000969
vn -0.998002 0.063177 0.000000
vn -0.998002 0.063178 -0.000000
vn -0.998002 0.063178 -0.000000
vn -0.998002 0.063178 -0.000000
vn -0.998002 0.063178 -0.000000
vn -0.998002 0.063177 -0.000000
vn -0.998002 0.063177 0.000000
vn -0.998002 0.063178 0.000000
vn -0.998002 0.063178 0.000000
vn -0.997269 0.073858 0.000476
vn -0.996041 0.088897 -0.000418
vn -0.998002 0.063178 -0.000000
vn -0.998002 0.063178 -0.000000
vn -0.998002 0.063178 -0.000000
vn -0.998002 0.063178 0.000000
vn -0.998002 0.063177 0.000000
vn -0.998002 0.063178 0.000000
vn -0.998002 0.063178 0.000000
vn -0.998002 0.063178 0.000000
vn -0.998002 0.063178 0.000000
vn -0.997260 0.073978 0.000293
vn -0.996012 0.089209 0.001003
vn -0.998002 0.063178 -0.000000
vn -0.998002 0.063178 0.000000
vn -0.998002 0.063177 0.000000
vn -0.998002 0.063177 0.000000
vn -0.998002 0.063178 0.000000
vn -0.998002 0.063178 0.000000
vn -0.998002 0.063178 -0.000000
vn -0.998002 0.063178 -0.000000
vn -0.998002 0.063179 -0.000000
vn -0.997251 0.074094 0.000504
vn -0.995979 0.089586 -0.000455
vn -0.998002 0.063178 0.000000
vn -0.998002 0.063178 0.000000
vn -0.998002 0.063177 0.000000
vn -0.998002 0.063177 -0.000000
vn -0.998002 0.063178 -0.000000
vn -0.998002 0.063178 -0.000000
vn -0.998002 0.063177 -0.000000
vn -0.998002 0.063177 -0.000000
vn -0.998002 0.063178 -0.000000
vn -0.997209 0.074238 0.007950
vn -0.996653 0.081158 -0.009856
vn -0.997702 0.067411 0.006817
vn -0.998002 0.063178 -0.000000
vn -0.998002 0.063178 -0.000000
vn -0.998002 0.063179 -0.000000
vn -0.998002 0.063178 -0.000000
vn -0.998002 0.063178 -0.000000
vn -0.998002 0.063178 0.000000
vn -0.998002 0.063177 0.000000
vn -0.998002 0.063177 0.000000
vn -0.996544 0.075976 0.033572
vn -0.997335 0.071668 0.013678
vn -0.998002 0.063177 -0.000000
vn -0.998002 0.063178 -0.000000
vn -0.998002 0.063179 -0.000000
vn -0.998002 0.063178 -0.000000
vn -0.998002 0.063177 0.000000
vn -0.998002 0.063178 0.000001
vn -0.998002 0.063178 0.000001
vn -0.998002 0.063177 0.000000
vn -0.996471 0.079557 0.026750
vn -0.998002 0.063177 0.000000
vn -0.997609 0.068551 0.008765
vn -0.998002 0.063178 0.000000
vn -0.998002 0.063178 -0.000000
vn -0.998002 0.063179 -0.000000
vn -0.998002 0.063178 -0.000001
vn -0.998002 0.063178 -0.000001
vn -0.998002 0.063178 -0.000001
vn -0.998002 0.063178 -0.000001
vn -0.998002 0.063178 -0.000000
vn -0.998002 0.063178 -0.000000
vn -0.998002 0.063178 -0.000000
vn -0.998002 0.063178 -0.000000
vn -0.998002 0.063178 0.000000
vn -0.998002 0.063178 0.000000
vn -0.998002 0.063178 0.000000
vn -0.998002 0.063177 0.000000
vn -0.998002 0.063178 0.000000
vn -0.998002 0.063179 0.000000
vn -0.998002 0.063177 0.000000
vn -0.997292 0.073547 0.000262
vn -0.996122 0.087980 0.000293
vn -0.998002 0.063178 -0.000001
vn -0.998002 0.063177 -0.000000
vn -0.998002 0.063177 -0.000000
vn -0.998002 0.063178 0.000000
vn -0.998002 0.063178 0.000000
vn -0.998002 0.063177 0.000000
vn -0.998002 0.063178 0.000000
vn -0.998002 0.063178 0.000000
vn -0.998002 0.063177 0.000000
vn -0.997294 0.073521 0.000149
vn -0.996130 0.087893 0.000520
vn -0.998002 0.063178 -0.000000
vn -0.998002 0.063177 0.000000
vn -0.998002 0.063177 0.000000
vn -0.998002 0.063178 0.000000
vn -0.998002 0.063177 0.000000
vn -0.998002 0.063177 0.000000
vn -0.998002 0.063177 0.000000
vn -0.998002 0.063177 0.000000
vn -0.998002 0.063178 0.000000
vn -0.997296 0.073489 0.000260
vn -0.996137 0.087815 0.000293
vn -0.998002 0.063177 0.000000
vn -0.998002 0.063177 0.000001
vn -0.998002 0.063178 0.000002
vn -0.998002 0.063178 0.000002
vn -0.998002 0.063177 0.000001
vn -0.998002 0.063177 0.000000
vn -0.998002 0.063177 0.000000
vn -0.998002 0.063177 0.000000
vn -0.998002 0.063177 0.000000
vn -0.997295 0.073498 0.000199
vn -0.996135 0.087832 0.000568
vn -0.998002 0.063177 0.000000
vn -0.998002 0.063176 0.000001
vn -0.998002 0.063177 0.000002
vn -0.998002 0.063179 0.000002
vn -0.998002 0.063178 0.000001
vn -0.998002 0.063177 0.000000
vn -0.998002 0.063178 0.000000
vn -0.998002 0.063178 0.000000
vn -0.998002 0.063178 0.000000
vn -0.997295 0.073505 0.000261
vn -0.996133 0.087863 0.000292
vn -0.998002 0.063177 0.000000
vn -0.998002 0.063177 -0.000000
vn -0.998002 0.063177 -0.000002
vn -0.998002 0.063180 -0.000002
vn -0.998002 0.063179 -0.000000
vn -0.998002 0.063177 0.000000
vn -0.998002 0.063177 0.000000
vn -0.998002 0.063178 0.000000
vn -0.998002 0.063178 0.000000
vn -0.997315 0.073236 -0.000191
vn -0.996203 0.087062 0.000155
vn -0.998002 0.063178 0.000000
vn -0.998002 0.063178 -0.000001
vn -0.998002 0.063178 -0.000002
vn -0.998002 0.063178 -0.000002
vn -0.998002 0.063178 -0.000001
vn -0.998002 0.063177 0.000000
vn -0.998002 0.063178 -0.000000
vn -0.998002 0.063177 -0.000000
vn -0.998002 0.063177 -0.000001
vn -0.997321 0.073153 0.000327
vn -0.996232 0.086724 0.000660
vn -0.998002 0.063178 0.000000
vn -0.998002 0.063178 0.000000
vn -0.998002 0.063177 0.000000
vn -0.998002 0.063178 0.000000
vn -0.998002 0.063178 -0.000000
vn -0.998002 0.063177 -0.000000
vn -0.998002 0.063178 -0.000001
vn -0.998002 0.063178 -0.000001
vn -0.998002 0.063177 -0.000001
vn -0.997647 0.068188 -0.007151
vn -0.997459 0.070476 -0.010424
vn -0.998002 0.063178 0.000000
vn -0.998002 0.063177 0.000000
vn -0.998002 0.063177 -0.000000
vn -0.998002 0.063178 -0.000000
vn -0.998002 0.063178 -0.000001
vn -0.998002 0.063178 -0.000001
vn -0.998002 0.063178 -0.000000
vn -0.998002 0.063177 0.000000
vn -0.998002 0.063177 0.000000
vn -0.997996 0.063275 -0.000146
vn -0.997990 0.063375 -0.000295
vn -0.998002 0.063177 0.000000
vn -0.998002 0.063177 0.000000
vn -0.998002 0.063177 -0.000000
vn -0.998002 0.063178 -0.000001
vn -0.998002 0.063177 -0.000001
vn -0.998002 0.063178 -0.000000
vn -0.998002 0.063177 0.000000
vn -0.998002 0.063177 0.000000
vn -0.998002 0.063178 0.000000
vn 0.951057 0.000000 -0.309015
vn 0.809017 0.000000 -0.587785
vn 0.809017 0.000000 -0.587785
vn 0.951057 0.000000 -0.309015
vn 0.587788 0.000000 -0.809015
vn 0.587788 0.000000 -0.809015
vn 0.309021 0.000000 -0.951055
vn 0.309021 0.000000 -0.951055
vn 0.000000 0.000000 -1.000000
vn 0.000000 0.000000 -1.000000
vn -0.309021 0.000000 -0.951055
vn -0.309021 0.000000 -0.951055
vn -0.587788 0.000000 -0.809015
vn -0.587788 0.000000 -0.809015
vn -0.809017 0.000000 -0.587785
vn -0.809017 0.000000 -0.587785
vn -0.951057 0.000000 -0.309015
vn -0.951057 0.000000 -0.309015
vn -1.000000 0.000000 0.000000
vn -1.000000 0.000000 0.000000
vn -0.951055 0.000000 0.309022
vn -0.951055 0.000000 0.309022
vn -0.809017 0.000000 0.587785
vn -0.809017 0.000000 0.587785
vn -0.587788 0.000000 0.809015
vn -0.587788 0.000000 0.809015
vn -0.309021 0.000000 0.951055
vn -0.309021 0.000000 0.951055
vn 0.000000 0.000000 1.000000
vn 0.000000 0.000000 1.000000
vn 0.309021 0.000000 0.951055
vn 0.309021 0.000000 0.951055
vn 0.587788 0.000000 0.809015
vn 0.587788 0.000000 0.809015
vn 0.809017 0.000000 0.587785
vn 0.809017 0.000000 0.587785
vn 0.951055 0.000000 0.309022
vn 0.951055 0.000000 0.309022
vn 1.000000 0.000000 0.000000
vn 1.000000 0.000000 0.000000
vn 0.000000 -1.000000 -0.000000
vn 0.000000 -1.000000 -0.000000
vn 0.000000 -1.000000 0.000000
vn 0.000000 -1.000000 -0.000000
vn 0.000000 -1.000000 0.000000
vn 0.000000 -1.000000 0.000000
vn 0.000000 -1.000000 0.000000
vn 0.000000 -1.000000 0.000000
vn 0.000000 -1.000000 0.000000
vn 0.000000 -1.000000 -0.000000
vn 0.000000 -1.000000 0.000000
vn 0.000000 -1.000000 0.000000
vn 0.000000 -1.000000 0.000000
vn 0.000000 -1.000000 0.000000
vn 0.000000 -1.000000 -0.000000
vn 0.000000 -1.000000 0.000000
vn 0.000000 -1.000000 -0.000000
vn 0.000000 -1.000000 -0.000000
vn 0.000000 -1.000000 0.000000
vn 0.000000 -1.000000 0.000000
vn 0.000000 -1.000000 0.000000
vn 0.000000 1.000000 -0.000008
vn 0.000000 1.000000 -0.000008
vn 0.000000 1.000000 0.000000
vn 0.000000 1.000000 0.000000
vn 0.000000 1.000000 0.000000
vn 0.000000 1.000000 0.000000
vn 0.000000 1.000000 0.000000
vn 0.000000 1.000000 0.000000
vn 0.000000 1.000000 0.000000
vn 0.000000 1.000000 -0.000008
vn 0.000000 1.000000 -0.000008
vn 0.000000 1.000000 0.000008
vn 0.000000 1.000000 0.000008
vn 0.000000 1.000000 0.000000
vn 0.000000 1.000000 0.000000
vn 0.000000 1.000000 0.000000
vn 0.000000 1.000000 0.000000
vn 0.000000 1.000000 0.000000
vn 0.000000 1.000000 0.000000
vn 0.000000 1.000000 0.000008
vn 0.000000 1.000000 0.000008
vn 0.951057 -0.308987 -0.004302
vn 0.809016 -0.587729 -0.008183
vn 0.809016 -0.587730 -0.008183
vn 0.951057 -0.308987 -0.004302
vn 0.587784 -0.808940 -0.011263
vn 0.587785 -0.808939 -0.011263
vn 0.309017 -0.950965 -0.013241
vn 0.309016 -0.950965 -0.013241
vn 0.000000 -0.999903 -0.013922
vn 0.000000 -0.999903 -0.013922
vn -0.309017 -0.950964 -0.013241
vn -0.309016 -0.950965 -0.013241
vn -0.587785 -0.808939 -0.011263
vn -0.587786 -0.808938 -0.011263
vn -0.809018 -0.587727 -0.008183
vn -0.809017 -0.587728 -0.008183
vn -0.951056 -0.308990 -0.004302
vn -0.951056 -0.308990 -0.004302
vn -1.000000 0.000000 0.000000
vn -1.000000 -0.000000 0.000000
vn -0.951056 0.308990 0.004302
vn -0.951056 0.308989 0.004302
vn -0.809018 0.587727 0.008183
vn -0.809018 0.587727 0.008183
vn -0.587786 0.808938 0.011263
vn -0.587785 0.808939 0.011263
vn -0.309016 0.950965 0.013241
vn -0.309017 0.950965 0.013241
vn 0.000000 0.999903 0.013922
vn 0.000000 0.999903 0.013922
vn 0.309017 0.950965 0.013241
vn 0.309017 0.950964 0.013241
vn 0.587785 0.808939 0.011263
vn 0.587784 0.808940 0.011263
vn 0.809018 0.587727 0.008183
vn 0.809018 0.587727 0.008183
vn 0.951057 0.308987 0.004302
vn 0.951057 0.308986 0.004302
vn 1.000000 0.000003 0.000000
vn 1.000000 0.000003 0.000000
vn -0.000034 -0.013925 0.999903
vn 0.000000 -0.013925 0.999903
vn -0.000012 -0.013923 0.999903
vn -0.000034 -0.013920 0.999903
vn 0.000000 -0.013921 0.999903
vn -0.000069 -0.013926 0.999903
vn -0.000069 -0.013921 0.999903
vn 0.000000 -0.013920 0.999903
vn -0.000017 -0.013926 0.999903
vn -0.000017 -0.013925 0.999903
vn 0.000000 -0.013923 0.999903
vn 0.000034 -0.013925 0.999903
vn -0.000000 -0.013926 0.999903
vn -0.000034 -0.013920 0.999903
vn 0.000000 -0.013921 0.999903
vn 0.000000 -0.013926 0.999903
vn 0.000000 -0.013921 0.999903
vn 0.000034 -0.013920 0.999903
vn 0.000000 -0.013926 0.999903
vn -0.000034 -0.013925 0.999903
vn 0.000000 -0.013923 0.999903
vn -0.000017 0.013925 -0.999903
vn 0.000017 0.013925 -0.999903
vn 0.000003 0.013923 -0.999903
vn 0.000000 0.013920 -0.999903
vn -0.000034 0.013921 -0.999903
vn 0.000000 0.013926 -0.999903
vn 0.000034 0.013921 -0.999903
vn -0.000000 0.013920 -0.999903
vn -0.000000 0.013926 -0.999903
vn 0.000034 0.013925 -0.999903
vn 0.000000 0.013923 -0.999903
vn -0.000017 0.013925 -0.999903
vn 0.000017 0.013925 -0.999903
vn 0.000034 0.013920 -0.999903
vn 0.000000 0.013921 -0.999903
vn 0.000000 0.013926 -0.999903
vn 0.000000 0.013921 -0.999903
vn -0.000034 0.013920 -0.999903
vn -0.000000 0.013925 -0.999903
vn 0.000034 0.013925 -0.999903
vn 0.000000 0.013923 -0.999903
s 1
g pasted__Tela_1 group4
usemtl initialShadingGroup
f 1/1/1 2/2/2 13/3/3 12/4/4
f 2/2/2 3/5/5 14/6/6 13/3/3
f 3/5/5 4/9/7 15/10/8 14/6/6
f 4/9/7 5/14/9 16/15/10 15/10/8
f 5/14/9 6/20/11 17/21/12 16/15/10
f 6/20/11 7/27/13 18/28/14 17/21/12
f 7/27/13 8/35/15 19/36/16 18/28/14
f 8/35/15 9/44/17 20/45/18 19/36/16
f 9/44/17 10/54/19 21/55/20 20/45/18
f 10/54/19 11/65/21 22/66/22 21/55/20
f 12/4/4 13/3/3 24/7/23 23/8/24
f 13/3/3 14/6/6 25/11/25 24/7/23
f 14/6/6 15/10/8 26/16/26 25/11/25
f 15/10/8 16/15/10 27/22/27 26/16/26
f 16/15/10 17/21/12 28/29/28 27/22/27
f 17/21/12 18/28/14 29/37/29 28/29/28
f 18/28/14 19/36/16 30/46/30 29/37/29
f 19/36/16 20/45/18 31/56/31 30/46/30
f 20/45/18 21/55/20 32/67/32 31/56/31
f 21/55/20 22/66/22 33/76/33 32/67/32
f 23/8/24 24/7/23 35/12/34 34/13/35
f 24/7/23 25/11/25 36/17/36 35/12/34
f 25/11/25 26/16/26 37/23/37 36/17/36
f 26/16/26 27/22/27 38/30/38 37/23/37
f 27/22/27 28/29/28 39/38/39 38/30/38
f 28/29/28 29/37/29 40/47/40 39/38/39
f 29/37/29 30/46/30 41/57/41 40/47/40
f 30/46/30 31/56/31 42/68/42 41/57/41
f 31/56/31 32/67/32 43/77/43 42/68/42
f 32/67/32 33/76/33 44/85/44 43/77/43
f 34/13/35 35/12/34 46/18/45 45/19/46
f 35/12/34 36/17/36 47/24/47 46/18/45
f 36/17/36 37/23/37 48/31/48 47/24/47
f 37/23/37 38/30/38 49/39/49 48/31/48
f 38/30/38 39/38/39 50/48/50 49/39/49
f 39/38/39 40/47/40 51/58/51 50/48/50
f 40/47/40 41/57/41 52/69/52 51/58/51
f 41/57/41 42/68/42 53/78/53 52/69/52
f 42/68/42 43/77/43 54/86/54 53/78/53
f 43/77/43 44/85/44 55/93/55 54/86/54
f 45/19/46 46/18/45 57/25/56 56/26/57
f 46/18/45 47/24/47 58/32/58 57/25/56
f 47/24/47 48/31/48 59/40/59 58/32/58
f 48/31/48 49/39/49 60/49/60 59/40/59
f 49/39/49 50/48/50 61/59/61 60/49/60
f 50/48/50 51/58/51 62/70/62 61/59/61
f 51/58/51 52/69/52 63/79/63 62/70/62
f 52/69/52 53/78/53 64/87/64 63/79/63
f 53/78/53 54/86/54 65/94/65 64/87/64
f 54/86/54 55/93/55 66/100/66 65/94/65
f 56/26/57 57/25/56 68/33/67 67/34/68
f 57/25/56 58/32/58 69/41/69 68/33/67
f 58/32/58 59/40/59 70/50/70 69/41/69
f 59/40/59 60/49/60 71/60/71 70/50/70
f 60/49/60 61/59/61 72/71/72 71/60/71
f 61/59/61 62/70/62 73/80/73 72/71/72
f 62/70/62 63/79/63 74/88/74 73/80/73
f 63/79/63 64/87/64 75/95/75 74/88/74
f 64/87/64 65/94/65 76/101/76 75/95/75
f 65/94/65 66/100/66 77/106/77 76/101/76
f 67/34/68 68/33/67 79/42/78 78/43/79
f 68/33/67 69/41/69 80/51/80 79/42/78
f 69/41/69 70/50/70 81/61/81 80/51/80
f 70/50/70 71/60/71 82/72/82 81/61/81
f 71/60/71 72/71/72 83/81/83 82/72/82
f 72/71/72 73/80/73 84/89/84 83/81/83
f 73/80/73 74/88/74 85/96/85 84/89/84
f 74/88/74 75/95/75 86/102/86 85/96/85
f 75/95/75 76/101/76 87/107/87 86/102/86
f 76/101/76 77/106/77 88/111/88 87/107/87
f 78/43/79 79/42/78 90/52/89 89/53/90
f 79/42/78 80/51/80 91/62/91 90/52/89
f 80/51/80 81/61/81 92/73/92 91/62/91
f 81/61/81 82/72/82 93/82/93 92/73/92
f 82/72/82 83/81/83 94/90/94 93/82/93
f 83/81/83 84/89/84 95/97/95 94/90/94
f 84/89/84 85/96/85 96/103/96 95/97/95
f 85/96/85 86/102/86 97/108/97 96/103/96
f 86/102/86 87/107/87 98/112/98 97/108/97
f 87/107/87 88/111/88 99/115/99 98/112/98
f 89/53/90 90/52/89 101/63/100 100/64/101
f 90/52/89 91/62/91 102/74/102 101/63/100
f 91/62/91 92/73/92 103/83/103 102/74/102
f 92/73/92 93/82/93 104/91/104 103/83/103
f 93/82/93 94/90/94 105/98/105 104/91/104
f 94/90/94 95/97/95 106/104/106 105/98/105
f 95/97/95 96/103/96 107/109/107 106/104/106
f 96/103/96 97/108/97 108/113/108 107/109/107
f 97/108/97 98/112/98 109/116/109 108/113/108
f 98/112/98 99/115/99 110/118/110 109/116/109
f 100/64/101 101/63/100 111/75/111
f 101/63/100 102/74/102 112/84/112 111/75/111
f 102/74/102 103/83/103 113/92/113 112/84/112
f 103/83/103 104/91/104 114/99/114 113/92/113
f 104/91/104 105/98/105 115/105/115 114/99/114
f 105/98/105 106/104/106 116/110/116 115/105/115
f 106/104/106 107/109/107 117/114/117 116/110/116
f 107/109/107 108/113/108 118/117/118 117/114/117
f 108/113/108 109/116/109 119/119/119 118/117/118
f 109/116/109 110/118/110 120/120/120 119/119/119
s 2
f 131/121/121 121/122/122 132/123/123
f 121/122/122 122/124/124 133/125/125 132/123/123
f 122/124/124 123/128/126 134/129/127 133/125/125
f 123/128/126 124/133/128 135/134/129 134/129/127
f 124/133/128 125/139/130 136/140/131 135/134/129
f 125/139/130 126/146/132 137/147/133 136/140/131
f 126/146/132 127/154/134 138/155/135 137/147/133
f 127/154/134 128/163/136 139/164/137 138/155/135
f 128/163/136 129/173/138 140/174/139 139/164/137
f 129/173/138 130/184/140 141/185/141 140/174/139
f 131/121/121 132/123/123 143/126/142 142/127/143
f 132/123/123 133/125/125 144/130/144 143/126/142
f 133/125/125 134/129/127 145/135/145 144/130/144
f 134/129/127 135/134/129 146/141/146 145/135/145
f 135/134/129 136/140/131 147/148/147 146/141/146
f 136/140/131 137/147/133 148/156/148 147/148/147
f 137/147/133 138/155/135 149/165/149 148/156/148
f 138/155/135 139/164/137 150/175/150 149/165/149
f 139/164/137 140/174/139 151/186/151 150/175/150
f 140/174/139 141/185/141 152/196/152 151/186/151
f 142/127/143 143/126/142 154/131/153 153/132/154
f 143/126/142 144/130/144 155/136/155 154/131/153
f 144/130/144 145/135/145 156/142/156 155/136/155
f 145/135/145 146/141/146 157/149/157 156/142/156
f 146/141/146 147/148/147 158/157/158 157/149/157
f 147/148/147 148/156/148 159/166/159 158/157/158
f 148/156/148 149/165/149 160/176/160 159/166/159
f 149/165/149 150/175/150 161/187/161 160/176/160
f 150/175/150 151/186/151 162/197/162 161/187/161
f 151/186/151 152/196/152 163/205/163 162/197/162
f 153/132/154 154/131/153 165/137/164 164/138/165
f 154/131/153 155/136/155 166/143/166 165/137/164
f 155/136/155 156/142/156 167/150/167 166/143/166
f 156/142/156 157/149/157 168/158/168 167/150/167
f 157/149/157 158/157/158 169/167/169 168/158/168
f 158/157/158 159/166/159 170/177/170 169/167/169
f 159/166/159 160/176/160 171/188/171 170/177/170
f 160/176/160 161/187/161 172/198/172 171/188/171
f 161/187/161 162/197/162 173/206/173 172/198/172
f 162/197/162 163/205/163 174/213/174 173/206/173
f 164/138/165 165/137/164 176/144/175 175/145/176
f 165/137/164 166/143/166 177/151/177 176/144/175
f 166/143/166 167/150/167 178/159/178 177/151/177
f 167/150/167 168/158/168 179/168/179 178/159/178
f 168/158/168 169/167/169 180/178/180 179/168/179
f 169/167/169 170/177/170 181/189/181 180/178/180
f 170/177/170 171/188/171 182/199/182 181/189/181
f 171/188/171 172/198/172 183/207/183 182/199/182
f 172/198/172 173/206/173 184/214/184 183/207/183
f 173/206/173 174/213/174 185/220/185 184/214/184
f 175/145/176 176/144/175 187/152/186 186/153/187
f 176/144/175 177/151/177 188/160/188 187/152/186
f 177/151/177 178/159/178 189/169/189 188/160/188
f 178/159/178 179/168/179 190/179/190 189/169/189
f 179/168/179 180/178/180 191/190/191 190/179/190
f 180/178/180 181/189/181 192/200/192 191/190/191
f 181/189/181 182/199/182 193/208/193 192/200/192
f 182/199/182 183/207/183 194/215/194 193/208/193
f 183/207/183 184/214/184 195/221/195 194/215/194
f 184/214/184 185/220/185 196/226/196 195/221/195
f 186/153/187 187/152/186 198/161/197 197/162/198
f 187/152/186 188/160/188 199/170/199 198/161/197
f 188/160/188 189/169/189 200/180/200 199/170/199
f 189/169/189 190/179/190 201/191/201 200/180/200
f 190/179/190 191/190/191 202/201/202 201/191/201
f 191/190/191 192/200/192 203/209/203 202/201/202
f 192/200/192 193/208/193 204/216/204 203/209/203
f 193/208/193 194/215/194 205/222/205 204/216/204
f 194/215/194 195/221/195 206/227/206 205/222/205
f 195/221/195 196/226/196 207/231/207 206/227/206
f 197/162/198 198/161/197 209/171/208 208/172/209
f 198/161/197 199/170/199 210/181/210 209/171/208
f 199/170/199 200/180/200 211/192/211 210/181/210
f 200/180/200 201/191/201 212/202/212 211/192/211
f 201/191/201 202/201/202 213/210/213 212/202/212
f 202/201/202 203/209/203 214/217/214 213/210/213
f 203/209/203 204/216/204 215/223/215 214/217/214
f 204/216/204 205/222/205 216/228/216 215/223/215
f 205/222/205 206/227/206 217/232/217 216/228/216
f 206/227/206 207/231/207 218/235/218 217/232/217
f 208/172/209 209/171/208 220/182/219 219/183/220
f 209/171/208 210/181/210 221/193/221 220/182/219
f 210/181/210 211/192/211 222/203/222 221/193/221
f 211/192/211 212/202/212 223/211/223 222/203/222
f 212/202/212 213/210/213 224/218/224 223/211/223
f 213/210/213 214/217/214 225/224/225 224/218/224
f 214/217/214 215/223/215 226/229/226 225/224/225
f 215/223/215 216/228/216 227/233/227 226/229/226
f 216/228/216 217/232/217 228/236/228 227/233/227
f 217/232/217 218/235/218 229/238/229 228/236/228
f 219/183/220 220/182/219 231/194/230 230/195/231
f 220/182/219 221/193/221 232/204/232 231/194/230
f 221/193/221 222/203/222 233/212/233 232/204/232
f 222/203/222 223/211/223 234/219/234 233/212/233
f 223/211/223 224/218/224 235/225/235 234/219/234
f 224/218/224 225/224/225 236/230/236 235/225/235
f 225/224/225 226/229/226 237/234/237 236/230/236
f 226/229/226 227/233/227 238/237/238 237/234/237
f 227/233/227 228/236/228 239/239/239 238/237/238
f 228/236/228 229/238/229 240/240/240 239/239/239
s 3
f 241/241/241 242/242/242 262/243/243 261/244/244
f 242/242/242 243/245/245 263/246/246 262/243/243
f 243/359/245 244/360/247 264/361/248 263/362/246
f 244/360/247 245/363/249 265/364/250 264/361/248
f 245/363/249 246/365/251 266/366/252 265/364/250
f 246/365/251 247/367/253 267/368/254 266/366/252
f 247/261/253 248/255/255 268/258/256 267/262/254
f 248/255/255 249/256/257 269/257/258 268/258/256
f 249/256/257 250/259/259 270/260/260 269/257/258
f 250/259/259 251/263/261 271/264/262 270/260/260
f 251/263/261 252/265/263 272/266/264 271/264/262
f 252/265/263 253/267/265 273/268/266 272/266/264
f 253/369/265 254/370/267 274/371/268 273/372/266
f 254/370/267 255/373/269 275/374/270 274/371/268
f 255/373/269 256/375/271 276/376/272 275/374/270
f 256/375/271 257/377/273 277/378/274 276/376/272
f 257/253/273 258/251/275 278/252/276 277/254/274
f 258/251/275 259/249/277 279/250/278 278/252/276
f 259/249/277 260/247/279 280/248/280 279/250/278
f 260/247/279 241/241/241 261/244/244 280/248/280
s 4
f 242/297/281 241/298/282 281/299/283
f 243/301/284 242/297/281 281/299/283
f 244/303/285 243/301/284 281/299/283
f 245/305/286 244/303/285 281/299/283
f 246/307/287 245/305/286 281/299/283
f 247/309/288 246/307/287 281/299/283
f 248/311/289 247/309/288 281/299/283
f 249/313/290 248/311/289 281/299/283
f 250/315/291 249/313/290 281/299/283
f 251/317/292 250/315/291 281/299/283
f 252/316/293 251/317/292 281/299/283
f 253/314/294 252/316/293 281/299/283
f 254/312/295 253/314/294 281/299/283
f 255/310/296 254/312/295 281/299/283
f 256/308/297 255/310/296 281/299/283
f 257/306/298 256/308/297 281/299/283
f 258/304/299 257/306/298 281/299/283
f 259/302/300 258/304/299 281/299/283
f 260/300/301 259/302/300 281/299/283
f 241/298/282 260/300/301 281/299/283
s 5
f 261/318/302 262/319/303 282/320/304
f 262/319/303 263/321/305 282/320/304
f 263/321/305 264/323/306 282/320/304
f 264/323/306 265/325/307 282/320/304
f 265/325/307 266/327/308 282/320/304
f 266/327/308 267/329/309 282/320/304
f 267/329/309 268/331/310 282/320/304
f 268/331/310 269/333/311 282/320/304
f 269/333/311 270/335/312 282/320/304
f 270/335/312 271/337/313 282/320/304
f 271/337/313 272/338/314 282/320/304
f 272/338/314 273/336/315 282/320/304
f 273/336/315 274/334/316 282/320/304
f 274/334/316 275/332/317 282/320/304
f 275/332/317 276/330/318 282/320/304
f 276/330/318 277/328/319 282/320/304
f 277/328/319 278/326/320 282/320/304
f 278/326/320 279/324/321 282/320/304
f 279/324/321 280/322/322 282/320/304
f 280/322/322 261/318/302 282/320/304
s 6
f 283/269/323 284/270/324 304/271/325 303/272/326
f 284/270/324 285/273/327 305/274/328 304/271/325
f 285/339/327 286/340/329 306/341/330 305/342/328
f 286/340/329 287/343/331 307/344/332 306/341/330
f 287/343/331 288/345/333 308/346/334 307/344/332
f 288/345/333 289/347/335 309/348/336 308/346/334
f 289/289/335 290/283/337 310/286/338 309/290/336
f 290/283/337 291/284/339 311/285/340 310/286/338
f 291/284/339 292/287/341 312/288/342 311/285/340
f 292/287/341 293/291/343 313/292/344 312/288/342
f 293/291/343 294/293/345 314/294/346 313/292/344
f 294/293/345 295/295/347 315/296/348 314/294/346
f 295/349/347 296/350/349 316/351/350 315/352/348
f 296/350/349 297/353/351 317/354/352 316/351/350
f 297/353/351 298/355/353 318/356/354 317/354/352
f 298/355/353 299/357/355 319/358/356 318/356/354
f 299/281/355 300/279/357 320/280/358 319/282/356
f 300/279/357 301/277/359 321/278/360 320/280/358
f 301/277/359 302/275/361 322/276/362 321/278/360
f 302/275/361 283/269/323 303/272/326 322/276/362
s 7
f 284/379/363 283/380/364 323/381/365
f 285/383/366 284/379/363 323/381/365
f 286/385/367 285/383/366 323/381/365
f 287/387/368 286/385/367 323/381/365
f 288/389/369 287/387/368 323/381/365
f 289/391/370 288/389/369 323/381/365
f 290/393/371 289/391/370 323/381/365
f 291/395/372 290/393/371 323/381/365
f 292/397/373 291/395/372 323/381/365
f 293/399/374 292/397/373 323/381/365
f 294/398/375 293/399/374 323/381/365
f 295/396/376 294/398/375 323/381/365
f 296/394/377 295/396/376 323/381/365
f 297/392/378 296/394/377 323/381/365
f 298/390/379 297/392/378 323/381/365
f 299/388/380 298/390/379 323/381/365
f 300/386/381 299/388/380 323/381/365
f 301/384/382 300/386/381 323/381/365
f 302/382/383 301/384/382 323/381/365
f 283/380/364 302/382/383 323/381/365
s 8
f 303/400/384 304/401/385 324/402/386
f 304/401/385 305/403/387 324/402/386
f 305/403/387 306/405/388 324/402/386
f 306/405/388 307/407/389 324/402/386
f 307/407/389 308/409/390 324/402/386
f 308/409/390 309/411/391 324/402/386
f 309/411/391 310/413/392 324/402/386
f 310/413/392 311/415/393 324/402/386
f 311/415/393 312/417/394 324/402/386
f 312/417/394 313/419/395 324/402/386
f 313/419/395 314/420/396 324/402/386
f 314/420/396 315/418/397 324/402/386
f 315/418/397 316/416/398 324/402/386
f 316/416/398 317/414/399 324/402/386
f 317/414/399 318/412/400 324/402/386
f 318/412/400 319/410/401 324/402/386
f 319/410/401 320/408/402 324/402/386
f 320/408/402 321/406/403 324/402/386
f 321/406/403 322/404/404 324/402/386
f 322/404/404 303/400/384 324/402/386
