# This file uses meters as units for non-parametric coordinates.

mtllib Muralla_Sin_Reja.mtl
g default
v 359.905832 0.111117 1101.421939
v 400.094172 0.111117 1101.421939
v 359.981500 151.025700 1100.985442
v 400.018500 151.025700 1100.985442
v 359.981495 151.025700 869.998497
v 400.018496 151.025700 869.998497
v 359.905832 0.111117 869.562013
v 400.094172 0.111117 869.562013
v 359.981495 151.025700 893.097175
v 359.905832 0.111117 892.747979
v 400.094172 0.111117 892.747979
v 400.018496 151.025700 893.097175
v 359.981500 151.025700 1080.196549
v 359.905832 0.111117 1080.554459
v 400.094172 0.111117 1080.554459
v 400.018500 151.025700 1080.196549
v 400.149150 0.111117 930.309242
v 360.001508 151.025700 930.517138
v 400.018500 151.025700 930.517138
v 359.910445 151.025700 1035.292728
v 400.149150 0.111117 1035.480977
v 400.018500 151.025700 1035.292742
v 359.966354 120.842771 1101.072730
v 359.966354 120.842771 1080.268142
v 400.149157 120.842771 1035.330328
v 400.149157 120.842771 930.475448
v 359.966354 120.842771 893.027344
v 359.966354 120.842771 869.911167
v 400.033646 120.842771 869.911167
v 400.033646 120.842771 893.027344
v 400.033646 120.842771 1080.268142
v 400.033646 120.842771 1101.072730
v 400.018496 173.891096 893.097175
v 359.981495 173.891096 893.097175
v 400.018496 173.891096 869.998497
v 359.981495 173.891096 869.998497
v 359.981500 174.820789 1100.985442
v 400.018500 174.820789 1100.985442
v 400.018500 174.820789 1080.196549
v 359.981500 174.820789 1080.196549
v 400.149157 120.842771 1014.359369
v 400.018500 151.025700 1014.337588
v 359.910445 151.025700 1014.337574
v 400.149157 120.842771 955.640633
v 400.018500 151.025700 955.663295
v 360.001508 151.025700 955.663295
v 400.018500 174.768981 955.663295
v 359.981500 174.768981 955.663295
v 400.018500 174.768981 930.517138
v 359.981500 174.768981 930.517138
v 400.018500 175.666284 1035.292742
v 359.981500 175.666284 1035.292742
v 400.018500 175.666284 1014.337588
v 359.981500 175.666284 1014.337588
v 392.246813 120.842771 1014.359369
v 392.246813 120.842771 1035.330328
v 393.395575 120.842771 930.475448
v 393.395575 120.842771 955.640633
v 359.972410 132.915939 869.946096
v 359.972410 132.915939 893.055279
v 384.082095 132.915943 930.492123
v 369.742546 132.915943 930.492123
v 369.742546 132.915939 955.649697
v 384.082095 132.915939 955.649697
v 384.082095 132.915939 1014.350654
v 369.022255 132.915939 1014.350654
v 369.022255 132.915939 1035.315294
v 384.082095 132.915939 1035.315294
v 359.972413 132.915939 1080.239505
v 359.972413 132.915943 1101.037815
v 400.027587 132.915943 1101.037815
v 400.027587 132.915943 1080.239505
v 400.096895 132.915943 1035.315294
v 400.096895 132.915943 1014.350661
v 400.096895 132.915943 955.649698
v 400.096893 132.915939 930.492125
v 400.027587 132.915943 893.055275
v 400.027587 132.915939 869.946096
v 359.978770 145.592771 869.982774
v 359.978770 145.592771 893.084605
v 367.211678 145.592771 930.509632
v 359.732723 145.592771 930.509632
v 359.732723 145.592771 955.659216
v 367.211679 145.592771 955.659216
v 367.211679 145.592771 1014.341512
v 359.979068 145.592771 1014.341484
v 359.979068 145.592771 1035.299474
v 367.211679 145.592771 1035.299502
v 359.978775 145.592771 1080.209436
v 359.978775 145.592771 1101.001151
v 400.021225 145.592771 1101.001151
v 400.021225 145.592771 1080.209436
v 400.042018 145.592771 1035.299502
v 400.042018 145.592771 1014.341512
v 400.042018 145.592771 955.659216
v 400.042018 145.592771 930.509634
v 400.021225 145.592771 893.084605
v 400.021225 145.592771 869.982774
v 400.018500 151.025700 985.000441
v 359.955975 151.025700 985.000434
v 367.211679 145.592771 985.000362
v 384.082095 132.915939 985.000176
v 400.149157 120.842771 985.000001
v 400.096895 132.915943 985.000180
v 400.042018 145.592771 985.000366
vt 0.375000 0.000000
vt 0.625000 0.000000
vt 0.375000 0.250000
vt 0.625000 0.250000
vt 0.375000 0.500000
vt 0.625000 0.500000
vt 0.375000 0.750000
vt 0.625000 0.750000
vt 0.375000 1.000000
vt 0.625000 1.000000
vt 0.875000 0.000000
vt 0.875000 0.250000
vt 0.125000 0.000000
vt 0.125000 0.250000
vt 0.150000 0.250000
vt 0.375000 0.475000
vt 0.150000 0.000000
vt 0.375000 0.775000
vt 0.625000 0.775000
vt 0.850000 0.000000
vt 0.625000 0.475000
vt 0.850000 0.250000
vt 0.352500 0.250000
vt 0.375000 0.272500
vt 0.352500 0.000000
vt 0.375000 0.977500
vt 0.625000 0.977500
vt 0.647500 0.000000
vt 0.625000 0.272500
vt 0.647500 0.250000
vt 0.190500 0.000000
vt 0.500000 0.815500
vt 0.190500 0.250000
vt 0.375000 0.434500
vt 0.625000 0.434500
vt 0.809500 0.250000
vt 0.809500 0.000000
vt 0.303900 0.250000
vt 0.375000 0.321100
vt 0.303900 0.000000
vt 0.500000 0.928900
vt 0.696100 0.000000
vt 0.625000 0.321100
vt 0.696100 0.250000
vt 0.375000 0.200000
vt 0.352500 0.200000
vt 0.303900 0.200000
vt 0.190500 0.200000
vt 0.150000 0.200000
vt 0.125000 0.200000
vt 0.375000 0.550000
vt 0.625000 0.550000
vt 0.875000 0.200000
vt 0.850000 0.200000
vt 0.809500 0.200000
vt 0.696100 0.200000
vt 0.647500 0.200000
vt 0.625000 0.200000
vt 0.375000 0.475000
vt 0.625000 0.475000
vt 0.625000 0.500000
vt 0.375000 0.500000
vt 0.375000 0.250000
vt 0.625000 0.250000
vt 0.625000 0.272500
vt 0.375000 0.272500
vt 0.718780 0.200000
vt 0.625000 0.343780
vt 0.718780 0.250000
vt 0.281220 0.250000
vt 0.375000 0.343780
vt 0.281220 0.200000
vt 0.782284 0.200000
vt 0.625000 0.407284
vt 0.782284 0.250000
vt 0.217716 0.250000
vt 0.375000 0.407284
vt 0.217716 0.200000
vt 0.375000 0.407284
vt 0.625000 0.407284
vt 0.625000 0.434500
vt 0.375000 0.434500
vt 0.375000 0.321100
vt 0.625000 0.321100
vt 0.625000 0.343780
vt 0.375000 0.343780
vt 0.281220 0.200000
vt 0.303900 0.200000
vt 0.190500 0.200000
vt 0.217716 0.200000
vt 0.125000 0.220000
vt 0.375000 0.530000
vt 0.150000 0.220000
vt 0.190500 0.220000
vt 0.190500 0.220000
vt 0.217716 0.220000
vt 0.217716 0.220000
vt 0.281220 0.220000
vt 0.281220 0.220000
vt 0.303900 0.220000
vt 0.303900 0.220000
vt 0.352500 0.220000
vt 0.375000 0.220000
vt 0.625000 0.220000
vt 0.647500 0.220000
vt 0.696100 0.220000
vt 0.718780 0.220000
vt 0.782284 0.220000
vt 0.809500 0.220000
vt 0.850000 0.220000
vt 0.625000 0.530000
vt 0.875000 0.220000
vt 0.125000 0.241000
vt 0.375000 0.509000
vt 0.150000 0.241000
vt 0.190500 0.241000
vt 0.190500 0.241000
vt 0.217716 0.241000
vt 0.217716 0.241000
vt 0.281220 0.241000
vt 0.281220 0.241000
vt 0.303900 0.241000
vt 0.303900 0.241000
vt 0.352500 0.241000
vt 0.375000 0.241000
vt 0.625000 0.241000
vt 0.647500 0.241000
vt 0.696100 0.241000
vt 0.718780 0.241000
vt 0.782284 0.241000
vt 0.809500 0.241000
vt 0.850000 0.241000
vt 0.625000 0.509000
vt 0.875000 0.241000
vt 0.625000 0.375532
vt 0.750532 0.250000
vt 0.249468 0.250000
vt 0.375000 0.375532
vt 0.249468 0.241000
vt 0.249468 0.220000
vt 0.249468 0.200000
vt 0.750532 0.200000
vt 0.750532 0.220000
vt 0.750532 0.241000
vn 0.000000 0.002892 0.999996
vn 0.000000 0.002892 0.999996
vn 0.000000 0.002892 0.999996
vn 0.000000 0.002892 0.999996
vn 0.000000 1.000000 0.000000
vn 0.000000 1.000000 0.000000
vn 0.000000 1.000000 0.000000
vn 0.000000 1.000000 0.000000
vn 0.000000 0.002892 -0.999996
vn 0.000000 0.002892 -0.999996
vn 0.000000 0.002892 -0.999996
vn 0.000000 0.002892 -0.999996
vn 0.000000 -1.000000 -0.000000
vn 0.000000 -1.000000 -0.000000
vn 0.000000 -1.000000 0.000000
vn 0.000000 -1.000000 0.000000
vn 1.000000 0.000501 0.000000
vn 0.999999 0.000332 0.001294
vn 0.999999 0.000466 0.001305
vn 1.000000 0.000501 0.000000
vn -1.000000 0.000501 0.000000
vn -0.856920 -0.035969 -0.514193
vn -0.853567 -0.000661 -0.520982
vn -1.000000 0.000501 0.000000
vn -1.000000 0.000501 0.000000
vn -0.833663 -0.000730 0.552273
vn -0.837475 -0.031947 0.545541
vn -1.000000 0.000501 0.000000
vn 0.000000 -1.000000 0.000000
vn 0.000000 -1.000000 0.000000
vn 0.000000 -1.000000 0.000000
vn 0.000000 -1.000000 0.000000
vn 1.000000 0.000501 0.000000
vn 0.999999 0.000470 -0.001417
vn 0.999999 0.000349 -0.001404
vn 1.000000 0.000501 0.000000
vn 0.000000 1.000000 0.000000
vn 0.000000 1.000000 0.000000
vn 0.000000 1.000000 0.000000
vn 0.000000 1.000000 0.000000
vn -0.683278 -0.009019 0.730102
vn -0.682050 -0.001178 0.731304
vn 0.000000 -1.000000 0.000000
vn 0.999997 0.000674 -0.002159
vn 0.999997 0.000255 -0.002273
vn 0.000000 1.000000 -0.000000
vn 0.000000 1.000000 -0.000000
vn 0.000000 1.000000 -0.000000
vn 0.000000 1.000000 -0.000000
vn -0.746872 -0.010167 -0.664890
vn -0.745695 -0.001019 -0.666287
vn 0.000000 1.000000 0.000000
vn 0.000000 1.000000 0.000000
vn 0.000000 1.000000 0.000000
vn 0.000000 1.000000 0.000000
vn 0.999998 0.000608 0.001831
vn 0.999998 0.000254 0.001894
vn 0.000000 -1.000000 -0.000000
vn 0.000000 1.000000 0.000000
vn 0.000000 1.000000 0.000000
vn 0.000000 1.000000 0.000000
vn 0.000000 1.000000 0.000000
vn -0.907612 -0.416883 -0.049497
vn -0.897352 -0.409461 -0.164623
vn -1.000000 0.000502 0.000000
vn -1.000000 0.000502 0.000000
vn -0.828252 -0.556450 -0.066046
vn -0.805339 -0.536846 -0.251448
vn -0.999920 -0.012630 0.000000
vn -0.893308 -0.449444 0.000000
vn -0.893256 -0.449548 0.000000
vn -0.999920 -0.012630 0.000000
vn -0.923728 -0.379024 0.055384
vn -0.909513 -0.374037 0.181334
vn -0.793681 -0.528301 0.301609
vn -0.830567 -0.551073 0.080487
vn -1.000000 0.000502 0.000000
vn -1.000000 0.000502 0.000000
vn 0.000000 0.002894 -0.999996
vn 0.000000 0.002894 -0.999996
vn 0.000000 0.002893 -0.999996
vn 0.000000 0.002893 -0.999996
vn 0.999999 0.001686 -0.000172
vn 0.999998 0.001686 -0.000573
vn 1.000000 0.000502 0.000000
vn 1.000000 0.000502 0.000000
vn 0.999995 0.003185 -0.000166
vn 0.999995 0.003186 -0.000554
vn 0.999995 0.003025 0.000158
vn 0.999995 0.003025 0.000526
vn 0.999991 0.004329 0.000000
vn 0.999991 0.004329 0.000000
vn 0.999998 0.001811 0.000158
vn 0.999998 0.001811 0.000528
vn 1.000000 0.000502 0.000000
vn 1.000000 0.000502 0.000000
vn 0.000000 0.002892 0.999996
vn 0.000000 0.002892 0.999996
vn 0.000000 0.002891 0.999996
vn 0.000000 0.002891 0.999996
vn 0.000000 0.000000 1.000000
vn 0.000000 0.000000 1.000000
vn 0.000000 0.000000 1.000000
vn 0.000000 0.000000 1.000000
vn 1.000000 0.000000 0.000000
vn 1.000000 0.000000 0.000000
vn 1.000000 0.000000 0.000000
vn 1.000000 0.000000 0.000000
vn 0.000000 0.000000 -1.000000
vn 0.000000 0.000000 -1.000000
vn 0.000000 0.000000 -1.000000
vn 0.000000 0.000000 -1.000000
vn -1.000000 0.000000 0.000000
vn -1.000000 0.000000 0.000000
vn -1.000000 0.000000 0.000000
vn -1.000000 0.000000 0.000000
vn 0.000000 0.000000 1.000000
vn 0.000000 0.000000 1.000000
vn 0.000000 0.000000 1.000000
vn 0.000000 0.000000 1.000000
vn 1.000000 0.000000 0.000000
vn 1.000000 0.000000 0.000000
vn 1.000000 0.000000 0.000000
vn 1.000000 0.000000 0.000000
vn 0.000000 0.000000 -1.000000
vn 0.000000 0.000000 -1.000000
vn 0.000000 0.000000 -1.000000
vn 0.000000 0.000000 -1.000000
vn -1.000000 0.000000 0.000000
vn -1.000000 0.000000 0.000000
vn -1.000000 0.000000 0.000000
vn -1.000000 0.000000 0.000000
vn 0.999991 0.004329 0.000000
vn 0.999991 0.004329 0.000000
vn 0.000000 1.000000 -0.000000
vn 0.000000 1.000000 -0.000000
vn 0.000000 1.000000 -0.000000
vn 0.000000 1.000000 -0.000000
vn -0.599368 -0.800473 -0.000465
vn -0.600322 -0.799758 -0.000140
vn -0.599960 -0.800030 -0.000140
vn -0.598172 -0.801368 -0.000464
vn 0.999991 0.004329 0.000000
vn 0.999991 0.004329 -0.000000
vn 0.000000 1.000000 0.000000
vn 0.000000 1.000000 0.000000
vn 0.000000 1.000000 0.000000
vn 0.000000 1.000000 0.000000
vn -0.998778 0.049413 0.000000
vn -0.880623 -0.473817 -0.000000
vn -0.880691 -0.473692 -0.000000
vn -0.998778 0.049413 0.000000
vn 0.000000 0.000000 1.000000
vn 0.000000 0.000000 1.000000
vn 0.000000 0.000000 1.000000
vn 0.000000 0.000000 1.000000
vn 1.000000 0.000000 0.000000
vn 1.000000 0.000000 0.000000
vn 1.000000 0.000000 0.000000
vn 1.000000 0.000000 0.000000
vn 0.000000 0.000000 -1.000000
vn 0.000000 0.000000 -1.000000
vn 0.000000 0.000000 -1.000000
vn 0.000000 0.000000 -1.000000
vn -1.000000 -0.000843 0.000000
vn -1.000000 -0.000843 0.000000
vn -1.000000 -0.000843 0.000000
vn -1.000000 -0.000843 0.000000
vn 0.000000 -0.000000 1.000000
vn 0.000000 -0.000000 1.000000
vn 0.000000 -0.000000 1.000000
vn 0.000000 -0.000000 1.000000
vn 1.000000 0.000000 0.000000
vn 1.000000 0.000000 0.000000
vn 1.000000 0.000000 0.000000
vn 1.000000 0.000000 0.000000
vn 0.000000 0.000000 -1.000000
vn 0.000000 0.000000 -1.000000
vn 0.000000 0.000000 -1.000000
vn 0.000000 0.000000 -1.000000
vn -0.999996 0.002884 0.000000
vn -0.999996 0.002884 0.000000
vn -0.999996 0.002884 0.000000
vn -0.999996 0.002884 0.000000
vn 0.000004 -0.000720 -1.000000
vn 0.000001 -0.000721 -1.000000
vn 0.000002 -0.000721 -1.000000
vn 0.000000 -1.000000 0.000000
vn 0.000000 -1.000000 0.000000
vn 0.000000 -1.000000 0.000000
vn 0.000000 -1.000000 0.000000
vn -0.000002 0.001244 0.999999
vn -0.000002 0.001246 0.999999
vn -0.000003 0.001242 0.999999
vn 0.000000 0.001381 -0.999999
vn 0.000000 0.001381 -0.999999
vn 0.000000 0.001381 -0.999999
vn 0.000000 -1.000000 0.000000
vn 0.000000 -1.000000 0.000000
vn 0.000000 -1.000000 0.000000
vn 0.000000 -1.000000 0.000000
vn 0.000000 -0.000751 1.000000
vn 0.000000 -0.000751 1.000000
vn 0.000000 -0.000751 1.000000
vn -0.869390 -0.358017 0.340566
vn -1.000000 0.000502 0.000000
vn -0.690481 -0.460306 0.557990
vn 0.000000 0.001381 -0.999999
vn 0.000000 0.001381 -0.999999
vn 0.000000 0.001381 -0.999999
vn 0.000000 0.001381 -0.999999
vn -0.592344 -0.805685 -0.000000
vn -0.592311 -0.805709 -0.000000
vn -0.454629 -0.890681 0.000000
vn -0.454629 -0.890681 0.000000
vn 0.000000 -0.000751 1.000000
vn 0.000000 -0.000751 1.000000
vn 0.000000 -0.000751 1.000000
vn 0.000000 -0.000751 1.000000
vn -0.600728 -0.799453 0.000000
vn -0.600728 -0.799453 0.000000
vn -0.600728 -0.799453 0.000000
vn -0.600728 -0.799453 0.000000
vn 0.000001 -0.000721 -1.000000
vn 0.000000 -0.000722 -1.000000
vn 0.000000 -0.000722 -1.000000
vn 0.000000 -0.000722 -1.000000
vn -0.608558 -0.793509 0.000000
vn -0.608593 -0.793482 0.000000
vn -0.461244 -0.887273 0.000000
vn -0.461244 -0.887273 0.000000
vn 0.000000 0.001245 0.999999
vn -0.000000 0.001245 0.999999
vn -0.000002 0.001246 0.999999
vn 0.000000 0.001245 0.999999
vn -0.864710 -0.393570 -0.312057
vn -0.727142 -0.484540 -0.486298
vn -1.000000 0.000502 0.000000
vn 0.000000 0.002892 0.999996
vn 0.000000 0.002892 0.999996
vn 0.999998 0.001812 0.001037
vn 1.000000 0.000502 0.000000
vn 0.999995 0.003026 0.001034
vn 0.999991 0.004329 0.000000
vn 0.999991 0.004329 0.000000
vn 0.999991 0.004329 0.000000
vn 0.999991 0.004329 0.000000
vn 0.999994 0.003186 -0.001089
vn 0.999991 0.004329 -0.000000
vn 0.999991 0.004329 -0.000000
vn 0.999998 0.001687 -0.001126
vn 1.000000 0.000502 0.000000
vn 0.000000 0.002893 -0.999996
vn 0.000000 0.002893 -0.999996
vn 0.000000 1.000000 0.000000
vn 0.000000 1.000000 0.000000
vn -0.600582 -0.799563 -0.000466
vn -0.600684 -0.799486 -0.000140
vn -0.600728 -0.799453 0.000000
vn -0.600728 -0.799453 0.000000
s 1
g Puerta_muralla
usemtl initialShadingGroup
f 1/1/1 2/2/2 32/58/3 23/45/4
s off
f 37/63/5 38/64/6 39/65/7 40/66/8
s 2
f 28/51/9 29/52/10 8/8/11 7/7/12
s 3
f 14/26/13 15/27/14 2/10/15 1/9/16
s 4
f 2/2/17 15/28/18 31/57/19 32/58/20
s 5
f 23/45/21 24/46/22 14/25/23 1/1/24
s 6
f 7/13/25 10/17/26 27/49/27 28/50/28
s 7
f 7/7/29 8/8/30 11/19/31 10/18/32
s 4
f 29/53/33 30/54/34 11/20/35 8/11/36
s off
f 34/59/37 33/60/38 35/61/39 36/62/40
s 6
f 26/48/41 27/49/27 10/17/26 17/31/42
s 7
f 10/18/32 11/19/31 17/32/43
s 4
f 30/54/34 26/55/44 17/37/45 11/20/35
s off
f 18/34/46 19/35/47 12/21/48 9/16/49
s 5
f 24/46/22 25/47/50 21/40/51 14/25/23
s off
f 13/24/52 16/29/53 22/43/54 20/39/55
s 4
f 25/56/56 31/57/19 15/28/18 21/42/57
s 3
f 21/41/58 15/27/14 14/26/13
s off
f 52/83/59 51/84/60 53/85/61 54/86/62
s 5
f 13/23/63 89/124/64 90/125/65 3/3/66
f 20/38/67 88/123/68 89/124/64 13/23/63
s 10
f 43/70/69 86/121/70 87/122/71 20/38/72
s 6
f 9/15/73 80/115/74 81/116/75 18/33/76
f 79/113/77 80/115/74 9/15/73 5/14/78
s 2
f 5/5/79 6/6/80 98/133/81 79/114/82
s 4
f 12/22/83 97/132/84 98/134/85 6/12/86
f 19/36/87 96/131/88 97/132/84 12/22/83
f 22/44/89 93/128/90 94/129/91 42/69/92
f 16/30/93 92/127/94 93/128/90 22/44/89
f 91/126/95 92/127/94 16/30/93 4/4/96
s 1
f 90/125/97 91/126/98 4/4/99 3/3/100
s off
f 9/16/101 12/21/102 33/60/103 34/59/104
f 12/21/105 6/6/106 35/61/107 33/60/108
f 6/6/109 5/5/110 36/62/111 35/61/112
f 5/5/113 9/16/114 34/59/115 36/62/116
f 3/3/117 4/4/118 38/64/119 37/63/120
f 4/4/121 16/29/122 39/65/123 38/64/124
f 16/29/125 13/24/126 40/66/127 39/65/128
f 13/24/129 3/3/130 37/63/131 40/66/132
s 4
f 42/69/92 94/129/91 105/144/133 99/136/134
s 16
f 43/71/135 42/68/136 99/135/137 100/138/138
s 17
f 100/137/139 101/139/140 85/120/141 43/70/142
s 4
f 45/75/143 95/130/144 96/131/88 19/36/87
s off
f 48/79/145 47/80/146 49/81/147 50/82/148
s 18
f 18/33/149 82/117/150 83/118/151 46/76/152
s off
f 46/77/153 45/74/154 47/80/155 48/79/156
f 45/74/157 19/35/158 49/81/159 47/80/160
f 19/35/161 18/34/162 50/82/163 49/81/164
f 18/34/165 46/77/166 48/79/167 50/82/168
f 20/39/169 22/43/170 51/84/171 52/83/172
f 22/43/173 42/68/174 53/85/175 51/84/176
f 42/68/177 43/71/178 54/86/179 53/85/180
f 43/71/181 20/39/182 52/83/183 54/86/184
s 19
f 43/70/185 85/120/186 86/121/187
s off
f 41/72/188 25/47/189 56/88/190 55/87/191
s 20
f 87/122/192 88/123/193 20/38/194
s 21
f 18/33/195 81/116/196 82/117/197
s off
f 26/48/198 44/78/199 58/90/200 57/89/201
s 22
f 83/118/202 84/119/203 46/76/204
s 6
f 28/50/28 27/49/27 60/93/205 59/91/206
f 61/94/207 60/93/205 27/49/27 26/48/41
s 21
f 62/95/208 61/94/209 26/48/210 57/89/211
s 18
f 63/96/212 62/95/213 57/89/214 58/90/215
s 22
f 44/78/216 64/97/217 63/96/218 58/90/219
s 17
f 65/98/220 102/140/221 103/141/222 41/72/223
s 19
f 66/99/224 65/98/225 41/72/226 55/87/227
s 10
f 67/100/228 66/99/229 55/87/230 56/88/231
s 20
f 25/47/232 68/101/233 67/100/234 56/88/235
s 5
f 69/102/236 68/101/237 25/47/50 24/46/22
f 70/103/238 69/102/236 24/46/22 23/45/21
s 1
f 23/45/4 32/58/3 71/104/239 70/103/240
s 4
f 32/58/20 31/57/19 72/105/241 71/104/242
f 73/106/243 72/105/241 31/57/19 25/56/56
f 74/107/244 73/106/243 25/56/56 41/67/245
f 103/142/246 104/143/247 74/107/244 41/67/245
f 76/109/248 75/108/249 44/73/250 26/55/44
f 77/110/251 76/109/248 26/55/44 30/54/34
f 78/112/252 77/110/251 30/54/34 29/53/33
s 2
f 59/92/253 78/111/254 29/52/10 28/51/9
s 6
f 59/91/206 60/93/205 80/115/74 79/113/77
f 81/116/75 80/115/74 60/93/205 61/94/207
s 21
f 82/117/197 81/116/196 61/94/209 62/95/208
s 18
f 83/118/151 82/117/150 62/95/213 63/96/212
s 22
f 63/96/218 64/97/217 84/119/203 83/118/202
s 17
f 85/120/141 101/139/140 102/140/221 65/98/220
s 19
f 86/121/187 85/120/186 65/98/225 66/99/224
s 10
f 87/122/71 86/121/70 66/99/229 67/100/228
s 20
f 67/100/234 68/101/233 88/123/193 87/122/192
s 5
f 89/124/64 88/123/68 68/101/237 69/102/236
f 90/125/65 89/124/64 69/102/236 70/103/238
s 1
f 70/103/240 71/104/239 91/126/98 90/125/97
s 4
f 71/104/242 72/105/241 92/127/94 91/126/95
f 93/128/90 92/127/94 72/105/241 73/106/243
f 94/129/91 93/128/90 73/106/243 74/107/244
f 104/143/247 105/144/133 94/129/91 74/107/244
f 96/131/88 95/130/144 75/108/249 76/109/248
f 97/132/84 96/131/88 76/109/248 77/110/251
f 98/134/85 97/132/84 77/110/251 78/112/252
s 2
f 79/114/82 98/133/81 78/111/254 59/92/253
s 16
f 100/138/138 99/135/137 45/74/255 46/77/256
s 17
f 46/76/257 84/119/258 101/139/140 100/137/139
f 102/140/221 101/139/140 84/119/258 64/97/259
f 103/141/222 102/140/221 64/97/259 44/78/260
s 4
f 75/108/249 104/143/247 103/142/246 44/73/250
f 95/130/144 105/144/133 104/143/247 75/108/249
f 99/136/134 105/144/133 95/130/144 45/75/143
